%TF.GenerationSoftware,KiCad,Pcbnew,10.0.4*%
%TF.CreationDate,2026-07-16T21:11:21+08:00*%
%TF.ProjectId,TemperatureInspector_STM32F103C8T6_Hardware,54656d70-6572-4617-9475-7265496e7370,rev?*%
%TF.SameCoordinates,Original*%
%TF.FileFunction,Copper,L4,Bot*%
%TF.FilePolarity,Positive*%
%FSLAX46Y46*%
G04 Gerber Fmt 4.6, Leading zero omitted, Abs format (unit mm)*
G04 Created by KiCad (PCBNEW 10.0.4) date 2026-07-16 21:11:21*
%MOMM*%
%LPD*%
G01*
G04 APERTURE LIST*
%TA.AperFunction,ComponentPad*%
%ADD10C,1.500000*%
%TD*%
%TA.AperFunction,ComponentPad*%
%ADD11C,2.000000*%
%TD*%
%TA.AperFunction,ComponentPad*%
%ADD12R,1.700000X1.700000*%
%TD*%
%TA.AperFunction,ComponentPad*%
%ADD13C,1.700000*%
%TD*%
%TA.AperFunction,ComponentPad*%
%ADD14O,1.700000X1.100000*%
%TD*%
%TA.AperFunction,ComponentPad*%
%ADD15R,2.000000X2.000000*%
%TD*%
%TA.AperFunction,ViaPad*%
%ADD16C,0.400000*%
%TD*%
%TA.AperFunction,Conductor*%
%ADD17C,0.600000*%
%TD*%
%TA.AperFunction,Conductor*%
%ADD18C,0.180000*%
%TD*%
G04 APERTURE END LIST*
D10*
%TO.P,U3,1*%
%TO.N,/GND*%
X88000000Y-28000000D03*
%TO.P,U3,2*%
%TO.N,/ESP_GPIO2*%
X90540000Y-28000000D03*
%TO.P,U3,3*%
%TO.N,/ESP_GPIO0*%
X93080000Y-28000000D03*
%TO.P,U3,4*%
%TO.N,/UART2_TX_ESP_RX*%
X95620000Y-28000000D03*
%TO.P,U3,5*%
%TO.N,/UART2_RX_ESP_TX*%
X88000000Y-30540000D03*
%TO.P,U3,6*%
%TO.N,/ESP_EN*%
X90540000Y-30540000D03*
%TO.P,U3,7*%
%TO.N,/ESP_RST*%
X93080000Y-30540000D03*
%TO.P,U3,8*%
%TO.N,/+3V3*%
X95620000Y-30540000D03*
%TD*%
D11*
%TO.P,SW3,1*%
%TO.N,/KEY3*%
X49000000Y-68000000D03*
X55500000Y-68000000D03*
%TO.P,SW3,2*%
%TO.N,/GND*%
X49000000Y-72500000D03*
X55500000Y-72500000D03*
%TD*%
D12*
%TO.P,J5,1*%
%TO.N,/+3V3*%
X65000000Y-40000000D03*
D13*
%TO.P,J5,2*%
%TO.N,/SD_CS*%
X65000000Y-42540000D03*
%TO.P,J5,3*%
%TO.N,/SD_SCK*%
X65000000Y-45080000D03*
%TO.P,J5,4*%
%TO.N,/SD_MISO*%
X65000000Y-47620000D03*
%TO.P,J5,5*%
%TO.N,/SD_MOSI*%
X65000000Y-50160000D03*
%TO.P,J5,6*%
%TO.N,/GND*%
X65000000Y-52700000D03*
%TD*%
D12*
%TO.P,J2,1*%
%TO.N,/+3V3*%
X10000000Y-40000000D03*
D13*
%TO.P,J2,2*%
%TO.N,/DS18B20_DQ*%
X10000000Y-42540000D03*
%TO.P,J2,3*%
%TO.N,/GND*%
X10000000Y-45080000D03*
%TD*%
D12*
%TO.P,J4,1*%
%TO.N,/GND*%
X27000000Y-40000000D03*
D13*
%TO.P,J4,2*%
%TO.N,/+3V3*%
X27000000Y-42540000D03*
%TO.P,J4,3*%
%TO.N,/I2C_SCL*%
X27000000Y-45080000D03*
%TO.P,J4,4*%
%TO.N,/I2C_SDA*%
X27000000Y-47620000D03*
%TD*%
D12*
%TO.P,JP1,1*%
%TO.N,/+3V3*%
X60000000Y-10000000D03*
D13*
%TO.P,JP1,2*%
%TO.N,/BOOT0*%
X60000000Y-12540000D03*
%TD*%
D12*
%TO.P,J3,1*%
%TO.N,/+5V*%
X18000000Y-40000000D03*
D13*
%TO.P,J3,2*%
%TO.N,/+3V3*%
X18000000Y-42540000D03*
%TO.P,J3,3*%
%TO.N,/PT100_RAW*%
X18000000Y-45080000D03*
%TO.P,J3,4*%
%TO.N,/GND*%
X18000000Y-47620000D03*
%TD*%
D14*
%TO.P,J1,SH*%
%TO.N,/GND*%
X7000000Y-22320000D03*
X10800000Y-22320000D03*
X7000000Y-13680000D03*
X10800000Y-13680000D03*
%TD*%
D12*
%TO.P,J7,1*%
%TO.N,/+3V3*%
X100000000Y-43000000D03*
D13*
%TO.P,J7,2*%
%TO.N,/SWDIO*%
X100000000Y-45540000D03*
%TO.P,J7,3*%
%TO.N,/SWCLK*%
X100000000Y-48080000D03*
%TO.P,J7,4*%
%TO.N,/GND*%
X100000000Y-50620000D03*
%TD*%
D11*
%TO.P,SW2,1*%
%TO.N,/KEY2*%
X62000000Y-68000000D03*
X68500000Y-68000000D03*
%TO.P,SW2,2*%
%TO.N,/GND*%
X62000000Y-72500000D03*
X68500000Y-72500000D03*
%TD*%
D12*
%TO.P,J6,1*%
%TO.N,/+3V3*%
X92000000Y-43000000D03*
D13*
%TO.P,J6,2*%
%TO.N,/DEBUG_TX*%
X92000000Y-45540000D03*
%TO.P,J6,3*%
%TO.N,/DEBUG_RX*%
X92000000Y-48080000D03*
%TO.P,J6,4*%
%TO.N,/GND*%
X92000000Y-50620000D03*
%TD*%
D15*
%TO.P,BZ1,1*%
%TO.N,/+5V*%
X68000000Y-18000000D03*
D11*
%TO.P,BZ1,2*%
%TO.N,/BUZZER_COL*%
X75600000Y-18000000D03*
%TD*%
%TO.P,SW1,1*%
%TO.N,/KEY1*%
X75000000Y-68000000D03*
X81500000Y-68000000D03*
%TO.P,SW1,2*%
%TO.N,/GND*%
X75000000Y-72500000D03*
X81500000Y-72500000D03*
%TD*%
%TO.P,SW4,1*%
%TO.N,/NRST*%
X49000000Y-18000000D03*
X55500000Y-18000000D03*
%TO.P,SW4,2*%
%TO.N,/GND*%
X49000000Y-22500000D03*
X55500000Y-22500000D03*
%TD*%
D16*
%TO.N,/USB_5V*%
X13000000Y-18000000D03*
X5900000Y-16480000D03*
X5900000Y-19520000D03*
%TO.N,/GND*%
X82950000Y-32950000D03*
X71200000Y-49950000D03*
X80200000Y-49950000D03*
X23950000Y-21950000D03*
X89200000Y-54950000D03*
X18950000Y-15950000D03*
X5950000Y-20700000D03*
X60700000Y-24950000D03*
X5950000Y-15200000D03*
X22700000Y-26950000D03*
X52700000Y-29450000D03*
X22700000Y-9950000D03*
X57700000Y-42950000D03*
X86700000Y-32950000D03*
X67950000Y-32950000D03*
X25700000Y-54950000D03*
X48700000Y-39950000D03*
X60700000Y-32700000D03*
X48200000Y-35700000D03*
X28950000Y-23950000D03*
X46700000Y-23950000D03*
X18700000Y-9950000D03*
X64700000Y-26950000D03*
X67700000Y-33950000D03*
X57200000Y-40700000D03*
X44200000Y-31950000D03*
%TO.N,/ESP_GPIO2*%
X78700000Y-37950000D03*
%TO.N,/ESP_GPIO0*%
X82700000Y-37950000D03*
%TO.N,/UART2_TX_ESP_RX*%
X48200000Y-37700000D03*
X46950000Y-37700000D03*
X48200000Y-25200000D03*
X46200000Y-35950000D03*
%TO.N,/UART2_RX_ESP_TX*%
X73200000Y-40950000D03*
X52200000Y-40700000D03*
X73200000Y-44950000D03*
X52450000Y-46200000D03*
X62200000Y-46200000D03*
%TO.N,/ESP_EN*%
X86700000Y-37950000D03*
X87450000Y-32950000D03*
%TO.N,/+3V3*%
X52200000Y-28200000D03*
X47200000Y-38950000D03*
X57700000Y-41700000D03*
X56200000Y-41700000D03*
X49450000Y-28200000D03*
X49450000Y-32200000D03*
X61700000Y-32200000D03*
X49450000Y-36270000D03*
X46700000Y-33200000D03*
%TO.N,/KEY3*%
X55700000Y-29450000D03*
X50200000Y-30700000D03*
%TO.N,/SD_CS*%
X60700000Y-37700000D03*
X60200000Y-42450000D03*
%TO.N,/SD_SCK*%
X59700000Y-45200000D03*
X61700000Y-37200000D03*
%TO.N,/SD_MISO*%
X59200000Y-47700000D03*
X60700000Y-36700000D03*
%TO.N,/SD_MOSI*%
X61700000Y-36200000D03*
X58700000Y-50200000D03*
%TO.N,/ALARM_LED*%
X55200000Y-40700000D03*
X55200000Y-49700000D03*
X53950000Y-40450000D03*
X55200000Y-43200000D03*
%TO.N,/DS18B20_DQ*%
X48200000Y-36700000D03*
%TO.N,/BUZZER*%
X48200000Y-41700000D03*
X63450000Y-31950000D03*
X47450000Y-23950000D03*
X62450000Y-26450000D03*
X46950000Y-30950000D03*
X54700000Y-41700000D03*
%TO.N,/PT100_ADC*%
X21700000Y-43200000D03*
X49450000Y-37200000D03*
%TO.N,/I2C_SCL*%
X55200000Y-28200000D03*
X50200000Y-28950000D03*
%TO.N,/I2C_SDA*%
X34950000Y-53950000D03*
X54700000Y-29450000D03*
X51450000Y-29950000D03*
%TO.N,/NRST*%
X52700000Y-32950000D03*
X43700000Y-26950000D03*
X49450000Y-35200000D03*
%TO.N,/BOOT0*%
X54200000Y-27450000D03*
X54200000Y-28200000D03*
%TO.N,/BUZZER_COL*%
X70950000Y-30200000D03*
%TO.N,/USB_CC1*%
X14000000Y-11000000D03*
X9000000Y-19100000D03*
%TO.N,/USB_CC2*%
X9000000Y-16600000D03*
X20000000Y-11000000D03*
%TO.N,/DEBUG_TX*%
X66950000Y-45700000D03*
X57950000Y-45200000D03*
X61700000Y-35200000D03*
%TO.N,/DEBUG_RX*%
X55450000Y-42450000D03*
X60700000Y-34700000D03*
X55950000Y-40450000D03*
X57950000Y-46950000D03*
X62200000Y-46950000D03*
%TO.N,/SWDIO*%
X61700000Y-33200000D03*
%TO.N,/SWCLK*%
X57700000Y-29450000D03*
%TO.N,/KEY1*%
X63450000Y-38700000D03*
X56700000Y-29450000D03*
%TO.N,/KEY2*%
X56200000Y-28200000D03*
X61450000Y-37950000D03*
X58950000Y-30450000D03*
%TD*%
%TO.N,/USB_5V*%
D17*
X5900000Y-16480000D02*
X5900000Y-18000000D01*
X5900000Y-18000000D02*
X13000000Y-18000000D01*
X5900000Y-19520000D02*
X5900000Y-18000000D01*
%TO.N,/ESP_GPIO2*%
D18*
X88950000Y-31450000D02*
X89200000Y-31450000D01*
X78700000Y-37950000D02*
X78700000Y-31700000D01*
X88950000Y-31700000D02*
X88950000Y-31450000D01*
X89200000Y-27950000D02*
X90450000Y-27950000D01*
X78700000Y-31700000D02*
X88950000Y-31700000D01*
X89200000Y-31450000D02*
X89200000Y-27950000D01*
%TO.N,/ESP_GPIO0*%
X82700000Y-37950000D02*
X82700000Y-33450000D01*
X89450000Y-32200000D02*
X89450000Y-31950000D01*
X91700000Y-27950000D02*
X93200000Y-27950000D01*
X83450000Y-33450000D02*
X83450000Y-32200000D01*
X91700000Y-31700000D02*
X91700000Y-27950000D01*
X83450000Y-32200000D02*
X89450000Y-32200000D01*
X89700000Y-31950000D02*
X89700000Y-31700000D01*
X82700000Y-33450000D02*
X83450000Y-33450000D01*
X89700000Y-31700000D02*
X91700000Y-31700000D01*
X89450000Y-31950000D02*
X89700000Y-31950000D01*
%TO.N,/UART2_TX_ESP_RX*%
X48200000Y-25200000D02*
X48200000Y-32700000D01*
X46950000Y-37700000D02*
X48200000Y-37700000D01*
X46200000Y-32700000D02*
X46200000Y-35950000D01*
X48200000Y-32700000D02*
X46200000Y-32700000D01*
%TO.N,/UART2_RX_ESP_TX*%
X52200000Y-46200000D02*
X52200000Y-40700000D01*
X73200000Y-44950000D02*
X66200000Y-44950000D01*
X66200000Y-46200000D02*
X62200000Y-46200000D01*
X87950000Y-30450000D02*
X73200000Y-30450000D01*
X52450000Y-46200000D02*
X52200000Y-46200000D01*
X66200000Y-44950000D02*
X66200000Y-46200000D01*
X73200000Y-30450000D02*
X73200000Y-40950000D01*
%TO.N,/ESP_EN*%
X87200000Y-32950000D02*
X87450000Y-32950000D01*
X86700000Y-33450000D02*
X87200000Y-33450000D01*
X86700000Y-37950000D02*
X86700000Y-33450000D01*
X87200000Y-33450000D02*
X87200000Y-32950000D01*
%TO.N,/+3V3*%
X58700000Y-20950000D02*
X52200000Y-20950000D01*
X58950000Y-11200000D02*
X58950000Y-11450000D01*
X52200000Y-40200000D02*
X52200000Y-36200000D01*
X52200000Y-36200000D02*
X49450000Y-36200000D01*
X55200000Y-41200000D02*
X52700000Y-41200000D01*
X52700000Y-41200000D02*
X52700000Y-40200000D01*
X61700000Y-32200000D02*
X49450000Y-32200000D01*
X48950000Y-32200000D02*
X49450000Y-32200000D01*
X48950000Y-35700000D02*
X48950000Y-32200000D01*
X49450000Y-36200000D02*
X49450000Y-35700000D01*
X52200000Y-28200000D02*
X49450000Y-28200000D01*
X46700000Y-34200000D02*
X49450000Y-34200000D01*
X55200000Y-41700000D02*
X55200000Y-41200000D01*
X48950000Y-38950000D02*
X48950000Y-35700000D01*
X58700000Y-11450000D02*
X58700000Y-20950000D01*
X58950000Y-11450000D02*
X58700000Y-11450000D01*
X47200000Y-38950000D02*
X48950000Y-38950000D01*
X52200000Y-20950000D02*
X52200000Y-28200000D01*
X49450000Y-28200000D02*
X49450000Y-32200000D01*
X52700000Y-40200000D02*
X52200000Y-40200000D01*
X49450000Y-34200000D02*
X49450000Y-32200000D01*
X49450000Y-35700000D02*
X48950000Y-35700000D01*
X46700000Y-33200000D02*
X46700000Y-34200000D01*
X57700000Y-41700000D02*
X55200000Y-41700000D01*
X59950000Y-9950000D02*
X59950000Y-11200000D01*
X59950000Y-11200000D02*
X58950000Y-11200000D01*
%TO.N,/KEY3*%
X55200000Y-29450000D02*
X55700000Y-29450000D01*
X50200000Y-30450000D02*
X53700000Y-30450000D01*
X53700000Y-30450000D02*
X53700000Y-29950000D01*
X53700000Y-29950000D02*
X55200000Y-29950000D01*
X50200000Y-30700000D02*
X50200000Y-30450000D01*
X55200000Y-29950000D02*
X55200000Y-29450000D01*
%TO.N,/SD_CS*%
X60700000Y-37700000D02*
X60200000Y-37700000D01*
X60200000Y-37700000D02*
X60200000Y-42450000D01*
%TO.N,/SD_SCK*%
X61700000Y-37200000D02*
X59700000Y-37200000D01*
X59700000Y-37200000D02*
X59700000Y-45200000D01*
%TO.N,/SD_MISO*%
X59200000Y-36700000D02*
X59200000Y-47700000D01*
X60700000Y-36700000D02*
X59200000Y-36700000D01*
%TO.N,/SD_MOSI*%
X58700000Y-36200000D02*
X58700000Y-50200000D01*
X61700000Y-36200000D02*
X58700000Y-36200000D01*
%TO.N,/ALARM_LED*%
X55200000Y-49700000D02*
X55200000Y-43200000D01*
X53950000Y-40700000D02*
X55200000Y-40700000D01*
X53950000Y-40450000D02*
X53950000Y-40700000D01*
%TO.N,/DS18B20_DQ*%
X11200000Y-41200000D02*
X11200000Y-36700000D01*
X9950000Y-41200000D02*
X11200000Y-41200000D01*
X9950000Y-42450000D02*
X9950000Y-41200000D01*
X11200000Y-36700000D02*
X48200000Y-36700000D01*
%TO.N,/BUZZER*%
X47450000Y-23950000D02*
X47450000Y-30950000D01*
X63200000Y-31950000D02*
X63200000Y-30700000D01*
X47450000Y-30950000D02*
X46950000Y-30950000D01*
X52950000Y-46700000D02*
X52950000Y-41700000D01*
X52950000Y-41700000D02*
X54700000Y-41700000D01*
X51700000Y-46700000D02*
X52950000Y-46700000D01*
X51700000Y-41700000D02*
X51700000Y-46700000D01*
X62450000Y-30700000D02*
X62450000Y-26450000D01*
X63450000Y-31950000D02*
X63200000Y-31950000D01*
X48200000Y-41700000D02*
X51700000Y-41700000D01*
X63200000Y-30700000D02*
X62450000Y-30700000D01*
%TO.N,/PT100_ADC*%
X21700000Y-43200000D02*
X21700000Y-41200000D01*
X28200000Y-41200000D02*
X28200000Y-39450000D01*
X49450000Y-39450000D02*
X49450000Y-37200000D01*
X28200000Y-39450000D02*
X49450000Y-39450000D01*
X21700000Y-41200000D02*
X28200000Y-41200000D01*
%TO.N,/I2C_SCL*%
X50200000Y-28950000D02*
X50200000Y-28700000D01*
X54700000Y-28700000D02*
X54700000Y-28200000D01*
X54700000Y-28200000D02*
X55200000Y-28200000D01*
X50200000Y-28700000D02*
X54700000Y-28700000D01*
%TO.N,/I2C_SDA*%
X34950000Y-48950000D02*
X27000000Y-48950000D01*
X51450000Y-29950000D02*
X53200000Y-29950000D01*
X53200000Y-29450000D02*
X54700000Y-29450000D01*
X53200000Y-29950000D02*
X53200000Y-29450000D01*
X27000000Y-48950000D02*
X27000000Y-47620000D01*
X34950000Y-53950000D02*
X34950000Y-48950000D01*
%TO.N,/NRST*%
X49950000Y-32950000D02*
X49950000Y-34700000D01*
X49950000Y-34700000D02*
X49450000Y-34700000D01*
X52700000Y-32950000D02*
X49950000Y-32950000D01*
X49450000Y-34700000D02*
X49450000Y-35200000D01*
X43700000Y-18000000D02*
X49000000Y-18000000D01*
X43700000Y-26950000D02*
X43700000Y-18000000D01*
%TO.N,/BOOT0*%
X59950000Y-12450000D02*
X59200000Y-12450000D01*
X59200000Y-25950000D02*
X54200000Y-25950000D01*
X59200000Y-12450000D02*
X59200000Y-25950000D01*
X54200000Y-27450000D02*
X54200000Y-28200000D01*
X54200000Y-25950000D02*
X54200000Y-27450000D01*
%TO.N,/BUZZER_COL*%
X70950000Y-30200000D02*
X70950000Y-25450000D01*
X70950000Y-25450000D02*
X75700000Y-25450000D01*
X75700000Y-25450000D02*
X75700000Y-17950000D01*
%TO.N,/USB_CC1*%
X9000000Y-19100000D02*
X14000000Y-19100000D01*
X14000000Y-19100000D02*
X14000000Y-11000000D01*
%TO.N,/USB_CC2*%
X9000000Y-8000000D02*
X20000000Y-8000000D01*
X20000000Y-8000000D02*
X20000000Y-11000000D01*
X9000000Y-16600000D02*
X9000000Y-8000000D01*
%TO.N,/DEBUG_TX*%
X91950000Y-45450000D02*
X66950000Y-45450000D01*
X57950000Y-43450000D02*
X58200000Y-43450000D01*
X57950000Y-45200000D02*
X57950000Y-43450000D01*
X66950000Y-45450000D02*
X66950000Y-45700000D01*
X58200000Y-43450000D02*
X58200000Y-35200000D01*
X58200000Y-35200000D02*
X61700000Y-35200000D01*
%TO.N,/DEBUG_RX*%
X65950000Y-48700000D02*
X65950000Y-48950000D01*
X91950000Y-48200000D02*
X66200000Y-48200000D01*
X57950000Y-45700000D02*
X57450000Y-45700000D01*
X57450000Y-43450000D02*
X57200000Y-43450000D01*
X66200000Y-48200000D02*
X66200000Y-48700000D01*
X66200000Y-48700000D02*
X65950000Y-48700000D01*
X65950000Y-48950000D02*
X62200000Y-48950000D01*
X57950000Y-46950000D02*
X57950000Y-45700000D01*
X55950000Y-40450000D02*
X55950000Y-34700000D01*
X55950000Y-34700000D02*
X60700000Y-34700000D01*
X57450000Y-45700000D02*
X57450000Y-43450000D01*
X57200000Y-42450000D02*
X55450000Y-42450000D01*
X62200000Y-48950000D02*
X62200000Y-46950000D01*
X57200000Y-43450000D02*
X57200000Y-42450000D01*
%TO.N,/SWDIO*%
X93200000Y-44450000D02*
X92950000Y-44450000D01*
X99950000Y-45450000D02*
X93200000Y-45450000D01*
X93200000Y-45450000D02*
X93200000Y-44450000D01*
X62200000Y-43950000D02*
X62200000Y-34700000D01*
X62200000Y-34700000D02*
X61700000Y-34700000D01*
X92950000Y-44450000D02*
X92950000Y-44200000D01*
X92950000Y-44200000D02*
X66200000Y-44200000D01*
X61700000Y-34700000D02*
X61700000Y-33200000D01*
X66200000Y-43950000D02*
X62200000Y-43950000D01*
X66200000Y-44200000D02*
X66200000Y-43950000D01*
%TO.N,/SWCLK*%
X93700000Y-43950000D02*
X93450000Y-43950000D01*
X99950000Y-48200000D02*
X99950000Y-46700000D01*
X100950000Y-44200000D02*
X93700000Y-44200000D01*
X66200000Y-41700000D02*
X66200000Y-41450000D01*
X62700000Y-34200000D02*
X62200000Y-34200000D01*
X93450000Y-43700000D02*
X93200000Y-43700000D01*
X62700000Y-41200000D02*
X62700000Y-34200000D01*
X99950000Y-46700000D02*
X101200000Y-46700000D01*
X101200000Y-46700000D02*
X101200000Y-44450000D01*
X93700000Y-44200000D02*
X93700000Y-43950000D01*
X66200000Y-41450000D02*
X65950000Y-41450000D01*
X65950000Y-41200000D02*
X62700000Y-41200000D01*
X57700000Y-31700000D02*
X57700000Y-29450000D01*
X100950000Y-44450000D02*
X100950000Y-44200000D01*
X101200000Y-44450000D02*
X100950000Y-44450000D01*
X93200000Y-41700000D02*
X66200000Y-41700000D01*
X93450000Y-43950000D02*
X93450000Y-43700000D01*
X93200000Y-43700000D02*
X93200000Y-41700000D01*
X65950000Y-41450000D02*
X65950000Y-41200000D01*
X62200000Y-31700000D02*
X57700000Y-31700000D01*
X62200000Y-34200000D02*
X62200000Y-31700000D01*
%TO.N,/KEY1*%
X63450000Y-38700000D02*
X63200000Y-38700000D01*
X63200000Y-33700000D02*
X62700000Y-33700000D01*
X56700000Y-28950000D02*
X56700000Y-29450000D01*
X62700000Y-31200000D02*
X58200000Y-31200000D01*
X58200000Y-28950000D02*
X56700000Y-28950000D01*
X63200000Y-38700000D02*
X63200000Y-33700000D01*
X62700000Y-33700000D02*
X62700000Y-31200000D01*
X58200000Y-31200000D02*
X58200000Y-28950000D01*
%TO.N,/KEY2*%
X58950000Y-30450000D02*
X58700000Y-30450000D01*
X61950000Y-67950000D02*
X61450000Y-67950000D01*
X58700000Y-28450000D02*
X56200000Y-28450000D01*
X61450000Y-67950000D02*
X61450000Y-37950000D01*
X58700000Y-30450000D02*
X58700000Y-28450000D01*
X56200000Y-28450000D02*
X56200000Y-28200000D01*
%TD*%
%TA.AperFunction,Conductor*%
%TO.N,/GND*%
G36*
X57441291Y-42009407D02*
G01*
X57453097Y-42019490D01*
X57454087Y-42020480D01*
X57545413Y-42073207D01*
X57647273Y-42100500D01*
X57647275Y-42100500D01*
X57752725Y-42100500D01*
X57752727Y-42100500D01*
X57784878Y-42091885D01*
X57845979Y-42095088D01*
X57893528Y-42133593D01*
X57909500Y-42187512D01*
X57909500Y-43084138D01*
X57890593Y-43142329D01*
X57860710Y-43169461D01*
X57849115Y-43176284D01*
X57837871Y-43179297D01*
X57771629Y-43217542D01*
X57761081Y-43228089D01*
X57750210Y-43234487D01*
X57732054Y-43238503D01*
X57715487Y-43246945D01*
X57702905Y-43244952D01*
X57690469Y-43247704D01*
X57673420Y-43240282D01*
X57655055Y-43237374D01*
X57637589Y-43224684D01*
X57634369Y-43223283D01*
X57633404Y-43221644D01*
X57629999Y-43219170D01*
X57628371Y-43217542D01*
X57628368Y-43217540D01*
X57628366Y-43217538D01*
X57562132Y-43179298D01*
X57556137Y-43176815D01*
X57556813Y-43175182D01*
X57512551Y-43146427D01*
X57490635Y-43089302D01*
X57490500Y-43084138D01*
X57490500Y-42411756D01*
X57486620Y-42397274D01*
X57470703Y-42337871D01*
X57470701Y-42337868D01*
X57470701Y-42337866D01*
X57432461Y-42271633D01*
X57432459Y-42271631D01*
X57432458Y-42271629D01*
X57378371Y-42217542D01*
X57378368Y-42217540D01*
X57378366Y-42217538D01*
X57306510Y-42176052D01*
X57307795Y-42173825D01*
X57307133Y-42173259D01*
X57295849Y-42169593D01*
X57284415Y-42153856D01*
X57269629Y-42141227D01*
X57266859Y-42129692D01*
X57259885Y-42120093D01*
X57259885Y-42100642D01*
X57255345Y-42081733D01*
X57259885Y-42070772D01*
X57259885Y-42058907D01*
X57271318Y-42043170D01*
X57278760Y-42025205D01*
X57288874Y-42019006D01*
X57295849Y-42009407D01*
X57314346Y-42003396D01*
X57330929Y-41993235D01*
X57354040Y-41990500D01*
X57383100Y-41990500D01*
X57441291Y-42009407D01*
G37*
%TD.AperFunction*%
%TA.AperFunction,Conductor*%
G36*
X57884559Y-35009407D02*
G01*
X57920523Y-35058907D01*
X57921995Y-35115122D01*
X57909500Y-35161755D01*
X57909500Y-41212488D01*
X57890593Y-41270679D01*
X57841093Y-41306643D01*
X57784878Y-41308114D01*
X57752727Y-41299500D01*
X57647273Y-41299500D01*
X57545413Y-41326793D01*
X57545412Y-41326793D01*
X57545410Y-41326794D01*
X57545409Y-41326794D01*
X57454089Y-41379518D01*
X57454087Y-41379519D01*
X57454087Y-41379520D01*
X57453101Y-41380505D01*
X57452210Y-41380959D01*
X57448937Y-41383471D01*
X57448471Y-41382864D01*
X57398587Y-41408281D01*
X57383100Y-41409500D01*
X56516900Y-41409500D01*
X56458709Y-41390593D01*
X56446902Y-41380509D01*
X56445913Y-41379520D01*
X56443914Y-41378366D01*
X56354589Y-41326794D01*
X56354588Y-41326793D01*
X56354587Y-41326793D01*
X56252727Y-41299500D01*
X56147273Y-41299500D01*
X56045413Y-41326793D01*
X56045412Y-41326793D01*
X56045410Y-41326794D01*
X56045409Y-41326794D01*
X55954089Y-41379518D01*
X55954087Y-41379519D01*
X55954087Y-41379520D01*
X55953101Y-41380505D01*
X55952210Y-41380959D01*
X55948937Y-41383471D01*
X55948471Y-41382864D01*
X55898587Y-41408281D01*
X55883100Y-41409500D01*
X55589500Y-41409500D01*
X55531309Y-41390593D01*
X55495345Y-41341093D01*
X55490500Y-41310500D01*
X55490500Y-41161756D01*
X55479019Y-41118907D01*
X55470703Y-41087871D01*
X55470702Y-41087869D01*
X55469017Y-41083801D01*
X55464218Y-41022804D01*
X55490476Y-40975916D01*
X55520480Y-40945913D01*
X55573207Y-40854587D01*
X55576866Y-40840930D01*
X55610186Y-40789618D01*
X55667307Y-40767689D01*
X55721989Y-40780816D01*
X55795413Y-40823207D01*
X55897273Y-40850500D01*
X55897275Y-40850500D01*
X56002725Y-40850500D01*
X56002727Y-40850500D01*
X56104587Y-40823207D01*
X56195913Y-40770480D01*
X56270480Y-40695913D01*
X56323207Y-40604587D01*
X56350500Y-40502727D01*
X56350500Y-40397273D01*
X56323207Y-40295413D01*
X56270480Y-40204087D01*
X56270479Y-40204085D01*
X56269490Y-40203096D01*
X56269035Y-40202203D01*
X56266529Y-40198937D01*
X56267134Y-40198472D01*
X56241717Y-40148577D01*
X56240500Y-40133099D01*
X56240500Y-35089500D01*
X56259407Y-35031309D01*
X56308907Y-34995345D01*
X56339500Y-34990500D01*
X57826368Y-34990500D01*
X57884559Y-35009407D01*
G37*
%TD.AperFunction*%
%TA.AperFunction,Conductor*%
G36*
X61390697Y-32492968D02*
G01*
X61398587Y-32491719D01*
X61419242Y-32502243D01*
X61441291Y-32509407D01*
X61453097Y-32519490D01*
X61454087Y-32520480D01*
X61545413Y-32573207D01*
X61647273Y-32600500D01*
X61647275Y-32600500D01*
X61752725Y-32600500D01*
X61752727Y-32600500D01*
X61784878Y-32591885D01*
X61812958Y-32593357D01*
X61841093Y-32593357D01*
X61843280Y-32594946D01*
X61845979Y-32595088D01*
X61867827Y-32612780D01*
X61890593Y-32629321D01*
X61891428Y-32631892D01*
X61893528Y-32633593D01*
X61909500Y-32687512D01*
X61909500Y-32712488D01*
X61890593Y-32770679D01*
X61841093Y-32806643D01*
X61784878Y-32808114D01*
X61752727Y-32799500D01*
X61647273Y-32799500D01*
X61545413Y-32826793D01*
X61545412Y-32826793D01*
X61545410Y-32826794D01*
X61545409Y-32826794D01*
X61454089Y-32879518D01*
X61379518Y-32954089D01*
X61326794Y-33045409D01*
X61326794Y-33045410D01*
X61326793Y-33045412D01*
X61326793Y-33045413D01*
X61299500Y-33147273D01*
X61299500Y-33252727D01*
X61325698Y-33350500D01*
X61326794Y-33354589D01*
X61326794Y-33354590D01*
X61369927Y-33429298D01*
X61379520Y-33445913D01*
X61380505Y-33446898D01*
X61380959Y-33447789D01*
X61383471Y-33451063D01*
X61382864Y-33451528D01*
X61408281Y-33501413D01*
X61409500Y-33516900D01*
X61409500Y-34738245D01*
X61417060Y-34766461D01*
X61421995Y-34784878D01*
X61420523Y-34812958D01*
X61420523Y-34841093D01*
X61418933Y-34843280D01*
X61418792Y-34845979D01*
X61401095Y-34867831D01*
X61384559Y-34890593D01*
X61381988Y-34891428D01*
X61380287Y-34893529D01*
X61326368Y-34909500D01*
X61187512Y-34909500D01*
X61129321Y-34890593D01*
X61093357Y-34841093D01*
X61091885Y-34784878D01*
X61100500Y-34752727D01*
X61100500Y-34647273D01*
X61073207Y-34545413D01*
X61059475Y-34521629D01*
X61020481Y-34454089D01*
X61020480Y-34454087D01*
X60945913Y-34379520D01*
X60854587Y-34326793D01*
X60752727Y-34299500D01*
X60647273Y-34299500D01*
X60545413Y-34326793D01*
X60545412Y-34326793D01*
X60545410Y-34326794D01*
X60545409Y-34326794D01*
X60454089Y-34379518D01*
X60454087Y-34379519D01*
X60454087Y-34379520D01*
X60453101Y-34380505D01*
X60452210Y-34380959D01*
X60448937Y-34383471D01*
X60448471Y-34382864D01*
X60398587Y-34408281D01*
X60383100Y-34409500D01*
X55988245Y-34409500D01*
X55911755Y-34409500D01*
X55866534Y-34421616D01*
X55837866Y-34429298D01*
X55771633Y-34467538D01*
X55717538Y-34521633D01*
X55679298Y-34587866D01*
X55668229Y-34629175D01*
X55663381Y-34647273D01*
X55659500Y-34661756D01*
X55659500Y-40133099D01*
X55647172Y-40180943D01*
X55640404Y-40193202D01*
X55629520Y-40204087D01*
X55576793Y-40295413D01*
X55570010Y-40320725D01*
X55564179Y-40331290D01*
X55550219Y-40344353D01*
X55539808Y-40360385D01*
X55528415Y-40364757D01*
X55519504Y-40373097D01*
X55500531Y-40375460D01*
X55482686Y-40382310D01*
X55469997Y-40379263D01*
X55458788Y-40380660D01*
X55445682Y-40373425D01*
X55428007Y-40369182D01*
X55354589Y-40326794D01*
X55354588Y-40326793D01*
X55354587Y-40326793D01*
X55252727Y-40299500D01*
X55147273Y-40299500D01*
X55045413Y-40326793D01*
X55045412Y-40326793D01*
X55045410Y-40326794D01*
X55045409Y-40326794D01*
X54954089Y-40379518D01*
X54954087Y-40379519D01*
X54954087Y-40379520D01*
X54953101Y-40380505D01*
X54952210Y-40380959D01*
X54948937Y-40383471D01*
X54948471Y-40382864D01*
X54898587Y-40408281D01*
X54883100Y-40409500D01*
X54429742Y-40409500D01*
X54371551Y-40390593D01*
X54335587Y-40341093D01*
X54334115Y-40336124D01*
X54327687Y-40312134D01*
X54323207Y-40295413D01*
X54270480Y-40204087D01*
X54195913Y-40129520D01*
X54104587Y-40076793D01*
X54002727Y-40049500D01*
X53897273Y-40049500D01*
X53795413Y-40076793D01*
X53795412Y-40076793D01*
X53795410Y-40076794D01*
X53795409Y-40076794D01*
X53704089Y-40129518D01*
X53629518Y-40204089D01*
X53576794Y-40295409D01*
X53576794Y-40295410D01*
X53576793Y-40295412D01*
X53576793Y-40295413D01*
X53549500Y-40397273D01*
X53549500Y-40502727D01*
X53560937Y-40545410D01*
X53576794Y-40604589D01*
X53576794Y-40604590D01*
X53616930Y-40674107D01*
X53629520Y-40695913D01*
X53636223Y-40702616D01*
X53661844Y-40746995D01*
X53667200Y-40766983D01*
X53671995Y-40784878D01*
X53668792Y-40845979D01*
X53630286Y-40893529D01*
X53576368Y-40909500D01*
X53089500Y-40909500D01*
X53031309Y-40890593D01*
X52995345Y-40841093D01*
X52990500Y-40810500D01*
X52990500Y-40161756D01*
X52986969Y-40148577D01*
X52970703Y-40087871D01*
X52970701Y-40087868D01*
X52970701Y-40087866D01*
X52932461Y-40021633D01*
X52932459Y-40021631D01*
X52932458Y-40021629D01*
X52878371Y-39967542D01*
X52878368Y-39967540D01*
X52878366Y-39967538D01*
X52812132Y-39929298D01*
X52812134Y-39929298D01*
X52783465Y-39921616D01*
X52738245Y-39909500D01*
X52738243Y-39909500D01*
X52589500Y-39909500D01*
X52531309Y-39890593D01*
X52495345Y-39841093D01*
X52490500Y-39810500D01*
X52490500Y-36161756D01*
X52490500Y-36161755D01*
X52470703Y-36087871D01*
X52470701Y-36087868D01*
X52470701Y-36087866D01*
X52432461Y-36021633D01*
X52432459Y-36021631D01*
X52432458Y-36021629D01*
X52378371Y-35967542D01*
X52378368Y-35967540D01*
X52378366Y-35967538D01*
X52312132Y-35929298D01*
X52312134Y-35929298D01*
X52272923Y-35918792D01*
X52238245Y-35909500D01*
X52238243Y-35909500D01*
X49839500Y-35909500D01*
X49781309Y-35890593D01*
X49745345Y-35841093D01*
X49740500Y-35810500D01*
X49740500Y-35661756D01*
X49732954Y-35633593D01*
X49720703Y-35587871D01*
X49720702Y-35587869D01*
X49719017Y-35583801D01*
X49714218Y-35522804D01*
X49740476Y-35475916D01*
X49770480Y-35445913D01*
X49823207Y-35354587D01*
X49850500Y-35252727D01*
X49850500Y-35147273D01*
X49841885Y-35115121D01*
X49845088Y-35054021D01*
X49883593Y-35006472D01*
X49937512Y-34990500D01*
X49988243Y-34990500D01*
X49988245Y-34990500D01*
X50062129Y-34970703D01*
X50062131Y-34970701D01*
X50062133Y-34970701D01*
X50128366Y-34932461D01*
X50128366Y-34932460D01*
X50128371Y-34932458D01*
X50182458Y-34878371D01*
X50203981Y-34841093D01*
X50220701Y-34812133D01*
X50220701Y-34812131D01*
X50220703Y-34812129D01*
X50240500Y-34738245D01*
X50240500Y-33339500D01*
X50259407Y-33281309D01*
X50308907Y-33245345D01*
X50339500Y-33240500D01*
X52383100Y-33240500D01*
X52441291Y-33259407D01*
X52453097Y-33269490D01*
X52454087Y-33270480D01*
X52545413Y-33323207D01*
X52647273Y-33350500D01*
X52647275Y-33350500D01*
X52752725Y-33350500D01*
X52752727Y-33350500D01*
X52854587Y-33323207D01*
X52945913Y-33270480D01*
X53020480Y-33195913D01*
X53073207Y-33104587D01*
X53100500Y-33002727D01*
X53100500Y-32897273D01*
X53073207Y-32795413D01*
X53059475Y-32771629D01*
X53020481Y-32704089D01*
X53020480Y-32704087D01*
X52975894Y-32659501D01*
X52948119Y-32604987D01*
X52957690Y-32544555D01*
X53000955Y-32501290D01*
X53045900Y-32490500D01*
X61383100Y-32490500D01*
X61390697Y-32492968D01*
G37*
%TD.AperFunction*%
%TA.AperFunction,Conductor*%
G36*
X46661755Y-34490500D02*
G01*
X46738245Y-34490500D01*
X48560500Y-34490500D01*
X48618691Y-34509407D01*
X48654655Y-34558907D01*
X48659500Y-34589500D01*
X48659500Y-36354100D01*
X48640593Y-36412291D01*
X48591093Y-36448255D01*
X48529907Y-36448255D01*
X48490498Y-36424105D01*
X48445913Y-36379520D01*
X48401884Y-36354100D01*
X48354589Y-36326794D01*
X48354588Y-36326793D01*
X48354587Y-36326793D01*
X48252727Y-36299500D01*
X48147273Y-36299500D01*
X48045413Y-36326793D01*
X48045412Y-36326793D01*
X48045410Y-36326794D01*
X48045409Y-36326794D01*
X47954089Y-36379518D01*
X47954087Y-36379519D01*
X47954087Y-36379520D01*
X47953101Y-36380505D01*
X47952210Y-36380959D01*
X47948937Y-36383471D01*
X47948471Y-36382864D01*
X47898587Y-36408281D01*
X47883100Y-36409500D01*
X46545900Y-36409500D01*
X46487709Y-36390593D01*
X46451745Y-36341093D01*
X46451745Y-36279907D01*
X46475894Y-36240498D01*
X46520480Y-36195913D01*
X46573207Y-36104587D01*
X46600500Y-36002727D01*
X46600500Y-35897273D01*
X46573207Y-35795413D01*
X46520480Y-35704087D01*
X46520479Y-35704085D01*
X46519490Y-35703096D01*
X46519035Y-35702203D01*
X46516529Y-35698937D01*
X46517134Y-35698472D01*
X46491717Y-35648577D01*
X46490500Y-35633099D01*
X46490500Y-34573631D01*
X46509407Y-34515440D01*
X46558907Y-34479476D01*
X46615122Y-34478005D01*
X46661755Y-34490500D01*
G37*
%TD.AperFunction*%
%TA.AperFunction,Conductor*%
G36*
X53104151Y-29009407D02*
G01*
X53140115Y-29058907D01*
X53140115Y-29120093D01*
X53104151Y-29169593D01*
X53093276Y-29175682D01*
X53093490Y-29176052D01*
X53021633Y-29217538D01*
X52967538Y-29271633D01*
X52929298Y-29337866D01*
X52929297Y-29337871D01*
X52913381Y-29397273D01*
X52909500Y-29411756D01*
X52909500Y-29560500D01*
X52890593Y-29618691D01*
X52841093Y-29654655D01*
X52810500Y-29659500D01*
X51766900Y-29659500D01*
X51708709Y-29640593D01*
X51696902Y-29630509D01*
X51695913Y-29629520D01*
X51689861Y-29626026D01*
X51604589Y-29576794D01*
X51604588Y-29576793D01*
X51604587Y-29576793D01*
X51502727Y-29549500D01*
X51397273Y-29549500D01*
X51295413Y-29576793D01*
X51295412Y-29576793D01*
X51295410Y-29576794D01*
X51295409Y-29576794D01*
X51204089Y-29629518D01*
X51129518Y-29704089D01*
X51076794Y-29795409D01*
X51076794Y-29795410D01*
X51076793Y-29795412D01*
X51076793Y-29795413D01*
X51049500Y-29897273D01*
X51049500Y-30002727D01*
X51058114Y-30034878D01*
X51054912Y-30095979D01*
X51016407Y-30143528D01*
X50962488Y-30159500D01*
X50238245Y-30159500D01*
X50161755Y-30159500D01*
X50116534Y-30171616D01*
X50087866Y-30179298D01*
X50021633Y-30217538D01*
X49967538Y-30271633D01*
X49926052Y-30343490D01*
X49923825Y-30342204D01*
X49891227Y-30380371D01*
X49831733Y-30394655D01*
X49775205Y-30371240D01*
X49743235Y-30319071D01*
X49740500Y-30295960D01*
X49740500Y-29295900D01*
X49759407Y-29237709D01*
X49808907Y-29201745D01*
X49870093Y-29201745D01*
X49909501Y-29225894D01*
X49954087Y-29270480D01*
X50045413Y-29323207D01*
X50147273Y-29350500D01*
X50147275Y-29350500D01*
X50252725Y-29350500D01*
X50252727Y-29350500D01*
X50354587Y-29323207D01*
X50445913Y-29270480D01*
X50520480Y-29195913D01*
X50573207Y-29104587D01*
X50584115Y-29063875D01*
X50617440Y-29012562D01*
X50674561Y-28990636D01*
X50679742Y-28990500D01*
X53045960Y-28990500D01*
X53104151Y-29009407D01*
G37*
%TD.AperFunction*%
%TA.AperFunction,Conductor*%
G36*
X58845978Y-21231206D02*
G01*
X58893528Y-21269711D01*
X58909500Y-21323631D01*
X58909500Y-25560500D01*
X58890593Y-25618691D01*
X58841093Y-25654655D01*
X58810500Y-25659500D01*
X54238245Y-25659500D01*
X54161755Y-25659500D01*
X54116534Y-25671616D01*
X54087866Y-25679298D01*
X54021633Y-25717538D01*
X53967538Y-25771633D01*
X53929298Y-25837866D01*
X53909500Y-25911756D01*
X53909500Y-27133099D01*
X53890593Y-27191290D01*
X53880510Y-27203096D01*
X53879520Y-27204085D01*
X53826794Y-27295409D01*
X53826794Y-27295410D01*
X53826793Y-27295412D01*
X53826793Y-27295413D01*
X53799500Y-27397273D01*
X53799500Y-27502727D01*
X53826793Y-27604587D01*
X53826794Y-27604589D01*
X53826794Y-27604590D01*
X53879518Y-27695910D01*
X53879520Y-27695913D01*
X53880505Y-27696898D01*
X53880959Y-27697789D01*
X53883471Y-27701063D01*
X53882864Y-27701528D01*
X53884130Y-27704013D01*
X53890593Y-27708709D01*
X53897756Y-27730757D01*
X53908281Y-27751413D01*
X53909500Y-27766900D01*
X53909500Y-27883099D01*
X53890593Y-27941290D01*
X53880510Y-27953096D01*
X53879520Y-27954085D01*
X53826794Y-28045409D01*
X53826794Y-28045410D01*
X53826793Y-28045412D01*
X53826793Y-28045413D01*
X53799500Y-28147273D01*
X53799500Y-28252727D01*
X53808114Y-28284878D01*
X53804912Y-28345979D01*
X53766407Y-28393528D01*
X53712488Y-28409500D01*
X52687512Y-28409500D01*
X52629321Y-28390593D01*
X52593357Y-28341093D01*
X52591885Y-28284878D01*
X52600500Y-28252727D01*
X52600500Y-28147273D01*
X52573207Y-28045413D01*
X52520480Y-27954087D01*
X52520479Y-27954085D01*
X52519490Y-27953096D01*
X52519035Y-27952203D01*
X52516529Y-27948937D01*
X52517134Y-27948472D01*
X52491717Y-27898577D01*
X52490500Y-27883099D01*
X52490500Y-21339500D01*
X52509407Y-21281309D01*
X52558907Y-21245345D01*
X52589500Y-21240500D01*
X58738244Y-21240500D01*
X58738245Y-21240500D01*
X58784877Y-21228005D01*
X58845978Y-21231206D01*
G37*
%TD.AperFunction*%
%TA.AperFunction,Conductor*%
G36*
X104159191Y-5818907D02*
G01*
X104195155Y-5868407D01*
X104200000Y-5899000D01*
X104200000Y-84101000D01*
X104181093Y-84159191D01*
X104131593Y-84195155D01*
X104101000Y-84200000D01*
X5899000Y-84200000D01*
X5840809Y-84181093D01*
X5804845Y-84131593D01*
X5800000Y-84101000D01*
X5800000Y-79885265D01*
X8249500Y-79885265D01*
X8249500Y-80114734D01*
X8279452Y-80342238D01*
X8338841Y-80563885D01*
X8426653Y-80775883D01*
X8426656Y-80775888D01*
X8541389Y-80974612D01*
X8681081Y-81156661D01*
X8843339Y-81318919D01*
X9025388Y-81458611D01*
X9224112Y-81573344D01*
X9224113Y-81573344D01*
X9224116Y-81573346D01*
X9320167Y-81613131D01*
X9436113Y-81661158D01*
X9657762Y-81720548D01*
X9885266Y-81750500D01*
X9885267Y-81750500D01*
X10114733Y-81750500D01*
X10114734Y-81750500D01*
X10342238Y-81720548D01*
X10563887Y-81661158D01*
X10775888Y-81573344D01*
X10974612Y-81458611D01*
X11156661Y-81318919D01*
X11318919Y-81156661D01*
X11458611Y-80974612D01*
X11573344Y-80775888D01*
X11661158Y-80563887D01*
X11720548Y-80342238D01*
X11750500Y-80114734D01*
X11750500Y-79885266D01*
X11750500Y-79885265D01*
X98249500Y-79885265D01*
X98249500Y-80114734D01*
X98279452Y-80342238D01*
X98338841Y-80563885D01*
X98426653Y-80775883D01*
X98426656Y-80775888D01*
X98541389Y-80974612D01*
X98681081Y-81156661D01*
X98843339Y-81318919D01*
X99025388Y-81458611D01*
X99224112Y-81573344D01*
X99224113Y-81573344D01*
X99224116Y-81573346D01*
X99320167Y-81613131D01*
X99436113Y-81661158D01*
X99657762Y-81720548D01*
X99885266Y-81750500D01*
X99885267Y-81750500D01*
X100114733Y-81750500D01*
X100114734Y-81750500D01*
X100342238Y-81720548D01*
X100563887Y-81661158D01*
X100775888Y-81573344D01*
X100974612Y-81458611D01*
X101156661Y-81318919D01*
X101318919Y-81156661D01*
X101458611Y-80974612D01*
X101573344Y-80775888D01*
X101661158Y-80563887D01*
X101720548Y-80342238D01*
X101750500Y-80114734D01*
X101750500Y-79885266D01*
X101720548Y-79657762D01*
X101661158Y-79436113D01*
X101573344Y-79224112D01*
X101458611Y-79025388D01*
X101318919Y-78843339D01*
X101156661Y-78681081D01*
X100974612Y-78541389D01*
X100974613Y-78541389D01*
X100974611Y-78541388D01*
X100775883Y-78426653D01*
X100563885Y-78338841D01*
X100342238Y-78279452D01*
X100114734Y-78249500D01*
X99885266Y-78249500D01*
X99885265Y-78249500D01*
X99657761Y-78279452D01*
X99436114Y-78338841D01*
X99224116Y-78426653D01*
X99025388Y-78541388D01*
X98843342Y-78681078D01*
X98681078Y-78843342D01*
X98541388Y-79025388D01*
X98426653Y-79224116D01*
X98338841Y-79436114D01*
X98279452Y-79657761D01*
X98249500Y-79885265D01*
X11750500Y-79885265D01*
X11720548Y-79657762D01*
X11661158Y-79436113D01*
X11573344Y-79224112D01*
X11458611Y-79025388D01*
X11318919Y-78843339D01*
X11156661Y-78681081D01*
X10974612Y-78541389D01*
X10974613Y-78541389D01*
X10974611Y-78541388D01*
X10775883Y-78426653D01*
X10563885Y-78338841D01*
X10342238Y-78279452D01*
X10114734Y-78249500D01*
X9885266Y-78249500D01*
X9885265Y-78249500D01*
X9657761Y-78279452D01*
X9436114Y-78338841D01*
X9224116Y-78426653D01*
X9025388Y-78541388D01*
X8843342Y-78681078D01*
X8681078Y-78843342D01*
X8541388Y-79025388D01*
X8426653Y-79224116D01*
X8338841Y-79436114D01*
X8279452Y-79657761D01*
X8249500Y-79885265D01*
X5800000Y-79885265D01*
X5800000Y-67905515D01*
X47799500Y-67905515D01*
X47799500Y-68094484D01*
X47829058Y-68281113D01*
X47829060Y-68281118D01*
X47887453Y-68460832D01*
X47973240Y-68629199D01*
X48084310Y-68782073D01*
X48217927Y-68915690D01*
X48370801Y-69026760D01*
X48539168Y-69112547D01*
X48718882Y-69170940D01*
X48718883Y-69170940D01*
X48718886Y-69170941D01*
X48905516Y-69200500D01*
X48905519Y-69200500D01*
X49094484Y-69200500D01*
X49281113Y-69170941D01*
X49281114Y-69170940D01*
X49281118Y-69170940D01*
X49460832Y-69112547D01*
X49629199Y-69026760D01*
X49782073Y-68915690D01*
X49915690Y-68782073D01*
X50026760Y-68629199D01*
X50112547Y-68460832D01*
X50170940Y-68281118D01*
X50200500Y-68094481D01*
X50200500Y-67905519D01*
X50200500Y-67905515D01*
X54299500Y-67905515D01*
X54299500Y-68094484D01*
X54329058Y-68281113D01*
X54329060Y-68281118D01*
X54387453Y-68460832D01*
X54473240Y-68629199D01*
X54584310Y-68782073D01*
X54717927Y-68915690D01*
X54870801Y-69026760D01*
X55039168Y-69112547D01*
X55218882Y-69170940D01*
X55218883Y-69170940D01*
X55218886Y-69170941D01*
X55405516Y-69200500D01*
X55405519Y-69200500D01*
X55594484Y-69200500D01*
X55781113Y-69170941D01*
X55781114Y-69170940D01*
X55781118Y-69170940D01*
X55960832Y-69112547D01*
X56129199Y-69026760D01*
X56282073Y-68915690D01*
X56415690Y-68782073D01*
X56526760Y-68629199D01*
X56612547Y-68460832D01*
X56670940Y-68281118D01*
X56700500Y-68094481D01*
X56700500Y-67905519D01*
X56700500Y-67905515D01*
X56670941Y-67718886D01*
X56670940Y-67718882D01*
X56612547Y-67539168D01*
X56526760Y-67370801D01*
X56415690Y-67217927D01*
X56282073Y-67084310D01*
X56129199Y-66973240D01*
X56129198Y-66973239D01*
X56129196Y-66973238D01*
X55960832Y-66887453D01*
X55781113Y-66829058D01*
X55594484Y-66799500D01*
X55594481Y-66799500D01*
X55405519Y-66799500D01*
X55405516Y-66799500D01*
X55218886Y-66829058D01*
X55039167Y-66887453D01*
X54870803Y-66973238D01*
X54717928Y-67084309D01*
X54584309Y-67217928D01*
X54473238Y-67370803D01*
X54387453Y-67539167D01*
X54329058Y-67718886D01*
X54299500Y-67905515D01*
X50200500Y-67905515D01*
X50170941Y-67718886D01*
X50170940Y-67718882D01*
X50112547Y-67539168D01*
X50026760Y-67370801D01*
X49915690Y-67217927D01*
X49782073Y-67084310D01*
X49629199Y-66973240D01*
X49629198Y-66973239D01*
X49629196Y-66973238D01*
X49460832Y-66887453D01*
X49281113Y-66829058D01*
X49094484Y-66799500D01*
X49094481Y-66799500D01*
X48905519Y-66799500D01*
X48905516Y-66799500D01*
X48718886Y-66829058D01*
X48539167Y-66887453D01*
X48370803Y-66973238D01*
X48217928Y-67084309D01*
X48084309Y-67217928D01*
X47973238Y-67370803D01*
X47887453Y-67539167D01*
X47829058Y-67718886D01*
X47799500Y-67905515D01*
X5800000Y-67905515D01*
X5800000Y-47516532D01*
X25949500Y-47516532D01*
X25949500Y-47723467D01*
X25989869Y-47926418D01*
X26069058Y-48117597D01*
X26184020Y-48289651D01*
X26184023Y-48289655D01*
X26330345Y-48435977D01*
X26330348Y-48435979D01*
X26502402Y-48550941D01*
X26648386Y-48611410D01*
X26694911Y-48651147D01*
X26709500Y-48702874D01*
X26709500Y-48988245D01*
X26724770Y-49045235D01*
X26729298Y-49062133D01*
X26767538Y-49128366D01*
X26767540Y-49128368D01*
X26767542Y-49128371D01*
X26821629Y-49182458D01*
X26821631Y-49182459D01*
X26821633Y-49182461D01*
X26887867Y-49220701D01*
X26887865Y-49220701D01*
X26887869Y-49220702D01*
X26887871Y-49220703D01*
X26961755Y-49240500D01*
X27038245Y-49240500D01*
X34560500Y-49240500D01*
X34618691Y-49259407D01*
X34654655Y-49308907D01*
X34659500Y-49339500D01*
X34659500Y-53633099D01*
X34640593Y-53691290D01*
X34630510Y-53703096D01*
X34629520Y-53704085D01*
X34576794Y-53795409D01*
X34576794Y-53795410D01*
X34576793Y-53795412D01*
X34576793Y-53795413D01*
X34549500Y-53897273D01*
X34549500Y-54002727D01*
X34576793Y-54104587D01*
X34576794Y-54104589D01*
X34576794Y-54104590D01*
X34629518Y-54195910D01*
X34629520Y-54195913D01*
X34704087Y-54270480D01*
X34795413Y-54323207D01*
X34897273Y-54350500D01*
X34897275Y-54350500D01*
X35002725Y-54350500D01*
X35002727Y-54350500D01*
X35104587Y-54323207D01*
X35195913Y-54270480D01*
X35270480Y-54195913D01*
X35323207Y-54104587D01*
X35350500Y-54002727D01*
X35350500Y-53897273D01*
X35323207Y-53795413D01*
X35270480Y-53704087D01*
X35270479Y-53704085D01*
X35269490Y-53703096D01*
X35269035Y-53702203D01*
X35266529Y-53698937D01*
X35267134Y-53698472D01*
X35241717Y-53648577D01*
X35240500Y-53633099D01*
X35240500Y-48911756D01*
X35236272Y-48895977D01*
X35220703Y-48837871D01*
X35220701Y-48837868D01*
X35220701Y-48837866D01*
X35182461Y-48771633D01*
X35182459Y-48771631D01*
X35182458Y-48771629D01*
X35128371Y-48717542D01*
X35128368Y-48717540D01*
X35128366Y-48717538D01*
X35062132Y-48679298D01*
X35062134Y-48679298D01*
X35033465Y-48671616D01*
X34988245Y-48659500D01*
X34988243Y-48659500D01*
X27661488Y-48659500D01*
X27603297Y-48640593D01*
X27567333Y-48591093D01*
X27567333Y-48529907D01*
X27603297Y-48480407D01*
X27606487Y-48478184D01*
X27622414Y-48467542D01*
X27669655Y-48435977D01*
X27815977Y-48289655D01*
X27930941Y-48117598D01*
X28010130Y-47926420D01*
X28050500Y-47723465D01*
X28050500Y-47516535D01*
X28010130Y-47313580D01*
X27930941Y-47122402D01*
X27815977Y-46950345D01*
X27669655Y-46804023D01*
X27669651Y-46804020D01*
X27497597Y-46689058D01*
X27306418Y-46609869D01*
X27103467Y-46569500D01*
X27103465Y-46569500D01*
X26896535Y-46569500D01*
X26896532Y-46569500D01*
X26693581Y-46609869D01*
X26502402Y-46689058D01*
X26330348Y-46804020D01*
X26184020Y-46950348D01*
X26069058Y-47122402D01*
X25989869Y-47313581D01*
X25949500Y-47516532D01*
X5800000Y-47516532D01*
X5800000Y-44976532D01*
X16949500Y-44976532D01*
X16949500Y-45183467D01*
X16989869Y-45386418D01*
X17069058Y-45577597D01*
X17184020Y-45749651D01*
X17184023Y-45749655D01*
X17330345Y-45895977D01*
X17502402Y-46010941D01*
X17693580Y-46090130D01*
X17896535Y-46130500D01*
X17896536Y-46130500D01*
X18103464Y-46130500D01*
X18103465Y-46130500D01*
X18306420Y-46090130D01*
X18497598Y-46010941D01*
X18669655Y-45895977D01*
X18815977Y-45749655D01*
X18930941Y-45577598D01*
X19010130Y-45386420D01*
X19050500Y-45183465D01*
X19050500Y-44976535D01*
X19050499Y-44976532D01*
X25949500Y-44976532D01*
X25949500Y-45183467D01*
X25989869Y-45386418D01*
X26069058Y-45577597D01*
X26184020Y-45749651D01*
X26184023Y-45749655D01*
X26330345Y-45895977D01*
X26502402Y-46010941D01*
X26693580Y-46090130D01*
X26896535Y-46130500D01*
X26896536Y-46130500D01*
X27103464Y-46130500D01*
X27103465Y-46130500D01*
X27306420Y-46090130D01*
X27497598Y-46010941D01*
X27669655Y-45895977D01*
X27815977Y-45749655D01*
X27930941Y-45577598D01*
X28010130Y-45386420D01*
X28050500Y-45183465D01*
X28050500Y-44976535D01*
X28010130Y-44773580D01*
X27930941Y-44582402D01*
X27815977Y-44410345D01*
X27669655Y-44264023D01*
X27662747Y-44259407D01*
X27497597Y-44149058D01*
X27306418Y-44069869D01*
X27103467Y-44029500D01*
X27103465Y-44029500D01*
X26896535Y-44029500D01*
X26896532Y-44029500D01*
X26693581Y-44069869D01*
X26502402Y-44149058D01*
X26330348Y-44264020D01*
X26184020Y-44410348D01*
X26069058Y-44582402D01*
X25989869Y-44773581D01*
X25949500Y-44976532D01*
X19050499Y-44976532D01*
X19010130Y-44773580D01*
X18930941Y-44582402D01*
X18815977Y-44410345D01*
X18669655Y-44264023D01*
X18662747Y-44259407D01*
X18497597Y-44149058D01*
X18306418Y-44069869D01*
X18103467Y-44029500D01*
X18103465Y-44029500D01*
X17896535Y-44029500D01*
X17896532Y-44029500D01*
X17693581Y-44069869D01*
X17502402Y-44149058D01*
X17330348Y-44264020D01*
X17184020Y-44410348D01*
X17069058Y-44582402D01*
X16989869Y-44773581D01*
X16949500Y-44976532D01*
X5800000Y-44976532D01*
X5800000Y-39130253D01*
X8949500Y-39130253D01*
X8949500Y-40869746D01*
X8949501Y-40869758D01*
X8961132Y-40928227D01*
X8961134Y-40928233D01*
X8987399Y-40967540D01*
X9005448Y-40994552D01*
X9071769Y-41038867D01*
X9116231Y-41047711D01*
X9130241Y-41050498D01*
X9130246Y-41050498D01*
X9130252Y-41050500D01*
X9561259Y-41050500D01*
X9619450Y-41069407D01*
X9655414Y-41118907D01*
X9658755Y-41155266D01*
X9659500Y-41155266D01*
X9659500Y-41477836D01*
X9640593Y-41536027D01*
X9598386Y-41569300D01*
X9502402Y-41609058D01*
X9330348Y-41724020D01*
X9184020Y-41870348D01*
X9069058Y-42042402D01*
X8989869Y-42233581D01*
X8949500Y-42436532D01*
X8949500Y-42643467D01*
X8989869Y-42846418D01*
X9069058Y-43037597D01*
X9163739Y-43179298D01*
X9184023Y-43209655D01*
X9330345Y-43355977D01*
X9502402Y-43470941D01*
X9693580Y-43550130D01*
X9896535Y-43590500D01*
X9896536Y-43590500D01*
X10103464Y-43590500D01*
X10103465Y-43590500D01*
X10306420Y-43550130D01*
X10497598Y-43470941D01*
X10669655Y-43355977D01*
X10815977Y-43209655D01*
X10930941Y-43037598D01*
X11010130Y-42846420D01*
X11050500Y-42643465D01*
X11050500Y-42436535D01*
X11050499Y-42436532D01*
X16949500Y-42436532D01*
X16949500Y-42643467D01*
X16989869Y-42846418D01*
X17069058Y-43037597D01*
X17163739Y-43179298D01*
X17184023Y-43209655D01*
X17330345Y-43355977D01*
X17502402Y-43470941D01*
X17693580Y-43550130D01*
X17896535Y-43590500D01*
X17896536Y-43590500D01*
X18103464Y-43590500D01*
X18103465Y-43590500D01*
X18306420Y-43550130D01*
X18497598Y-43470941D01*
X18669655Y-43355977D01*
X18815977Y-43209655D01*
X18930941Y-43037598D01*
X19010130Y-42846420D01*
X19050500Y-42643465D01*
X19050500Y-42436535D01*
X19010130Y-42233580D01*
X18930941Y-42042402D01*
X18815977Y-41870345D01*
X18669655Y-41724023D01*
X18669651Y-41724020D01*
X18497597Y-41609058D01*
X18306418Y-41529869D01*
X18103467Y-41489500D01*
X18103465Y-41489500D01*
X17896535Y-41489500D01*
X17896532Y-41489500D01*
X17693581Y-41529869D01*
X17502402Y-41609058D01*
X17330348Y-41724020D01*
X17184020Y-41870348D01*
X17069058Y-42042402D01*
X16989869Y-42233581D01*
X16949500Y-42436532D01*
X11050499Y-42436532D01*
X11010130Y-42233580D01*
X10930941Y-42042402D01*
X10815977Y-41870345D01*
X10669655Y-41724023D01*
X10664686Y-41720703D01*
X10591521Y-41671816D01*
X10553641Y-41623766D01*
X10551239Y-41562628D01*
X10585231Y-41511754D01*
X10642635Y-41490576D01*
X10646522Y-41490500D01*
X11238243Y-41490500D01*
X11238245Y-41490500D01*
X11312129Y-41470703D01*
X11312131Y-41470701D01*
X11312133Y-41470701D01*
X11378366Y-41432461D01*
X11378366Y-41432460D01*
X11378371Y-41432458D01*
X11432458Y-41378371D01*
X11443933Y-41358496D01*
X11470701Y-41312133D01*
X11470701Y-41312131D01*
X11470703Y-41312129D01*
X11490500Y-41238245D01*
X11490500Y-39130253D01*
X16949500Y-39130253D01*
X16949500Y-40869746D01*
X16949501Y-40869758D01*
X16961132Y-40928227D01*
X16961134Y-40928233D01*
X16987399Y-40967540D01*
X17005448Y-40994552D01*
X17071769Y-41038867D01*
X17116231Y-41047711D01*
X17130241Y-41050498D01*
X17130246Y-41050498D01*
X17130252Y-41050500D01*
X17130253Y-41050500D01*
X18869747Y-41050500D01*
X18869748Y-41050500D01*
X18928231Y-41038867D01*
X18994552Y-40994552D01*
X19038867Y-40928231D01*
X19050500Y-40869748D01*
X19050500Y-39130252D01*
X19038867Y-39071769D01*
X18994552Y-39005448D01*
X18984757Y-38998903D01*
X18928233Y-38961134D01*
X18928231Y-38961133D01*
X18928228Y-38961132D01*
X18928227Y-38961132D01*
X18869758Y-38949501D01*
X18869748Y-38949500D01*
X17130252Y-38949500D01*
X17130251Y-38949500D01*
X17130241Y-38949501D01*
X17071772Y-38961132D01*
X17071766Y-38961134D01*
X17005451Y-39005445D01*
X17005445Y-39005451D01*
X16961134Y-39071766D01*
X16961132Y-39071772D01*
X16949501Y-39130241D01*
X16949500Y-39130253D01*
X11490500Y-39130253D01*
X11490500Y-37089500D01*
X11509407Y-37031309D01*
X11558907Y-36995345D01*
X11589500Y-36990500D01*
X47883100Y-36990500D01*
X47941291Y-37009407D01*
X47953097Y-37019490D01*
X47954087Y-37020480D01*
X48045413Y-37073207D01*
X48147273Y-37100500D01*
X48147275Y-37100500D01*
X48252725Y-37100500D01*
X48252727Y-37100500D01*
X48354587Y-37073207D01*
X48445913Y-37020480D01*
X48490498Y-36975894D01*
X48545013Y-36948119D01*
X48605445Y-36957690D01*
X48648710Y-37000955D01*
X48659500Y-37045900D01*
X48659500Y-37354100D01*
X48640593Y-37412291D01*
X48591093Y-37448255D01*
X48529907Y-37448255D01*
X48490498Y-37424105D01*
X48445913Y-37379520D01*
X48402731Y-37354589D01*
X48354589Y-37326794D01*
X48354588Y-37326793D01*
X48354587Y-37326793D01*
X48252727Y-37299500D01*
X48147273Y-37299500D01*
X48045413Y-37326793D01*
X48045412Y-37326793D01*
X48045410Y-37326794D01*
X48045409Y-37326794D01*
X47954089Y-37379518D01*
X47954087Y-37379519D01*
X47954087Y-37379520D01*
X47953101Y-37380505D01*
X47952210Y-37380959D01*
X47948937Y-37383471D01*
X47948471Y-37382864D01*
X47898587Y-37408281D01*
X47883100Y-37409500D01*
X47266900Y-37409500D01*
X47208709Y-37390593D01*
X47196902Y-37380509D01*
X47195913Y-37379520D01*
X47152731Y-37354589D01*
X47104589Y-37326794D01*
X47104588Y-37326793D01*
X47104587Y-37326793D01*
X47002727Y-37299500D01*
X46897273Y-37299500D01*
X46795413Y-37326793D01*
X46795412Y-37326793D01*
X46795410Y-37326794D01*
X46795409Y-37326794D01*
X46704089Y-37379518D01*
X46629518Y-37454089D01*
X46576794Y-37545409D01*
X46576794Y-37545410D01*
X46576793Y-37545412D01*
X46576793Y-37545413D01*
X46549500Y-37647273D01*
X46549500Y-37752727D01*
X46560937Y-37795410D01*
X46576794Y-37854589D01*
X46576794Y-37854590D01*
X46601438Y-37897274D01*
X46629520Y-37945913D01*
X46704087Y-38020480D01*
X46795413Y-38073207D01*
X46897273Y-38100500D01*
X46897275Y-38100500D01*
X47002725Y-38100500D01*
X47002727Y-38100500D01*
X47104587Y-38073207D01*
X47195913Y-38020480D01*
X47196898Y-38019494D01*
X47197789Y-38019040D01*
X47201063Y-38016529D01*
X47201528Y-38017135D01*
X47251413Y-37991719D01*
X47266900Y-37990500D01*
X47883100Y-37990500D01*
X47941291Y-38009407D01*
X47953097Y-38019490D01*
X47954087Y-38020480D01*
X48045413Y-38073207D01*
X48147273Y-38100500D01*
X48147275Y-38100500D01*
X48252725Y-38100500D01*
X48252727Y-38100500D01*
X48354587Y-38073207D01*
X48445913Y-38020480D01*
X48490498Y-37975894D01*
X48545013Y-37948119D01*
X48605445Y-37957690D01*
X48648710Y-38000955D01*
X48659500Y-38045900D01*
X48659500Y-38560500D01*
X48640593Y-38618691D01*
X48591093Y-38654655D01*
X48560500Y-38659500D01*
X47516900Y-38659500D01*
X47458709Y-38640593D01*
X47446902Y-38630509D01*
X47445913Y-38629520D01*
X47354587Y-38576793D01*
X47252727Y-38549500D01*
X47147273Y-38549500D01*
X47045413Y-38576793D01*
X47045412Y-38576793D01*
X47045410Y-38576794D01*
X47045409Y-38576794D01*
X46954089Y-38629518D01*
X46879518Y-38704089D01*
X46826794Y-38795409D01*
X46826794Y-38795410D01*
X46826793Y-38795412D01*
X46826793Y-38795413D01*
X46799500Y-38897273D01*
X46799500Y-39002727D01*
X46808114Y-39034878D01*
X46804912Y-39095979D01*
X46766407Y-39143528D01*
X46712488Y-39159500D01*
X28238245Y-39159500D01*
X28161755Y-39159500D01*
X28116534Y-39171616D01*
X28087866Y-39179298D01*
X28021633Y-39217538D01*
X27967538Y-39271633D01*
X27929298Y-39337866D01*
X27909500Y-39411756D01*
X27909500Y-40810500D01*
X27890593Y-40868691D01*
X27841093Y-40904655D01*
X27810500Y-40909500D01*
X21738245Y-40909500D01*
X21661755Y-40909500D01*
X21616534Y-40921616D01*
X21587866Y-40929298D01*
X21521633Y-40967538D01*
X21467538Y-41021633D01*
X21429298Y-41087866D01*
X21409500Y-41161756D01*
X21409500Y-42883099D01*
X21390593Y-42941290D01*
X21380510Y-42953096D01*
X21379520Y-42954085D01*
X21326794Y-43045409D01*
X21326794Y-43045410D01*
X21326793Y-43045412D01*
X21326793Y-43045413D01*
X21299500Y-43147273D01*
X21299500Y-43252727D01*
X21326793Y-43354587D01*
X21326794Y-43354589D01*
X21326794Y-43354590D01*
X21369927Y-43429298D01*
X21379520Y-43445913D01*
X21454087Y-43520480D01*
X21545413Y-43573207D01*
X21647273Y-43600500D01*
X21647275Y-43600500D01*
X21752725Y-43600500D01*
X21752727Y-43600500D01*
X21854587Y-43573207D01*
X21945913Y-43520480D01*
X22020480Y-43445913D01*
X22073207Y-43354587D01*
X22100500Y-43252727D01*
X22100500Y-43147273D01*
X22073207Y-43045413D01*
X22068694Y-43037597D01*
X22020479Y-42954085D01*
X22019490Y-42953096D01*
X22019035Y-42952203D01*
X22016529Y-42948937D01*
X22017134Y-42948472D01*
X21991717Y-42898577D01*
X21990500Y-42883099D01*
X21990500Y-41589500D01*
X22009407Y-41531309D01*
X22058907Y-41495345D01*
X22089500Y-41490500D01*
X26353478Y-41490500D01*
X26411669Y-41509407D01*
X26447633Y-41558907D01*
X26447633Y-41620093D01*
X26411669Y-41669593D01*
X26408479Y-41671816D01*
X26330348Y-41724020D01*
X26184020Y-41870348D01*
X26069058Y-42042402D01*
X25989869Y-42233581D01*
X25949500Y-42436532D01*
X25949500Y-42643467D01*
X25989869Y-42846418D01*
X26069058Y-43037597D01*
X26163739Y-43179298D01*
X26184023Y-43209655D01*
X26330345Y-43355977D01*
X26502402Y-43470941D01*
X26693580Y-43550130D01*
X26896535Y-43590500D01*
X26896536Y-43590500D01*
X27103464Y-43590500D01*
X27103465Y-43590500D01*
X27306420Y-43550130D01*
X27497598Y-43470941D01*
X27669655Y-43355977D01*
X27815977Y-43209655D01*
X27930941Y-43037598D01*
X28010130Y-42846420D01*
X28050500Y-42643465D01*
X28050500Y-42436535D01*
X28010130Y-42233580D01*
X27930941Y-42042402D01*
X27815977Y-41870345D01*
X27669655Y-41724023D01*
X27664686Y-41720703D01*
X27591521Y-41671816D01*
X27553641Y-41623766D01*
X27551239Y-41562628D01*
X27585231Y-41511754D01*
X27642635Y-41490576D01*
X27646522Y-41490500D01*
X28238243Y-41490500D01*
X28238245Y-41490500D01*
X28312129Y-41470703D01*
X28312131Y-41470701D01*
X28312133Y-41470701D01*
X28378366Y-41432461D01*
X28378366Y-41432460D01*
X28378371Y-41432458D01*
X28432458Y-41378371D01*
X28443933Y-41358496D01*
X28470701Y-41312133D01*
X28470701Y-41312131D01*
X28470703Y-41312129D01*
X28490500Y-41238245D01*
X28490500Y-39839500D01*
X28509407Y-39781309D01*
X28558907Y-39745345D01*
X28589500Y-39740500D01*
X49488243Y-39740500D01*
X49488245Y-39740500D01*
X49562129Y-39720703D01*
X49562131Y-39720701D01*
X49562133Y-39720701D01*
X49628366Y-39682461D01*
X49628366Y-39682460D01*
X49628371Y-39682458D01*
X49682458Y-39628371D01*
X49720703Y-39562129D01*
X49740500Y-39488245D01*
X49740500Y-37516900D01*
X49759407Y-37458709D01*
X49769490Y-37446902D01*
X49770480Y-37445913D01*
X49823207Y-37354587D01*
X49850500Y-37252727D01*
X49850500Y-37147273D01*
X49823207Y-37045413D01*
X49770480Y-36954087D01*
X49695913Y-36879520D01*
X49695910Y-36879518D01*
X49604594Y-36826796D01*
X49603793Y-36826465D01*
X49603320Y-36826061D01*
X49598967Y-36823548D01*
X49599432Y-36822741D01*
X49557267Y-36786728D01*
X49542983Y-36727234D01*
X49566397Y-36670706D01*
X49599206Y-36646867D01*
X49598967Y-36646452D01*
X49602917Y-36644171D01*
X49603793Y-36643535D01*
X49604579Y-36643209D01*
X49604587Y-36643207D01*
X49695913Y-36590480D01*
X49766898Y-36519494D01*
X49821413Y-36491719D01*
X49836900Y-36490500D01*
X51810500Y-36490500D01*
X51868691Y-36509407D01*
X51904655Y-36558907D01*
X51909500Y-36589500D01*
X51909500Y-40161755D01*
X51909500Y-40238245D01*
X51921616Y-40283465D01*
X51929298Y-40312134D01*
X51930982Y-40316198D01*
X51935781Y-40377195D01*
X51909523Y-40424083D01*
X51879518Y-40454089D01*
X51826794Y-40545409D01*
X51826794Y-40545410D01*
X51826793Y-40545412D01*
X51826793Y-40545413D01*
X51799500Y-40647273D01*
X51799500Y-40752727D01*
X51824487Y-40845979D01*
X51826794Y-40854589D01*
X51826794Y-40854590D01*
X51869927Y-40929298D01*
X51879520Y-40945913D01*
X51880505Y-40946898D01*
X51880959Y-40947789D01*
X51883471Y-40951063D01*
X51882864Y-40951528D01*
X51908281Y-41001413D01*
X51909500Y-41016900D01*
X51909500Y-41326368D01*
X51890593Y-41384559D01*
X51841093Y-41420523D01*
X51784878Y-41421995D01*
X51766461Y-41417060D01*
X51738245Y-41409500D01*
X51738244Y-41409500D01*
X48516900Y-41409500D01*
X48458709Y-41390593D01*
X48446902Y-41380509D01*
X48445913Y-41379520D01*
X48443914Y-41378366D01*
X48354589Y-41326794D01*
X48354588Y-41326793D01*
X48354587Y-41326793D01*
X48252727Y-41299500D01*
X48147273Y-41299500D01*
X48045413Y-41326793D01*
X48045412Y-41326793D01*
X48045410Y-41326794D01*
X48045409Y-41326794D01*
X47954089Y-41379518D01*
X47879518Y-41454089D01*
X47826794Y-41545409D01*
X47826794Y-41545410D01*
X47826793Y-41545412D01*
X47826793Y-41545413D01*
X47799500Y-41647273D01*
X47799500Y-41752727D01*
X47815417Y-41812129D01*
X47826794Y-41854589D01*
X47826794Y-41854590D01*
X47873406Y-41935324D01*
X47879520Y-41945913D01*
X47954087Y-42020480D01*
X48045413Y-42073207D01*
X48147273Y-42100500D01*
X48147275Y-42100500D01*
X48252725Y-42100500D01*
X48252727Y-42100500D01*
X48354587Y-42073207D01*
X48445913Y-42020480D01*
X48446898Y-42019494D01*
X48447789Y-42019040D01*
X48451063Y-42016529D01*
X48451528Y-42017135D01*
X48501413Y-41991719D01*
X48516900Y-41990500D01*
X51310500Y-41990500D01*
X51368691Y-42009407D01*
X51404655Y-42058907D01*
X51409500Y-42089500D01*
X51409500Y-46738245D01*
X51424817Y-46795409D01*
X51429298Y-46812133D01*
X51467538Y-46878366D01*
X51467540Y-46878368D01*
X51467542Y-46878371D01*
X51521629Y-46932458D01*
X51521631Y-46932459D01*
X51521633Y-46932461D01*
X51587867Y-46970701D01*
X51587865Y-46970701D01*
X51587869Y-46970702D01*
X51587871Y-46970703D01*
X51661755Y-46990500D01*
X51661757Y-46990500D01*
X52988243Y-46990500D01*
X52988245Y-46990500D01*
X53062129Y-46970703D01*
X53062131Y-46970701D01*
X53062133Y-46970701D01*
X53128366Y-46932461D01*
X53128366Y-46932460D01*
X53128371Y-46932458D01*
X53182458Y-46878371D01*
X53220703Y-46812129D01*
X53240500Y-46738245D01*
X53240500Y-42089500D01*
X53259407Y-42031309D01*
X53308907Y-41995345D01*
X53339500Y-41990500D01*
X54383100Y-41990500D01*
X54441291Y-42009407D01*
X54453097Y-42019490D01*
X54454087Y-42020480D01*
X54545413Y-42073207D01*
X54647273Y-42100500D01*
X54647275Y-42100500D01*
X54752725Y-42100500D01*
X54752727Y-42100500D01*
X54854587Y-42073207D01*
X54945913Y-42020480D01*
X54975916Y-41990476D01*
X54995209Y-41980646D01*
X55012312Y-41967360D01*
X55020894Y-41967558D01*
X55030429Y-41962701D01*
X55073466Y-41965392D01*
X55083915Y-41968419D01*
X55087871Y-41970703D01*
X55140143Y-41984709D01*
X55141078Y-41984980D01*
X55165619Y-42001631D01*
X55190466Y-42017767D01*
X55190841Y-42018744D01*
X55191709Y-42019333D01*
X55201778Y-42047237D01*
X55212393Y-42074888D01*
X55212121Y-42075899D01*
X55212478Y-42076886D01*
X55204226Y-42105368D01*
X55196558Y-42133989D01*
X55195587Y-42135187D01*
X55195452Y-42135655D01*
X55194796Y-42136164D01*
X55183533Y-42150073D01*
X55129519Y-42204087D01*
X55076794Y-42295409D01*
X55076794Y-42295410D01*
X55076793Y-42295412D01*
X55076793Y-42295413D01*
X55049500Y-42397273D01*
X55049500Y-42502727D01*
X55076793Y-42604587D01*
X55076794Y-42604589D01*
X55119182Y-42678007D01*
X55131904Y-42737855D01*
X55107017Y-42793751D01*
X55059071Y-42823133D01*
X55045415Y-42826792D01*
X55045409Y-42826794D01*
X54954089Y-42879518D01*
X54879518Y-42954089D01*
X54826794Y-43045409D01*
X54826794Y-43045410D01*
X54826793Y-43045412D01*
X54826793Y-43045413D01*
X54799500Y-43147273D01*
X54799500Y-43252727D01*
X54826793Y-43354587D01*
X54826794Y-43354589D01*
X54826794Y-43354590D01*
X54869927Y-43429298D01*
X54879520Y-43445913D01*
X54880505Y-43446898D01*
X54880959Y-43447789D01*
X54883471Y-43451063D01*
X54882864Y-43451528D01*
X54908281Y-43501413D01*
X54909500Y-43516900D01*
X54909500Y-49383099D01*
X54890593Y-49441290D01*
X54880510Y-49453096D01*
X54879520Y-49454085D01*
X54826794Y-49545409D01*
X54826794Y-49545410D01*
X54826793Y-49545412D01*
X54826793Y-49545413D01*
X54799500Y-49647273D01*
X54799500Y-49752727D01*
X54826793Y-49854587D01*
X54826794Y-49854589D01*
X54826794Y-49854590D01*
X54866930Y-49924107D01*
X54879520Y-49945913D01*
X54954087Y-50020480D01*
X55045413Y-50073207D01*
X55147273Y-50100500D01*
X55147275Y-50100500D01*
X55252725Y-50100500D01*
X55252727Y-50100500D01*
X55354587Y-50073207D01*
X55445913Y-50020480D01*
X55520480Y-49945913D01*
X55573207Y-49854587D01*
X55600500Y-49752727D01*
X55600500Y-49647273D01*
X55573207Y-49545413D01*
X55520480Y-49454087D01*
X55520479Y-49454085D01*
X55519490Y-49453096D01*
X55519035Y-49452203D01*
X55516529Y-49448937D01*
X55517134Y-49448472D01*
X55491717Y-49398577D01*
X55490500Y-49383099D01*
X55490500Y-43516900D01*
X55509407Y-43458709D01*
X55519490Y-43446902D01*
X55520480Y-43445913D01*
X55573207Y-43354587D01*
X55600500Y-43252727D01*
X55600500Y-43147273D01*
X55573207Y-43045413D01*
X55530816Y-42971990D01*
X55518095Y-42912144D01*
X55542981Y-42856249D01*
X55568710Y-42835820D01*
X55579270Y-42829990D01*
X55604587Y-42823207D01*
X55695913Y-42770480D01*
X55706797Y-42759595D01*
X55719057Y-42752828D01*
X55736020Y-42749561D01*
X55751413Y-42741719D01*
X55766900Y-42740500D01*
X56810500Y-42740500D01*
X56868691Y-42759407D01*
X56904655Y-42808907D01*
X56909500Y-42839500D01*
X56909500Y-43488245D01*
X56918138Y-43520481D01*
X56929298Y-43562133D01*
X56967538Y-43628366D01*
X56967540Y-43628368D01*
X56967542Y-43628371D01*
X57021629Y-43682458D01*
X57087871Y-43720703D01*
X57087873Y-43720703D01*
X57087874Y-43720704D01*
X57093870Y-43723188D01*
X57093190Y-43724828D01*
X57137426Y-43753545D01*
X57159363Y-43810662D01*
X57159500Y-43815861D01*
X57159500Y-45738245D01*
X57166016Y-45762562D01*
X57179298Y-45812133D01*
X57217538Y-45878366D01*
X57217540Y-45878368D01*
X57217542Y-45878371D01*
X57271629Y-45932458D01*
X57271631Y-45932459D01*
X57271633Y-45932461D01*
X57337867Y-45970701D01*
X57337865Y-45970701D01*
X57337869Y-45970702D01*
X57337871Y-45970703D01*
X57411755Y-45990500D01*
X57488245Y-45990500D01*
X57560500Y-45990500D01*
X57618691Y-46009407D01*
X57654655Y-46058907D01*
X57659500Y-46089500D01*
X57659500Y-46633099D01*
X57640593Y-46691290D01*
X57630510Y-46703096D01*
X57629520Y-46704085D01*
X57576794Y-46795409D01*
X57576794Y-46795410D01*
X57576793Y-46795412D01*
X57576793Y-46795413D01*
X57549500Y-46897273D01*
X57549500Y-47002727D01*
X57576793Y-47104587D01*
X57576794Y-47104589D01*
X57576794Y-47104590D01*
X57629518Y-47195910D01*
X57629520Y-47195913D01*
X57704087Y-47270480D01*
X57795413Y-47323207D01*
X57897273Y-47350500D01*
X57897275Y-47350500D01*
X58002725Y-47350500D01*
X58002727Y-47350500D01*
X58104587Y-47323207D01*
X58195913Y-47270480D01*
X58240498Y-47225894D01*
X58295013Y-47198119D01*
X58355445Y-47207690D01*
X58398710Y-47250955D01*
X58409500Y-47295900D01*
X58409500Y-49883099D01*
X58390593Y-49941290D01*
X58380510Y-49953096D01*
X58379520Y-49954085D01*
X58326794Y-50045409D01*
X58326794Y-50045410D01*
X58326793Y-50045412D01*
X58326793Y-50045413D01*
X58299500Y-50147273D01*
X58299500Y-50252727D01*
X58302378Y-50263467D01*
X58326794Y-50354589D01*
X58326794Y-50354590D01*
X58379518Y-50445910D01*
X58379520Y-50445913D01*
X58454087Y-50520480D01*
X58545413Y-50573207D01*
X58647273Y-50600500D01*
X58647275Y-50600500D01*
X58752725Y-50600500D01*
X58752727Y-50600500D01*
X58854587Y-50573207D01*
X58945913Y-50520480D01*
X59020480Y-50445913D01*
X59073207Y-50354587D01*
X59100500Y-50252727D01*
X59100500Y-50147273D01*
X59073207Y-50045413D01*
X59020480Y-49954087D01*
X59020479Y-49954085D01*
X59019490Y-49953096D01*
X59019035Y-49952203D01*
X59016529Y-49948937D01*
X59017134Y-49948472D01*
X58991717Y-49898577D01*
X58990500Y-49883099D01*
X58990500Y-48187512D01*
X59009407Y-48129321D01*
X59058907Y-48093357D01*
X59115121Y-48091885D01*
X59147273Y-48100500D01*
X59147275Y-48100500D01*
X59252725Y-48100500D01*
X59252727Y-48100500D01*
X59354587Y-48073207D01*
X59445913Y-48020480D01*
X59520480Y-47945913D01*
X59573207Y-47854587D01*
X59600500Y-47752727D01*
X59600500Y-47647273D01*
X59573207Y-47545413D01*
X59556534Y-47516535D01*
X59520479Y-47454085D01*
X59519490Y-47453096D01*
X59519035Y-47452203D01*
X59516529Y-47448937D01*
X59517134Y-47448472D01*
X59491717Y-47398577D01*
X59490500Y-47383099D01*
X59490500Y-45687512D01*
X59509407Y-45629321D01*
X59558907Y-45593357D01*
X59615121Y-45591885D01*
X59647273Y-45600500D01*
X59647275Y-45600500D01*
X59752725Y-45600500D01*
X59752727Y-45600500D01*
X59854587Y-45573207D01*
X59945913Y-45520480D01*
X60020480Y-45445913D01*
X60073207Y-45354587D01*
X60100500Y-45252727D01*
X60100500Y-45147273D01*
X60073207Y-45045413D01*
X60048562Y-45002727D01*
X60020479Y-44954085D01*
X60019490Y-44953096D01*
X60019035Y-44952203D01*
X60016529Y-44948937D01*
X60017134Y-44948472D01*
X59991717Y-44898577D01*
X59990500Y-44883099D01*
X59990500Y-42937512D01*
X60009407Y-42879321D01*
X60058907Y-42843357D01*
X60115121Y-42841885D01*
X60147273Y-42850500D01*
X60147275Y-42850500D01*
X60252725Y-42850500D01*
X60252727Y-42850500D01*
X60354587Y-42823207D01*
X60445913Y-42770480D01*
X60520480Y-42695913D01*
X60573207Y-42604587D01*
X60600500Y-42502727D01*
X60600500Y-42397273D01*
X60573207Y-42295413D01*
X60559475Y-42271629D01*
X60520479Y-42204085D01*
X60519490Y-42203096D01*
X60519035Y-42202203D01*
X60516529Y-42198937D01*
X60517134Y-42198472D01*
X60491717Y-42148577D01*
X60490500Y-42133099D01*
X60490500Y-38187512D01*
X60509407Y-38129321D01*
X60558907Y-38093357D01*
X60615121Y-38091885D01*
X60647273Y-38100500D01*
X60647275Y-38100500D01*
X60752725Y-38100500D01*
X60752727Y-38100500D01*
X60854587Y-38073207D01*
X60928010Y-38030816D01*
X60987854Y-38018095D01*
X61043750Y-38042981D01*
X61064179Y-38068709D01*
X61070010Y-38079272D01*
X61076793Y-38104587D01*
X61129520Y-38195913D01*
X61140406Y-38206799D01*
X61147172Y-38219056D01*
X61150438Y-38236021D01*
X61158281Y-38251413D01*
X61159500Y-38266900D01*
X61159500Y-67101729D01*
X61140593Y-67159920D01*
X61130504Y-67171732D01*
X61084312Y-67217924D01*
X60973238Y-67370803D01*
X60887453Y-67539167D01*
X60829058Y-67718886D01*
X60799500Y-67905515D01*
X60799500Y-68094484D01*
X60829058Y-68281113D01*
X60829060Y-68281118D01*
X60887453Y-68460832D01*
X60973240Y-68629199D01*
X61084310Y-68782073D01*
X61217927Y-68915690D01*
X61370801Y-69026760D01*
X61539168Y-69112547D01*
X61718882Y-69170940D01*
X61718883Y-69170940D01*
X61718886Y-69170941D01*
X61905516Y-69200500D01*
X61905519Y-69200500D01*
X62094484Y-69200500D01*
X62281113Y-69170941D01*
X62281114Y-69170940D01*
X62281118Y-69170940D01*
X62460832Y-69112547D01*
X62629199Y-69026760D01*
X62782073Y-68915690D01*
X62915690Y-68782073D01*
X63026760Y-68629199D01*
X63112547Y-68460832D01*
X63170940Y-68281118D01*
X63200500Y-68094481D01*
X63200500Y-67905519D01*
X63200500Y-67905515D01*
X67299500Y-67905515D01*
X67299500Y-68094484D01*
X67329058Y-68281113D01*
X67329060Y-68281118D01*
X67387453Y-68460832D01*
X67473240Y-68629199D01*
X67584310Y-68782073D01*
X67717927Y-68915690D01*
X67870801Y-69026760D01*
X68039168Y-69112547D01*
X68218882Y-69170940D01*
X68218883Y-69170940D01*
X68218886Y-69170941D01*
X68405516Y-69200500D01*
X68405519Y-69200500D01*
X68594484Y-69200500D01*
X68781113Y-69170941D01*
X68781114Y-69170940D01*
X68781118Y-69170940D01*
X68960832Y-69112547D01*
X69129199Y-69026760D01*
X69282073Y-68915690D01*
X69415690Y-68782073D01*
X69526760Y-68629199D01*
X69612547Y-68460832D01*
X69670940Y-68281118D01*
X69700500Y-68094481D01*
X69700500Y-67905519D01*
X69700500Y-67905515D01*
X73799500Y-67905515D01*
X73799500Y-68094484D01*
X73829058Y-68281113D01*
X73829060Y-68281118D01*
X73887453Y-68460832D01*
X73973240Y-68629199D01*
X74084310Y-68782073D01*
X74217927Y-68915690D01*
X74370801Y-69026760D01*
X74539168Y-69112547D01*
X74718882Y-69170940D01*
X74718883Y-69170940D01*
X74718886Y-69170941D01*
X74905516Y-69200500D01*
X74905519Y-69200500D01*
X75094484Y-69200500D01*
X75281113Y-69170941D01*
X75281114Y-69170940D01*
X75281118Y-69170940D01*
X75460832Y-69112547D01*
X75629199Y-69026760D01*
X75782073Y-68915690D01*
X75915690Y-68782073D01*
X76026760Y-68629199D01*
X76112547Y-68460832D01*
X76170940Y-68281118D01*
X76200500Y-68094481D01*
X76200500Y-67905519D01*
X76200500Y-67905515D01*
X80299500Y-67905515D01*
X80299500Y-68094484D01*
X80329058Y-68281113D01*
X80329060Y-68281118D01*
X80387453Y-68460832D01*
X80473240Y-68629199D01*
X80584310Y-68782073D01*
X80717927Y-68915690D01*
X80870801Y-69026760D01*
X81039168Y-69112547D01*
X81218882Y-69170940D01*
X81218883Y-69170940D01*
X81218886Y-69170941D01*
X81405516Y-69200500D01*
X81405519Y-69200500D01*
X81594484Y-69200500D01*
X81781113Y-69170941D01*
X81781114Y-69170940D01*
X81781118Y-69170940D01*
X81960832Y-69112547D01*
X82129199Y-69026760D01*
X82282073Y-68915690D01*
X82415690Y-68782073D01*
X82526760Y-68629199D01*
X82612547Y-68460832D01*
X82670940Y-68281118D01*
X82700500Y-68094481D01*
X82700500Y-67905519D01*
X82700500Y-67905515D01*
X82670941Y-67718886D01*
X82670940Y-67718882D01*
X82612547Y-67539168D01*
X82526760Y-67370801D01*
X82415690Y-67217927D01*
X82282073Y-67084310D01*
X82129199Y-66973240D01*
X82129198Y-66973239D01*
X82129196Y-66973238D01*
X81960832Y-66887453D01*
X81781113Y-66829058D01*
X81594484Y-66799500D01*
X81594481Y-66799500D01*
X81405519Y-66799500D01*
X81405516Y-66799500D01*
X81218886Y-66829058D01*
X81039167Y-66887453D01*
X80870803Y-66973238D01*
X80717928Y-67084309D01*
X80584309Y-67217928D01*
X80473238Y-67370803D01*
X80387453Y-67539167D01*
X80329058Y-67718886D01*
X80299500Y-67905515D01*
X76200500Y-67905515D01*
X76170941Y-67718886D01*
X76170940Y-67718882D01*
X76112547Y-67539168D01*
X76026760Y-67370801D01*
X75915690Y-67217927D01*
X75782073Y-67084310D01*
X75629199Y-66973240D01*
X75629198Y-66973239D01*
X75629196Y-66973238D01*
X75460832Y-66887453D01*
X75281113Y-66829058D01*
X75094484Y-66799500D01*
X75094481Y-66799500D01*
X74905519Y-66799500D01*
X74905516Y-66799500D01*
X74718886Y-66829058D01*
X74539167Y-66887453D01*
X74370803Y-66973238D01*
X74217928Y-67084309D01*
X74084309Y-67217928D01*
X73973238Y-67370803D01*
X73887453Y-67539167D01*
X73829058Y-67718886D01*
X73799500Y-67905515D01*
X69700500Y-67905515D01*
X69670941Y-67718886D01*
X69670940Y-67718882D01*
X69612547Y-67539168D01*
X69526760Y-67370801D01*
X69415690Y-67217927D01*
X69282073Y-67084310D01*
X69129199Y-66973240D01*
X69129198Y-66973239D01*
X69129196Y-66973238D01*
X68960832Y-66887453D01*
X68781113Y-66829058D01*
X68594484Y-66799500D01*
X68594481Y-66799500D01*
X68405519Y-66799500D01*
X68405516Y-66799500D01*
X68218886Y-66829058D01*
X68039167Y-66887453D01*
X67870803Y-66973238D01*
X67717928Y-67084309D01*
X67584309Y-67217928D01*
X67473238Y-67370803D01*
X67387453Y-67539167D01*
X67329058Y-67718886D01*
X67299500Y-67905515D01*
X63200500Y-67905515D01*
X63170941Y-67718886D01*
X63170940Y-67718882D01*
X63112547Y-67539168D01*
X63026760Y-67370801D01*
X62915690Y-67217927D01*
X62782073Y-67084310D01*
X62629199Y-66973240D01*
X62629198Y-66973239D01*
X62629196Y-66973238D01*
X62460832Y-66887453D01*
X62281113Y-66829058D01*
X62094484Y-66799500D01*
X62094481Y-66799500D01*
X61905519Y-66799500D01*
X61905516Y-66799500D01*
X61854987Y-66807503D01*
X61794555Y-66797932D01*
X61751290Y-66754667D01*
X61740500Y-66709722D01*
X61740500Y-49104039D01*
X61759407Y-49045848D01*
X61808907Y-49009884D01*
X61870093Y-49009884D01*
X61919593Y-49045848D01*
X61925682Y-49056723D01*
X61926052Y-49056510D01*
X61967538Y-49128366D01*
X61967540Y-49128368D01*
X61967542Y-49128371D01*
X62021629Y-49182458D01*
X62021631Y-49182459D01*
X62021633Y-49182461D01*
X62087867Y-49220701D01*
X62087865Y-49220701D01*
X62087869Y-49220702D01*
X62087871Y-49220703D01*
X62161755Y-49240500D01*
X62238245Y-49240500D01*
X64194861Y-49240500D01*
X64253052Y-49259407D01*
X64289016Y-49308907D01*
X64289016Y-49370093D01*
X64264866Y-49409501D01*
X64222165Y-49452203D01*
X64184020Y-49490348D01*
X64069058Y-49662402D01*
X63989869Y-49853581D01*
X63949500Y-50056532D01*
X63949500Y-50263467D01*
X63989869Y-50466418D01*
X64069058Y-50657597D01*
X64069059Y-50657598D01*
X64184023Y-50829655D01*
X64330345Y-50975977D01*
X64502402Y-51090941D01*
X64693580Y-51170130D01*
X64896535Y-51210500D01*
X64896536Y-51210500D01*
X65103464Y-51210500D01*
X65103465Y-51210500D01*
X65306420Y-51170130D01*
X65497598Y-51090941D01*
X65669655Y-50975977D01*
X65815977Y-50829655D01*
X65930941Y-50657598D01*
X66010130Y-50466420D01*
X66050500Y-50263465D01*
X66050500Y-50056535D01*
X66010130Y-49853580D01*
X65930941Y-49662402D01*
X65815977Y-49490345D01*
X65735133Y-49409501D01*
X65707358Y-49354987D01*
X65716929Y-49294555D01*
X65760194Y-49251290D01*
X65805139Y-49240500D01*
X65988243Y-49240500D01*
X65988245Y-49240500D01*
X66062129Y-49220703D01*
X66062131Y-49220701D01*
X66062133Y-49220701D01*
X66128366Y-49182461D01*
X66128366Y-49182460D01*
X66128371Y-49182458D01*
X66182458Y-49128371D01*
X66220703Y-49062129D01*
X66225229Y-49045233D01*
X66258552Y-48993920D01*
X66295232Y-48975230D01*
X66312129Y-48970703D01*
X66378371Y-48932458D01*
X66432458Y-48878371D01*
X66470703Y-48812129D01*
X66490500Y-48738245D01*
X66490500Y-48589500D01*
X66509407Y-48531309D01*
X66558907Y-48495345D01*
X66589500Y-48490500D01*
X90966832Y-48490500D01*
X91025023Y-48509407D01*
X91058296Y-48551614D01*
X91069058Y-48577597D01*
X91176399Y-48738245D01*
X91184023Y-48749655D01*
X91330345Y-48895977D01*
X91502402Y-49010941D01*
X91693580Y-49090130D01*
X91896535Y-49130500D01*
X91896536Y-49130500D01*
X92103464Y-49130500D01*
X92103465Y-49130500D01*
X92306420Y-49090130D01*
X92497598Y-49010941D01*
X92669655Y-48895977D01*
X92815977Y-48749655D01*
X92930941Y-48577598D01*
X93010130Y-48386420D01*
X93050500Y-48183465D01*
X93050500Y-47976535D01*
X93010130Y-47773580D01*
X92930941Y-47582402D01*
X92815977Y-47410345D01*
X92669655Y-47264023D01*
X92669651Y-47264020D01*
X92497597Y-47149058D01*
X92306418Y-47069869D01*
X92103467Y-47029500D01*
X92103465Y-47029500D01*
X91896535Y-47029500D01*
X91896532Y-47029500D01*
X91693581Y-47069869D01*
X91502402Y-47149058D01*
X91330348Y-47264020D01*
X91184020Y-47410348D01*
X91069058Y-47582402D01*
X90989869Y-47773582D01*
X90978685Y-47829813D01*
X90948789Y-47883197D01*
X90893224Y-47908814D01*
X90881587Y-47909500D01*
X66238245Y-47909500D01*
X66161755Y-47909500D01*
X66161754Y-47909500D01*
X66161747Y-47909501D01*
X66158918Y-47910259D01*
X66156825Y-47910149D01*
X66155323Y-47910347D01*
X66155286Y-47910068D01*
X66097817Y-47907051D01*
X66050271Y-47868541D01*
X66034441Y-47809439D01*
X66036208Y-47795315D01*
X66040532Y-47773580D01*
X66050500Y-47723465D01*
X66050500Y-47516535D01*
X66010130Y-47313580D01*
X65930941Y-47122402D01*
X65815977Y-46950345D01*
X65669655Y-46804023D01*
X65669651Y-46804020D01*
X65497597Y-46689058D01*
X65478055Y-46680964D01*
X65431530Y-46641227D01*
X65417246Y-46581733D01*
X65440661Y-46525205D01*
X65492830Y-46493235D01*
X65515941Y-46490500D01*
X66238243Y-46490500D01*
X66238245Y-46490500D01*
X66312129Y-46470703D01*
X66312131Y-46470701D01*
X66312133Y-46470701D01*
X66378366Y-46432461D01*
X66378366Y-46432460D01*
X66378371Y-46432458D01*
X66432458Y-46378371D01*
X66470703Y-46312129D01*
X66490500Y-46238245D01*
X66490500Y-46045900D01*
X66509407Y-45987709D01*
X66558907Y-45951745D01*
X66620093Y-45951745D01*
X66659501Y-45975894D01*
X66704087Y-46020480D01*
X66795413Y-46073207D01*
X66897273Y-46100500D01*
X66897275Y-46100500D01*
X67002725Y-46100500D01*
X67002727Y-46100500D01*
X67104587Y-46073207D01*
X67195913Y-46020480D01*
X67270480Y-45945913D01*
X67323207Y-45854587D01*
X67334115Y-45813875D01*
X67367440Y-45762562D01*
X67424561Y-45740636D01*
X67429742Y-45740500D01*
X90887554Y-45740500D01*
X90945745Y-45759407D01*
X90981709Y-45808907D01*
X90984652Y-45820186D01*
X90989869Y-45846417D01*
X90989871Y-45846423D01*
X91069058Y-46037597D01*
X91142341Y-46147273D01*
X91184023Y-46209655D01*
X91330345Y-46355977D01*
X91502402Y-46470941D01*
X91693580Y-46550130D01*
X91896535Y-46590500D01*
X91896536Y-46590500D01*
X92103464Y-46590500D01*
X92103465Y-46590500D01*
X92306420Y-46550130D01*
X92497598Y-46470941D01*
X92669655Y-46355977D01*
X92815977Y-46209655D01*
X92930941Y-46037598D01*
X93010130Y-45846420D01*
X93017183Y-45810957D01*
X93047078Y-45757574D01*
X93102643Y-45731957D01*
X93139902Y-45734644D01*
X93161755Y-45740500D01*
X93238245Y-45740500D01*
X98887554Y-45740500D01*
X98945745Y-45759407D01*
X98981709Y-45808907D01*
X98984652Y-45820186D01*
X98989869Y-45846417D01*
X98989871Y-45846423D01*
X99069058Y-46037597D01*
X99142341Y-46147273D01*
X99184023Y-46209655D01*
X99330345Y-46355977D01*
X99502402Y-46470941D01*
X99609615Y-46515350D01*
X99656140Y-46555087D01*
X99670424Y-46614581D01*
X99667356Y-46632436D01*
X99659500Y-46661755D01*
X99659500Y-47017836D01*
X99640593Y-47076027D01*
X99598386Y-47109300D01*
X99502402Y-47149058D01*
X99330348Y-47264020D01*
X99184020Y-47410348D01*
X99069058Y-47582402D01*
X98989869Y-47773581D01*
X98949500Y-47976532D01*
X98949500Y-48183467D01*
X98989869Y-48386418D01*
X99069058Y-48577597D01*
X99176399Y-48738245D01*
X99184023Y-48749655D01*
X99330345Y-48895977D01*
X99502402Y-49010941D01*
X99693580Y-49090130D01*
X99896535Y-49130500D01*
X99896536Y-49130500D01*
X100103464Y-49130500D01*
X100103465Y-49130500D01*
X100306420Y-49090130D01*
X100497598Y-49010941D01*
X100669655Y-48895977D01*
X100815977Y-48749655D01*
X100930941Y-48577598D01*
X101010130Y-48386420D01*
X101050500Y-48183465D01*
X101050500Y-47976535D01*
X101010130Y-47773580D01*
X100930941Y-47582402D01*
X100815977Y-47410345D01*
X100669655Y-47264023D01*
X100650097Y-47250955D01*
X100571022Y-47198119D01*
X100531655Y-47171815D01*
X100493776Y-47123766D01*
X100491374Y-47062628D01*
X100525366Y-47011754D01*
X100582770Y-46990576D01*
X100586657Y-46990500D01*
X101238243Y-46990500D01*
X101238245Y-46990500D01*
X101312129Y-46970703D01*
X101312131Y-46970701D01*
X101312133Y-46970701D01*
X101378366Y-46932461D01*
X101378366Y-46932460D01*
X101378371Y-46932458D01*
X101432458Y-46878371D01*
X101470703Y-46812129D01*
X101490500Y-46738245D01*
X101490500Y-44411755D01*
X101470703Y-44337871D01*
X101470701Y-44337868D01*
X101470701Y-44337866D01*
X101432461Y-44271633D01*
X101432459Y-44271631D01*
X101432458Y-44271629D01*
X101378371Y-44217542D01*
X101378368Y-44217540D01*
X101378366Y-44217538D01*
X101312132Y-44179298D01*
X101312128Y-44179296D01*
X101295232Y-44174769D01*
X101243918Y-44141445D01*
X101225230Y-44104767D01*
X101220703Y-44087871D01*
X101220701Y-44087868D01*
X101220701Y-44087866D01*
X101182461Y-44021633D01*
X101182459Y-44021631D01*
X101182458Y-44021629D01*
X101128371Y-43967542D01*
X101128368Y-43967540D01*
X101099999Y-43951161D01*
X101059059Y-43905691D01*
X101050500Y-43865425D01*
X101050500Y-42130253D01*
X101050498Y-42130241D01*
X101040849Y-42081733D01*
X101038867Y-42071769D01*
X100994552Y-42005448D01*
X100994548Y-42005445D01*
X100928233Y-41961134D01*
X100928231Y-41961133D01*
X100928228Y-41961132D01*
X100928227Y-41961132D01*
X100869758Y-41949501D01*
X100869748Y-41949500D01*
X99130252Y-41949500D01*
X99130251Y-41949500D01*
X99130241Y-41949501D01*
X99071772Y-41961132D01*
X99071766Y-41961134D01*
X99005451Y-42005445D01*
X99005445Y-42005451D01*
X98961134Y-42071766D01*
X98961132Y-42071772D01*
X98949501Y-42130241D01*
X98949500Y-42130253D01*
X98949500Y-43810500D01*
X98930593Y-43868691D01*
X98881093Y-43904655D01*
X98850500Y-43909500D01*
X94065861Y-43909500D01*
X94007670Y-43890593D01*
X93973595Y-43843693D01*
X93973185Y-43843863D01*
X93972477Y-43842154D01*
X93971706Y-43841093D01*
X93970874Y-43838284D01*
X93970701Y-43837867D01*
X93932461Y-43771633D01*
X93932459Y-43771631D01*
X93932458Y-43771629D01*
X93878371Y-43717542D01*
X93878368Y-43717540D01*
X93878366Y-43717538D01*
X93812132Y-43679298D01*
X93812128Y-43679296D01*
X93795232Y-43674769D01*
X93743918Y-43641445D01*
X93725230Y-43604767D01*
X93720703Y-43587871D01*
X93720701Y-43587868D01*
X93720701Y-43587866D01*
X93682461Y-43521633D01*
X93682459Y-43521631D01*
X93682458Y-43521629D01*
X93628371Y-43467542D01*
X93628368Y-43467540D01*
X93628366Y-43467538D01*
X93562132Y-43429298D01*
X93556137Y-43426815D01*
X93556813Y-43425182D01*
X93512551Y-43396427D01*
X93490635Y-43339302D01*
X93490500Y-43334138D01*
X93490500Y-41661756D01*
X93486620Y-41647274D01*
X93470703Y-41587871D01*
X93470701Y-41587868D01*
X93470701Y-41587866D01*
X93432461Y-41521633D01*
X93432459Y-41521631D01*
X93432458Y-41521629D01*
X93378371Y-41467542D01*
X93378368Y-41467540D01*
X93378366Y-41467538D01*
X93312132Y-41429298D01*
X93312134Y-41429298D01*
X93279384Y-41420523D01*
X93238245Y-41409500D01*
X93238243Y-41409500D01*
X73545900Y-41409500D01*
X73487709Y-41390593D01*
X73451745Y-41341093D01*
X73451745Y-41279907D01*
X73475894Y-41240498D01*
X73520480Y-41195913D01*
X73573207Y-41104587D01*
X73600500Y-41002727D01*
X73600500Y-40897273D01*
X73573207Y-40795413D01*
X73569861Y-40789618D01*
X73520479Y-40704085D01*
X73519490Y-40703096D01*
X73519035Y-40702203D01*
X73516529Y-40698937D01*
X73517134Y-40698472D01*
X73491717Y-40648577D01*
X73490500Y-40633099D01*
X73490500Y-30839500D01*
X73509407Y-30781309D01*
X73558907Y-30745345D01*
X73589500Y-30740500D01*
X86989513Y-30740500D01*
X87047704Y-30759407D01*
X87083668Y-30808907D01*
X87084724Y-30812955D01*
X87086028Y-30817254D01*
X87157677Y-30990229D01*
X87157681Y-30990238D01*
X87218268Y-31080911D01*
X87261698Y-31145908D01*
X87261701Y-31145911D01*
X87356286Y-31240496D01*
X87384063Y-31295013D01*
X87374492Y-31355445D01*
X87331227Y-31398710D01*
X87286282Y-31409500D01*
X78738245Y-31409500D01*
X78661755Y-31409500D01*
X78627077Y-31418792D01*
X78587866Y-31429298D01*
X78521633Y-31467538D01*
X78467538Y-31521633D01*
X78429298Y-31587866D01*
X78429297Y-31587871D01*
X78413317Y-31647512D01*
X78409500Y-31661756D01*
X78409500Y-37633099D01*
X78390593Y-37691290D01*
X78380510Y-37703096D01*
X78379520Y-37704085D01*
X78326794Y-37795409D01*
X78326794Y-37795410D01*
X78326793Y-37795412D01*
X78326793Y-37795413D01*
X78299500Y-37897273D01*
X78299500Y-38002727D01*
X78318385Y-38073206D01*
X78326794Y-38104589D01*
X78326794Y-38104590D01*
X78379518Y-38195910D01*
X78379520Y-38195913D01*
X78454087Y-38270480D01*
X78545413Y-38323207D01*
X78647273Y-38350500D01*
X78647275Y-38350500D01*
X78752725Y-38350500D01*
X78752727Y-38350500D01*
X78854587Y-38323207D01*
X78945913Y-38270480D01*
X79020480Y-38195913D01*
X79073207Y-38104587D01*
X79100500Y-38002727D01*
X79100500Y-37897273D01*
X79073207Y-37795413D01*
X79048562Y-37752727D01*
X79020479Y-37704085D01*
X79019490Y-37703096D01*
X79019035Y-37702203D01*
X79016529Y-37698937D01*
X79017134Y-37698472D01*
X78991717Y-37648577D01*
X78990500Y-37633099D01*
X78990500Y-32089500D01*
X79009407Y-32031309D01*
X79058907Y-31995345D01*
X79089500Y-31990500D01*
X83076368Y-31990500D01*
X83134559Y-32009407D01*
X83170523Y-32058907D01*
X83171995Y-32115122D01*
X83159500Y-32161755D01*
X83159500Y-33060500D01*
X83140593Y-33118691D01*
X83091093Y-33154655D01*
X83060500Y-33159500D01*
X82738245Y-33159500D01*
X82661755Y-33159500D01*
X82616534Y-33171616D01*
X82587866Y-33179298D01*
X82521633Y-33217538D01*
X82467538Y-33271633D01*
X82429298Y-33337866D01*
X82409500Y-33411756D01*
X82409500Y-37633099D01*
X82390593Y-37691290D01*
X82380510Y-37703096D01*
X82379520Y-37704085D01*
X82326794Y-37795409D01*
X82326794Y-37795410D01*
X82326793Y-37795412D01*
X82326793Y-37795413D01*
X82299500Y-37897273D01*
X82299500Y-38002727D01*
X82318385Y-38073206D01*
X82326794Y-38104589D01*
X82326794Y-38104590D01*
X82379518Y-38195910D01*
X82379520Y-38195913D01*
X82454087Y-38270480D01*
X82545413Y-38323207D01*
X82647273Y-38350500D01*
X82647275Y-38350500D01*
X82752725Y-38350500D01*
X82752727Y-38350500D01*
X82854587Y-38323207D01*
X82945913Y-38270480D01*
X83020480Y-38195913D01*
X83073207Y-38104587D01*
X83100500Y-38002727D01*
X83100500Y-37897273D01*
X83073207Y-37795413D01*
X83048562Y-37752727D01*
X83020479Y-37704085D01*
X83019490Y-37703096D01*
X83019035Y-37702203D01*
X83016529Y-37698937D01*
X83017134Y-37698472D01*
X82991717Y-37648577D01*
X82990500Y-37633099D01*
X82990500Y-33839500D01*
X83009407Y-33781309D01*
X83058907Y-33745345D01*
X83089500Y-33740500D01*
X83488243Y-33740500D01*
X83488245Y-33740500D01*
X83562129Y-33720703D01*
X83562131Y-33720701D01*
X83562133Y-33720701D01*
X83628366Y-33682461D01*
X83628366Y-33682460D01*
X83628371Y-33682458D01*
X83682458Y-33628371D01*
X83720703Y-33562129D01*
X83740500Y-33488245D01*
X83740500Y-32589500D01*
X83759407Y-32531309D01*
X83808907Y-32495345D01*
X83839500Y-32490500D01*
X87045960Y-32490500D01*
X87104151Y-32509407D01*
X87140115Y-32558907D01*
X87140115Y-32620093D01*
X87104151Y-32669593D01*
X87093276Y-32675682D01*
X87093490Y-32676052D01*
X87021633Y-32717538D01*
X86967538Y-32771633D01*
X86929298Y-32837866D01*
X86918446Y-32878366D01*
X86913381Y-32897273D01*
X86909500Y-32911756D01*
X86909500Y-33060500D01*
X86890593Y-33118691D01*
X86841093Y-33154655D01*
X86810500Y-33159500D01*
X86738245Y-33159500D01*
X86661755Y-33159500D01*
X86616534Y-33171616D01*
X86587866Y-33179298D01*
X86521633Y-33217538D01*
X86467538Y-33271633D01*
X86429298Y-33337866D01*
X86409500Y-33411756D01*
X86409500Y-37633099D01*
X86390593Y-37691290D01*
X86380510Y-37703096D01*
X86379520Y-37704085D01*
X86326794Y-37795409D01*
X86326794Y-37795410D01*
X86326793Y-37795412D01*
X86326793Y-37795413D01*
X86299500Y-37897273D01*
X86299500Y-38002727D01*
X86318385Y-38073206D01*
X86326794Y-38104589D01*
X86326794Y-38104590D01*
X86379518Y-38195910D01*
X86379520Y-38195913D01*
X86454087Y-38270480D01*
X86545413Y-38323207D01*
X86647273Y-38350500D01*
X86647275Y-38350500D01*
X86752725Y-38350500D01*
X86752727Y-38350500D01*
X86854587Y-38323207D01*
X86945913Y-38270480D01*
X87020480Y-38195913D01*
X87073207Y-38104587D01*
X87100500Y-38002727D01*
X87100500Y-37897273D01*
X87073207Y-37795413D01*
X87048562Y-37752727D01*
X87020479Y-37704085D01*
X87019490Y-37703096D01*
X87019035Y-37702203D01*
X87016529Y-37698937D01*
X87017134Y-37698472D01*
X86991717Y-37648577D01*
X86990500Y-37633099D01*
X86990500Y-33839500D01*
X87009407Y-33781309D01*
X87058907Y-33745345D01*
X87089500Y-33740500D01*
X87238243Y-33740500D01*
X87238245Y-33740500D01*
X87312129Y-33720703D01*
X87312131Y-33720701D01*
X87312133Y-33720701D01*
X87378366Y-33682461D01*
X87378366Y-33682460D01*
X87378371Y-33682458D01*
X87432458Y-33628371D01*
X87470703Y-33562129D01*
X87490500Y-33488245D01*
X87490500Y-33429741D01*
X87509407Y-33371550D01*
X87558907Y-33335586D01*
X87563848Y-33334122D01*
X87604587Y-33323207D01*
X87695913Y-33270480D01*
X87770480Y-33195913D01*
X87823207Y-33104587D01*
X87850500Y-33002727D01*
X87850500Y-32897273D01*
X87823207Y-32795413D01*
X87809475Y-32771629D01*
X87770481Y-32704089D01*
X87770480Y-32704087D01*
X87725894Y-32659501D01*
X87698119Y-32604987D01*
X87707690Y-32544555D01*
X87750955Y-32501290D01*
X87795900Y-32490500D01*
X89488243Y-32490500D01*
X89488245Y-32490500D01*
X89562129Y-32470703D01*
X89562131Y-32470701D01*
X89562133Y-32470701D01*
X89628366Y-32432461D01*
X89628366Y-32432460D01*
X89628371Y-32432458D01*
X89682458Y-32378371D01*
X89720703Y-32312129D01*
X89725229Y-32295233D01*
X89758552Y-32243920D01*
X89795232Y-32225230D01*
X89812129Y-32220703D01*
X89878371Y-32182458D01*
X89932458Y-32128371D01*
X89970703Y-32062129D01*
X89970704Y-32062123D01*
X89973185Y-32056137D01*
X89974821Y-32056814D01*
X90003556Y-32012564D01*
X90060677Y-31990636D01*
X90065861Y-31990500D01*
X91738243Y-31990500D01*
X91738245Y-31990500D01*
X91812129Y-31970703D01*
X91812131Y-31970701D01*
X91812133Y-31970701D01*
X91878366Y-31932461D01*
X91878366Y-31932460D01*
X91878371Y-31932458D01*
X91932458Y-31878371D01*
X91970703Y-31812129D01*
X91990500Y-31738245D01*
X91990500Y-30891197D01*
X92009407Y-30833006D01*
X92058907Y-30797042D01*
X92120093Y-30797042D01*
X92169593Y-30833006D01*
X92180962Y-30853308D01*
X92199174Y-30897274D01*
X92237677Y-30990229D01*
X92237681Y-30990238D01*
X92298268Y-31080911D01*
X92341698Y-31145908D01*
X92474092Y-31278302D01*
X92540463Y-31322649D01*
X92629761Y-31382318D01*
X92629767Y-31382320D01*
X92629769Y-31382322D01*
X92802749Y-31453973D01*
X92986384Y-31490500D01*
X92986385Y-31490500D01*
X93173615Y-31490500D01*
X93173616Y-31490500D01*
X93357251Y-31453973D01*
X93530231Y-31382322D01*
X93530234Y-31382319D01*
X93530238Y-31382318D01*
X93577856Y-31350500D01*
X93685908Y-31278302D01*
X93818302Y-31145908D01*
X93892282Y-31035187D01*
X93922318Y-30990238D01*
X93922319Y-30990234D01*
X93922322Y-30990231D01*
X93993973Y-30817251D01*
X94030500Y-30633616D01*
X94030500Y-30446384D01*
X94030499Y-30446381D01*
X94669500Y-30446381D01*
X94669500Y-30633618D01*
X94706026Y-30817249D01*
X94777677Y-30990229D01*
X94777681Y-30990238D01*
X94838268Y-31080911D01*
X94881698Y-31145908D01*
X95014092Y-31278302D01*
X95080463Y-31322649D01*
X95169761Y-31382318D01*
X95169767Y-31382320D01*
X95169769Y-31382322D01*
X95342749Y-31453973D01*
X95526384Y-31490500D01*
X95526385Y-31490500D01*
X95713615Y-31490500D01*
X95713616Y-31490500D01*
X95897251Y-31453973D01*
X96070231Y-31382322D01*
X96070234Y-31382319D01*
X96070238Y-31382318D01*
X96117856Y-31350500D01*
X96225908Y-31278302D01*
X96358302Y-31145908D01*
X96432282Y-31035187D01*
X96462318Y-30990238D01*
X96462319Y-30990234D01*
X96462322Y-30990231D01*
X96533973Y-30817251D01*
X96570500Y-30633616D01*
X96570500Y-30446384D01*
X96533973Y-30262749D01*
X96462322Y-30089769D01*
X96462320Y-30089767D01*
X96462318Y-30089761D01*
X96394486Y-29988245D01*
X96358302Y-29934092D01*
X96225908Y-29801698D01*
X96173829Y-29766900D01*
X96070238Y-29697681D01*
X96070229Y-29697677D01*
X95897249Y-29626026D01*
X95713618Y-29589500D01*
X95713616Y-29589500D01*
X95526384Y-29589500D01*
X95526381Y-29589500D01*
X95342750Y-29626026D01*
X95169770Y-29697677D01*
X95169761Y-29697681D01*
X95014092Y-29801698D01*
X95014088Y-29801701D01*
X94881701Y-29934088D01*
X94881698Y-29934092D01*
X94777681Y-30089761D01*
X94777677Y-30089770D01*
X94706026Y-30262750D01*
X94669500Y-30446381D01*
X94030499Y-30446381D01*
X93993973Y-30262749D01*
X93922322Y-30089769D01*
X93922320Y-30089767D01*
X93922318Y-30089761D01*
X93854486Y-29988245D01*
X93818302Y-29934092D01*
X93685908Y-29801698D01*
X93633829Y-29766900D01*
X93530238Y-29697681D01*
X93530229Y-29697677D01*
X93357249Y-29626026D01*
X93173618Y-29589500D01*
X93173616Y-29589500D01*
X92986384Y-29589500D01*
X92986381Y-29589500D01*
X92802750Y-29626026D01*
X92629770Y-29697677D01*
X92629761Y-29697681D01*
X92474092Y-29801698D01*
X92474088Y-29801701D01*
X92341701Y-29934088D01*
X92341698Y-29934092D01*
X92237681Y-30089761D01*
X92237677Y-30089770D01*
X92180964Y-30226688D01*
X92141227Y-30273213D01*
X92081732Y-30287497D01*
X92025205Y-30264082D01*
X91993235Y-30211913D01*
X91990500Y-30188802D01*
X91990500Y-28351197D01*
X92009407Y-28293006D01*
X92058907Y-28257042D01*
X92120093Y-28257042D01*
X92169593Y-28293006D01*
X92180962Y-28313308D01*
X92194495Y-28345979D01*
X92237677Y-28450229D01*
X92237681Y-28450238D01*
X92298664Y-28541503D01*
X92341698Y-28605908D01*
X92474092Y-28738302D01*
X92540463Y-28782649D01*
X92629761Y-28842318D01*
X92629767Y-28842320D01*
X92629769Y-28842322D01*
X92802749Y-28913973D01*
X92986384Y-28950500D01*
X92986385Y-28950500D01*
X93173615Y-28950500D01*
X93173616Y-28950500D01*
X93357251Y-28913973D01*
X93530231Y-28842322D01*
X93530234Y-28842319D01*
X93530238Y-28842318D01*
X93600435Y-28795413D01*
X93685908Y-28738302D01*
X93818302Y-28605908D01*
X93920730Y-28452614D01*
X93922318Y-28450238D01*
X93922319Y-28450234D01*
X93922322Y-28450231D01*
X93993973Y-28277251D01*
X94030500Y-28093616D01*
X94030500Y-27906384D01*
X94030499Y-27906381D01*
X94669500Y-27906381D01*
X94669500Y-28093618D01*
X94706026Y-28277249D01*
X94777677Y-28450229D01*
X94777681Y-28450238D01*
X94838664Y-28541503D01*
X94881698Y-28605908D01*
X95014092Y-28738302D01*
X95080463Y-28782649D01*
X95169761Y-28842318D01*
X95169767Y-28842320D01*
X95169769Y-28842322D01*
X95342749Y-28913973D01*
X95526384Y-28950500D01*
X95526385Y-28950500D01*
X95713615Y-28950500D01*
X95713616Y-28950500D01*
X95897251Y-28913973D01*
X96070231Y-28842322D01*
X96070234Y-28842319D01*
X96070238Y-28842318D01*
X96140435Y-28795413D01*
X96225908Y-28738302D01*
X96358302Y-28605908D01*
X96460730Y-28452614D01*
X96462318Y-28450238D01*
X96462319Y-28450234D01*
X96462322Y-28450231D01*
X96533973Y-28277251D01*
X96570500Y-28093616D01*
X96570500Y-27906384D01*
X96533973Y-27722749D01*
X96462322Y-27549769D01*
X96462320Y-27549767D01*
X96462318Y-27549761D01*
X96402649Y-27460463D01*
X96358302Y-27394092D01*
X96225908Y-27261698D01*
X96181559Y-27232065D01*
X96070238Y-27157681D01*
X96070229Y-27157677D01*
X95897249Y-27086026D01*
X95713618Y-27049500D01*
X95713616Y-27049500D01*
X95526384Y-27049500D01*
X95526381Y-27049500D01*
X95342750Y-27086026D01*
X95169770Y-27157677D01*
X95169761Y-27157681D01*
X95014092Y-27261698D01*
X95014088Y-27261701D01*
X94881701Y-27394088D01*
X94881698Y-27394092D01*
X94777681Y-27549761D01*
X94777677Y-27549770D01*
X94706026Y-27722750D01*
X94669500Y-27906381D01*
X94030499Y-27906381D01*
X93993973Y-27722749D01*
X93922322Y-27549769D01*
X93922320Y-27549767D01*
X93922318Y-27549761D01*
X93862649Y-27460463D01*
X93818302Y-27394092D01*
X93685908Y-27261698D01*
X93641559Y-27232065D01*
X93530238Y-27157681D01*
X93530229Y-27157677D01*
X93357249Y-27086026D01*
X93173618Y-27049500D01*
X93173616Y-27049500D01*
X92986384Y-27049500D01*
X92986381Y-27049500D01*
X92802750Y-27086026D01*
X92629770Y-27157677D01*
X92629761Y-27157681D01*
X92474092Y-27261698D01*
X92474088Y-27261701D01*
X92341701Y-27394088D01*
X92341698Y-27394092D01*
X92237681Y-27549761D01*
X92237677Y-27549770D01*
X92217540Y-27598386D01*
X92177803Y-27644911D01*
X92126076Y-27659500D01*
X91738245Y-27659500D01*
X91661755Y-27659500D01*
X91616534Y-27671616D01*
X91587866Y-27679298D01*
X91563049Y-27693626D01*
X91503200Y-27706345D01*
X91447306Y-27681457D01*
X91422088Y-27645773D01*
X91382324Y-27549773D01*
X91382318Y-27549761D01*
X91322649Y-27460463D01*
X91278302Y-27394092D01*
X91145908Y-27261698D01*
X91101559Y-27232065D01*
X90990238Y-27157681D01*
X90990229Y-27157677D01*
X90817249Y-27086026D01*
X90633618Y-27049500D01*
X90633616Y-27049500D01*
X90446384Y-27049500D01*
X90446381Y-27049500D01*
X90262750Y-27086026D01*
X90089770Y-27157677D01*
X90089761Y-27157681D01*
X89934092Y-27261698D01*
X89934088Y-27261701D01*
X89801701Y-27394088D01*
X89801698Y-27394092D01*
X89697681Y-27549761D01*
X89697677Y-27549770D01*
X89677540Y-27598386D01*
X89637803Y-27644911D01*
X89586076Y-27659500D01*
X89238245Y-27659500D01*
X89161755Y-27659500D01*
X89116534Y-27671616D01*
X89087866Y-27679298D01*
X89021633Y-27717538D01*
X88967538Y-27771633D01*
X88929298Y-27837866D01*
X88929297Y-27837871D01*
X88911403Y-27904655D01*
X88909500Y-27911756D01*
X88909500Y-29866282D01*
X88890593Y-29924473D01*
X88841093Y-29960437D01*
X88779907Y-29960437D01*
X88740496Y-29936286D01*
X88605911Y-29801701D01*
X88605908Y-29801698D01*
X88553829Y-29766900D01*
X88450238Y-29697681D01*
X88450229Y-29697677D01*
X88277249Y-29626026D01*
X88093618Y-29589500D01*
X88093616Y-29589500D01*
X87906384Y-29589500D01*
X87906381Y-29589500D01*
X87722750Y-29626026D01*
X87549770Y-29697677D01*
X87549761Y-29697681D01*
X87394092Y-29801698D01*
X87394088Y-29801701D01*
X87261701Y-29934088D01*
X87261698Y-29934092D01*
X87157678Y-30089768D01*
X87156657Y-30092234D01*
X87154109Y-30098385D01*
X87114374Y-30144910D01*
X87062645Y-30159500D01*
X73238245Y-30159500D01*
X73161755Y-30159500D01*
X73116534Y-30171616D01*
X73087866Y-30179298D01*
X73021633Y-30217538D01*
X72967538Y-30271633D01*
X72929298Y-30337866D01*
X72928136Y-30342204D01*
X72911403Y-30404655D01*
X72909500Y-30411756D01*
X72909500Y-40633099D01*
X72890593Y-40691290D01*
X72880510Y-40703096D01*
X72879520Y-40704085D01*
X72826794Y-40795409D01*
X72826794Y-40795410D01*
X72826793Y-40795412D01*
X72826793Y-40795413D01*
X72799500Y-40897273D01*
X72799500Y-41002727D01*
X72822314Y-41087871D01*
X72826794Y-41104589D01*
X72826794Y-41104590D01*
X72869927Y-41179298D01*
X72879520Y-41195913D01*
X72924105Y-41240498D01*
X72951881Y-41295013D01*
X72942310Y-41355445D01*
X72899045Y-41398710D01*
X72854100Y-41409500D01*
X66565861Y-41409500D01*
X66507670Y-41390593D01*
X66473595Y-41343693D01*
X66473185Y-41343863D01*
X66472477Y-41342154D01*
X66471706Y-41341093D01*
X66470874Y-41338284D01*
X66470701Y-41337867D01*
X66432461Y-41271633D01*
X66432459Y-41271631D01*
X66432458Y-41271629D01*
X66378371Y-41217542D01*
X66378368Y-41217540D01*
X66378366Y-41217538D01*
X66312132Y-41179298D01*
X66312128Y-41179296D01*
X66295232Y-41174769D01*
X66243918Y-41141445D01*
X66225230Y-41104767D01*
X66220703Y-41087871D01*
X66220701Y-41087868D01*
X66220701Y-41087866D01*
X66182461Y-41021633D01*
X66182459Y-41021631D01*
X66182458Y-41021629D01*
X66128371Y-40967542D01*
X66128368Y-40967540D01*
X66099999Y-40951161D01*
X66059059Y-40905691D01*
X66050500Y-40865425D01*
X66050500Y-39130253D01*
X66050498Y-39130241D01*
X66044582Y-39100500D01*
X66038867Y-39071769D01*
X65994552Y-39005448D01*
X65984757Y-38998903D01*
X65928233Y-38961134D01*
X65928231Y-38961133D01*
X65928228Y-38961132D01*
X65928227Y-38961132D01*
X65869758Y-38949501D01*
X65869748Y-38949500D01*
X64130252Y-38949500D01*
X64130251Y-38949500D01*
X64130241Y-38949501D01*
X64071772Y-38961132D01*
X64071766Y-38961134D01*
X64005451Y-39005445D01*
X64005445Y-39005451D01*
X63961134Y-39071766D01*
X63961132Y-39071772D01*
X63949501Y-39130241D01*
X63949500Y-39130253D01*
X63949500Y-40810500D01*
X63930593Y-40868691D01*
X63881093Y-40904655D01*
X63850500Y-40909500D01*
X63089500Y-40909500D01*
X63031309Y-40890593D01*
X62995345Y-40841093D01*
X62990500Y-40810500D01*
X62990500Y-39073631D01*
X62999192Y-39046878D01*
X63006471Y-39019712D01*
X63008571Y-39018010D01*
X63009407Y-39015440D01*
X63032168Y-38998903D01*
X63054021Y-38981207D01*
X63056719Y-38981065D01*
X63058907Y-38979476D01*
X63115119Y-38978004D01*
X63153007Y-38988156D01*
X63197382Y-39013775D01*
X63204087Y-39020480D01*
X63295413Y-39073207D01*
X63397273Y-39100500D01*
X63397275Y-39100500D01*
X63502725Y-39100500D01*
X63502727Y-39100500D01*
X63604587Y-39073207D01*
X63695913Y-39020480D01*
X63770480Y-38945913D01*
X63823207Y-38854587D01*
X63850500Y-38752727D01*
X63850500Y-38647273D01*
X63823207Y-38545413D01*
X63770480Y-38454087D01*
X63695913Y-38379520D01*
X63695910Y-38379518D01*
X63604590Y-38326794D01*
X63604587Y-38326793D01*
X63563875Y-38315884D01*
X63512562Y-38282560D01*
X63490636Y-38225439D01*
X63490500Y-38220258D01*
X63490500Y-33661756D01*
X63490500Y-33661755D01*
X63470703Y-33587871D01*
X63470701Y-33587868D01*
X63470701Y-33587866D01*
X63432461Y-33521633D01*
X63432459Y-33521631D01*
X63432458Y-33521629D01*
X63378371Y-33467542D01*
X63378368Y-33467540D01*
X63378366Y-33467538D01*
X63312132Y-33429298D01*
X63312134Y-33429298D01*
X63283465Y-33421616D01*
X63238245Y-33409500D01*
X63238243Y-33409500D01*
X63089500Y-33409500D01*
X63031309Y-33390593D01*
X62995345Y-33341093D01*
X62990500Y-33310500D01*
X62990500Y-32323631D01*
X62999192Y-32296878D01*
X63006471Y-32269712D01*
X63008571Y-32268010D01*
X63009407Y-32265440D01*
X63032168Y-32248903D01*
X63054021Y-32231207D01*
X63056719Y-32231065D01*
X63058907Y-32229476D01*
X63115119Y-32228004D01*
X63153007Y-32238156D01*
X63197382Y-32263775D01*
X63204087Y-32270480D01*
X63295413Y-32323207D01*
X63397273Y-32350500D01*
X63397275Y-32350500D01*
X63502725Y-32350500D01*
X63502727Y-32350500D01*
X63604587Y-32323207D01*
X63695913Y-32270480D01*
X63770480Y-32195913D01*
X63823207Y-32104587D01*
X63850500Y-32002727D01*
X63850500Y-31897273D01*
X63823207Y-31795413D01*
X63770480Y-31704087D01*
X63695913Y-31629520D01*
X63695910Y-31629518D01*
X63604590Y-31576794D01*
X63604587Y-31576793D01*
X63563875Y-31565884D01*
X63512562Y-31532560D01*
X63490636Y-31475439D01*
X63490500Y-31470258D01*
X63490500Y-30661756D01*
X63487706Y-30651329D01*
X63470703Y-30587871D01*
X63470701Y-30587868D01*
X63470701Y-30587866D01*
X63432461Y-30521633D01*
X63432459Y-30521631D01*
X63432458Y-30521629D01*
X63378371Y-30467542D01*
X63378368Y-30467540D01*
X63378366Y-30467538D01*
X63312132Y-30429298D01*
X63312134Y-30429298D01*
X63283465Y-30421616D01*
X63238245Y-30409500D01*
X63238243Y-30409500D01*
X62839500Y-30409500D01*
X62824588Y-30404655D01*
X62808907Y-30404655D01*
X62796221Y-30395438D01*
X62781309Y-30390593D01*
X62772092Y-30377907D01*
X62759407Y-30368691D01*
X62754561Y-30353778D01*
X62745345Y-30341093D01*
X62740500Y-30310500D01*
X62740500Y-30147273D01*
X70549500Y-30147273D01*
X70549500Y-30252727D01*
X70576793Y-30354587D01*
X70576794Y-30354589D01*
X70576794Y-30354590D01*
X70619927Y-30429298D01*
X70629520Y-30445913D01*
X70704087Y-30520480D01*
X70795413Y-30573207D01*
X70897273Y-30600500D01*
X70897275Y-30600500D01*
X71002725Y-30600500D01*
X71002727Y-30600500D01*
X71104587Y-30573207D01*
X71195913Y-30520480D01*
X71270480Y-30445913D01*
X71323207Y-30354587D01*
X71350500Y-30252727D01*
X71350500Y-30147273D01*
X71323207Y-30045413D01*
X71315786Y-30032560D01*
X71270479Y-29954085D01*
X71269490Y-29953096D01*
X71269035Y-29952203D01*
X71266529Y-29948937D01*
X71267134Y-29948472D01*
X71241717Y-29898577D01*
X71240500Y-29883099D01*
X71240500Y-25839500D01*
X71259407Y-25781309D01*
X71308907Y-25745345D01*
X71339500Y-25740500D01*
X75738243Y-25740500D01*
X75738245Y-25740500D01*
X75812129Y-25720703D01*
X75812131Y-25720701D01*
X75812133Y-25720701D01*
X75878366Y-25682461D01*
X75878366Y-25682460D01*
X75878371Y-25682458D01*
X75932458Y-25628371D01*
X75970703Y-25562129D01*
X75990500Y-25488245D01*
X75990500Y-19207327D01*
X76009407Y-19149136D01*
X76057348Y-19114303D01*
X76057238Y-19114036D01*
X76058354Y-19113573D01*
X76058905Y-19113172D01*
X76058909Y-19113171D01*
X76058913Y-19113171D01*
X76060097Y-19112785D01*
X76060832Y-19112547D01*
X76229199Y-19026760D01*
X76382073Y-18915690D01*
X76515690Y-18782073D01*
X76626760Y-18629199D01*
X76712547Y-18460832D01*
X76770940Y-18281118D01*
X76770941Y-18281113D01*
X76800500Y-18094484D01*
X76800500Y-17905515D01*
X76770941Y-17718886D01*
X76770940Y-17718882D01*
X76712547Y-17539168D01*
X76626760Y-17370801D01*
X76515690Y-17217927D01*
X76382073Y-17084310D01*
X76229199Y-16973240D01*
X76229198Y-16973239D01*
X76229196Y-16973238D01*
X76060832Y-16887453D01*
X75881113Y-16829058D01*
X75694484Y-16799500D01*
X75694481Y-16799500D01*
X75505519Y-16799500D01*
X75505516Y-16799500D01*
X75318886Y-16829058D01*
X75139167Y-16887453D01*
X74970803Y-16973238D01*
X74817928Y-17084309D01*
X74684309Y-17217928D01*
X74573238Y-17370803D01*
X74487453Y-17539167D01*
X74429058Y-17718886D01*
X74399500Y-17905515D01*
X74399500Y-18094484D01*
X74429058Y-18281113D01*
X74487453Y-18460832D01*
X74558107Y-18599500D01*
X74573240Y-18629199D01*
X74684310Y-18782073D01*
X74817927Y-18915690D01*
X74970801Y-19026760D01*
X75139168Y-19112547D01*
X75318882Y-19170940D01*
X75325980Y-19172064D01*
X75380498Y-19199837D01*
X75408280Y-19254352D01*
X75409500Y-19269846D01*
X75409500Y-25060500D01*
X75390593Y-25118691D01*
X75341093Y-25154655D01*
X75310500Y-25159500D01*
X70988245Y-25159500D01*
X70911755Y-25159500D01*
X70866534Y-25171616D01*
X70837866Y-25179298D01*
X70771633Y-25217538D01*
X70717538Y-25271633D01*
X70679298Y-25337866D01*
X70659500Y-25411756D01*
X70659500Y-29883099D01*
X70640593Y-29941290D01*
X70630510Y-29953096D01*
X70629520Y-29954085D01*
X70576794Y-30045409D01*
X70576794Y-30045410D01*
X70576793Y-30045412D01*
X70576793Y-30045413D01*
X70549500Y-30147273D01*
X62740500Y-30147273D01*
X62740500Y-26766900D01*
X62759407Y-26708709D01*
X62769490Y-26696902D01*
X62770480Y-26695913D01*
X62823207Y-26604587D01*
X62850500Y-26502727D01*
X62850500Y-26397273D01*
X62823207Y-26295413D01*
X62770480Y-26204087D01*
X62695913Y-26129520D01*
X62693914Y-26128366D01*
X62604589Y-26076794D01*
X62604588Y-26076793D01*
X62604587Y-26076793D01*
X62502727Y-26049500D01*
X62397273Y-26049500D01*
X62295413Y-26076793D01*
X62295412Y-26076793D01*
X62295410Y-26076794D01*
X62295409Y-26076794D01*
X62204089Y-26129518D01*
X62129518Y-26204089D01*
X62076794Y-26295409D01*
X62076794Y-26295410D01*
X62076793Y-26295412D01*
X62076793Y-26295413D01*
X62049500Y-26397273D01*
X62049500Y-26502727D01*
X62076793Y-26604587D01*
X62076794Y-26604589D01*
X62076794Y-26604590D01*
X62116930Y-26674107D01*
X62129520Y-26695913D01*
X62130505Y-26696898D01*
X62130959Y-26697789D01*
X62133471Y-26701063D01*
X62132864Y-26701528D01*
X62158281Y-26751413D01*
X62159500Y-26766900D01*
X62159500Y-30661755D01*
X62159500Y-30738245D01*
X62165170Y-30759407D01*
X62171995Y-30784878D01*
X62168792Y-30845979D01*
X62130287Y-30893529D01*
X62076368Y-30909500D01*
X59295900Y-30909500D01*
X59237709Y-30890593D01*
X59201745Y-30841093D01*
X59201745Y-30779907D01*
X59225894Y-30740498D01*
X59270480Y-30695913D01*
X59323207Y-30604587D01*
X59350500Y-30502727D01*
X59350500Y-30397273D01*
X59323207Y-30295413D01*
X59309475Y-30271629D01*
X59270481Y-30204089D01*
X59270480Y-30204087D01*
X59195913Y-30129520D01*
X59193923Y-30128371D01*
X59104590Y-30076794D01*
X59104587Y-30076793D01*
X59063875Y-30065884D01*
X59012562Y-30032560D01*
X58990636Y-29975439D01*
X58990500Y-29970258D01*
X58990500Y-28411756D01*
X58990500Y-28411755D01*
X58970703Y-28337871D01*
X58970701Y-28337868D01*
X58970701Y-28337866D01*
X58932461Y-28271633D01*
X58932459Y-28271631D01*
X58932458Y-28271629D01*
X58878371Y-28217542D01*
X58878368Y-28217540D01*
X58878366Y-28217538D01*
X58812132Y-28179298D01*
X58812134Y-28179298D01*
X58783465Y-28171616D01*
X58738245Y-28159500D01*
X58738243Y-28159500D01*
X56679742Y-28159500D01*
X56621551Y-28140593D01*
X56585587Y-28091093D01*
X56584115Y-28086124D01*
X56573207Y-28045413D01*
X56520480Y-27954087D01*
X56445913Y-27879520D01*
X56354587Y-27826793D01*
X56252727Y-27799500D01*
X56147273Y-27799500D01*
X56045413Y-27826793D01*
X56045412Y-27826793D01*
X56045410Y-27826794D01*
X56045409Y-27826794D01*
X55954089Y-27879518D01*
X55879518Y-27954089D01*
X55826794Y-28045409D01*
X55826794Y-28045410D01*
X55826793Y-28045412D01*
X55826793Y-28045413D01*
X55799500Y-28147273D01*
X55799500Y-28252727D01*
X55826793Y-28354587D01*
X55826794Y-28354589D01*
X55826794Y-28354590D01*
X55874073Y-28436479D01*
X55879520Y-28445913D01*
X55886223Y-28452616D01*
X55911844Y-28496993D01*
X55918138Y-28520481D01*
X55929298Y-28562133D01*
X55967538Y-28628366D01*
X55967540Y-28628368D01*
X55967542Y-28628371D01*
X56021629Y-28682458D01*
X56021631Y-28682459D01*
X56021633Y-28682461D01*
X56087867Y-28720701D01*
X56087865Y-28720701D01*
X56087869Y-28720702D01*
X56087871Y-28720703D01*
X56161755Y-28740500D01*
X56238245Y-28740500D01*
X56326368Y-28740500D01*
X56384559Y-28759407D01*
X56420523Y-28808907D01*
X56421995Y-28865122D01*
X56409500Y-28911755D01*
X56409500Y-29133099D01*
X56390593Y-29191290D01*
X56380510Y-29203096D01*
X56379520Y-29204085D01*
X56326794Y-29295409D01*
X56326794Y-29295410D01*
X56326793Y-29295412D01*
X56326793Y-29295413D01*
X56299500Y-29397273D01*
X56299500Y-29502727D01*
X56326793Y-29604587D01*
X56326794Y-29604589D01*
X56326794Y-29604590D01*
X56358497Y-29659500D01*
X56379520Y-29695913D01*
X56454087Y-29770480D01*
X56545413Y-29823207D01*
X56647273Y-29850500D01*
X56647275Y-29850500D01*
X56752725Y-29850500D01*
X56752727Y-29850500D01*
X56854587Y-29823207D01*
X56945913Y-29770480D01*
X57020480Y-29695913D01*
X57073207Y-29604587D01*
X57100500Y-29502727D01*
X57100500Y-29397273D01*
X57091885Y-29365121D01*
X57093357Y-29337042D01*
X57093357Y-29308907D01*
X57094946Y-29306719D01*
X57095088Y-29304021D01*
X57112780Y-29282172D01*
X57129321Y-29259407D01*
X57131892Y-29258571D01*
X57133593Y-29256472D01*
X57187512Y-29240500D01*
X57212488Y-29240500D01*
X57270679Y-29259407D01*
X57306643Y-29308907D01*
X57308114Y-29365121D01*
X57299500Y-29397273D01*
X57299500Y-29502727D01*
X57326793Y-29604587D01*
X57326794Y-29604589D01*
X57326794Y-29604590D01*
X57358497Y-29659500D01*
X57379520Y-29695913D01*
X57380505Y-29696898D01*
X57380959Y-29697789D01*
X57383471Y-29701063D01*
X57382864Y-29701528D01*
X57408281Y-29751413D01*
X57409500Y-29766900D01*
X57409500Y-31661755D01*
X57409500Y-31738245D01*
X57413316Y-31752487D01*
X57421995Y-31784878D01*
X57418792Y-31845979D01*
X57380287Y-31893529D01*
X57326368Y-31909500D01*
X49839500Y-31909500D01*
X49781309Y-31890593D01*
X49745345Y-31841093D01*
X49740500Y-31810500D01*
X49740500Y-31045900D01*
X49759407Y-30987709D01*
X49808907Y-30951745D01*
X49870093Y-30951745D01*
X49909501Y-30975894D01*
X49954087Y-31020480D01*
X50045413Y-31073207D01*
X50147273Y-31100500D01*
X50147275Y-31100500D01*
X50252725Y-31100500D01*
X50252727Y-31100500D01*
X50354587Y-31073207D01*
X50445913Y-31020480D01*
X50520480Y-30945913D01*
X50573207Y-30854587D01*
X50584115Y-30813875D01*
X50617440Y-30762562D01*
X50674561Y-30740636D01*
X50679742Y-30740500D01*
X53738243Y-30740500D01*
X53738245Y-30740500D01*
X53812129Y-30720703D01*
X53812131Y-30720701D01*
X53812133Y-30720701D01*
X53878366Y-30682461D01*
X53878366Y-30682460D01*
X53878371Y-30682458D01*
X53932458Y-30628371D01*
X53946190Y-30604587D01*
X53970701Y-30562133D01*
X53970701Y-30562131D01*
X53970703Y-30562129D01*
X53990500Y-30488245D01*
X53990500Y-30339500D01*
X54009407Y-30281309D01*
X54058907Y-30245345D01*
X54089500Y-30240500D01*
X55238243Y-30240500D01*
X55238245Y-30240500D01*
X55312129Y-30220703D01*
X55312131Y-30220701D01*
X55312133Y-30220701D01*
X55378366Y-30182461D01*
X55378366Y-30182460D01*
X55378371Y-30182458D01*
X55432458Y-30128371D01*
X55453322Y-30092234D01*
X55470701Y-30062133D01*
X55470701Y-30062131D01*
X55470703Y-30062129D01*
X55490500Y-29988245D01*
X55490500Y-29937512D01*
X55509407Y-29879321D01*
X55558907Y-29843357D01*
X55615121Y-29841885D01*
X55647273Y-29850500D01*
X55647275Y-29850500D01*
X55752725Y-29850500D01*
X55752727Y-29850500D01*
X55854587Y-29823207D01*
X55945913Y-29770480D01*
X56020480Y-29695913D01*
X56073207Y-29604587D01*
X56100500Y-29502727D01*
X56100500Y-29397273D01*
X56073207Y-29295413D01*
X56065562Y-29282172D01*
X56020481Y-29204089D01*
X56020480Y-29204087D01*
X55945913Y-29129520D01*
X55854587Y-29076793D01*
X55752727Y-29049500D01*
X55647273Y-29049500D01*
X55545413Y-29076793D01*
X55545412Y-29076793D01*
X55545410Y-29076794D01*
X55545409Y-29076794D01*
X55454089Y-29129518D01*
X55454087Y-29129519D01*
X55454087Y-29129520D01*
X55453101Y-29130505D01*
X55452210Y-29130959D01*
X55448937Y-29133471D01*
X55448471Y-29132864D01*
X55398587Y-29158281D01*
X55383100Y-29159500D01*
X55238245Y-29159500D01*
X55161755Y-29159500D01*
X55099982Y-29176052D01*
X55087860Y-29179300D01*
X55083790Y-29180986D01*
X55022792Y-29185778D01*
X54987449Y-29169408D01*
X54981303Y-29164910D01*
X54945913Y-29129520D01*
X54884489Y-29094057D01*
X54880166Y-29090893D01*
X54865250Y-29070212D01*
X54848193Y-29051268D01*
X54847614Y-29045760D01*
X54844374Y-29041268D01*
X54844462Y-29015769D01*
X54841798Y-28990418D01*
X54844566Y-28985622D01*
X54844586Y-28980083D01*
X54859645Y-28959505D01*
X54872391Y-28937430D01*
X54878365Y-28932461D01*
X54878371Y-28932458D01*
X54932458Y-28878371D01*
X54953271Y-28842322D01*
X54970701Y-28812133D01*
X54970701Y-28812131D01*
X54970703Y-28812129D01*
X54990500Y-28738245D01*
X54990500Y-28687512D01*
X55009407Y-28629321D01*
X55058907Y-28593357D01*
X55115121Y-28591885D01*
X55147273Y-28600500D01*
X55147275Y-28600500D01*
X55252725Y-28600500D01*
X55252727Y-28600500D01*
X55354587Y-28573207D01*
X55445913Y-28520480D01*
X55520480Y-28445913D01*
X55573207Y-28354587D01*
X55600500Y-28252727D01*
X55600500Y-28147273D01*
X55573207Y-28045413D01*
X55520480Y-27954087D01*
X55445913Y-27879520D01*
X55354587Y-27826793D01*
X55252727Y-27799500D01*
X55147273Y-27799500D01*
X55045413Y-27826793D01*
X55045412Y-27826793D01*
X55045410Y-27826794D01*
X55045409Y-27826794D01*
X54954089Y-27879518D01*
X54954087Y-27879519D01*
X54954087Y-27879520D01*
X54953101Y-27880505D01*
X54952210Y-27880959D01*
X54948937Y-27883471D01*
X54948471Y-27882864D01*
X54898587Y-27908281D01*
X54883100Y-27909500D01*
X54738245Y-27909500D01*
X54661755Y-27909500D01*
X54633538Y-27917060D01*
X54615122Y-27921995D01*
X54587042Y-27920523D01*
X54558907Y-27920523D01*
X54556719Y-27918933D01*
X54554021Y-27918792D01*
X54532168Y-27901095D01*
X54509407Y-27884559D01*
X54508571Y-27881988D01*
X54506471Y-27880287D01*
X54490500Y-27826368D01*
X54490500Y-27766900D01*
X54509407Y-27708709D01*
X54519490Y-27696902D01*
X54520480Y-27695913D01*
X54573207Y-27604587D01*
X54600500Y-27502727D01*
X54600500Y-27397273D01*
X54573207Y-27295413D01*
X54553743Y-27261701D01*
X54520479Y-27204085D01*
X54519490Y-27203096D01*
X54519035Y-27202203D01*
X54516529Y-27198937D01*
X54517134Y-27198472D01*
X54491717Y-27148577D01*
X54490500Y-27133099D01*
X54490500Y-26339500D01*
X54509407Y-26281309D01*
X54558907Y-26245345D01*
X54589500Y-26240500D01*
X59238243Y-26240500D01*
X59238245Y-26240500D01*
X59312129Y-26220703D01*
X59312131Y-26220701D01*
X59312133Y-26220701D01*
X59378366Y-26182461D01*
X59378366Y-26182460D01*
X59378371Y-26182458D01*
X59432458Y-26128371D01*
X59470703Y-26062129D01*
X59490500Y-25988245D01*
X59490500Y-16980253D01*
X66799500Y-16980253D01*
X66799500Y-19019746D01*
X66799501Y-19019758D01*
X66811132Y-19078227D01*
X66811134Y-19078233D01*
X66855445Y-19144548D01*
X66855448Y-19144552D01*
X66921769Y-19188867D01*
X66966231Y-19197711D01*
X66980241Y-19200498D01*
X66980246Y-19200498D01*
X66980252Y-19200500D01*
X66980253Y-19200500D01*
X69019747Y-19200500D01*
X69019748Y-19200500D01*
X69078231Y-19188867D01*
X69144552Y-19144552D01*
X69188867Y-19078231D01*
X69200500Y-19019748D01*
X69200500Y-16980252D01*
X69188867Y-16921769D01*
X69144552Y-16855448D01*
X69144548Y-16855445D01*
X69078233Y-16811134D01*
X69078231Y-16811133D01*
X69078228Y-16811132D01*
X69078227Y-16811132D01*
X69019758Y-16799501D01*
X69019748Y-16799500D01*
X66980252Y-16799500D01*
X66980251Y-16799500D01*
X66980241Y-16799501D01*
X66921772Y-16811132D01*
X66921766Y-16811134D01*
X66855451Y-16855445D01*
X66855445Y-16855451D01*
X66811134Y-16921766D01*
X66811132Y-16921772D01*
X66799501Y-16980241D01*
X66799500Y-16980253D01*
X59490500Y-16980253D01*
X59490500Y-13999999D01*
X84499999Y-13999999D01*
X84500000Y-13999999D01*
X84500000Y-14000000D01*
X98825000Y-14025000D01*
X98850000Y-7400000D01*
X84525000Y-7375000D01*
X84524999Y-7375000D01*
X84499999Y-13999999D01*
X59490500Y-13999999D01*
X59490500Y-13614175D01*
X59509407Y-13555984D01*
X59558907Y-13520020D01*
X59620093Y-13520020D01*
X59627377Y-13522707D01*
X59693580Y-13550130D01*
X59896535Y-13590500D01*
X59896536Y-13590500D01*
X60103464Y-13590500D01*
X60103465Y-13590500D01*
X60306420Y-13550130D01*
X60497598Y-13470941D01*
X60669655Y-13355977D01*
X60815977Y-13209655D01*
X60930941Y-13037598D01*
X61010130Y-12846420D01*
X61050500Y-12643465D01*
X61050500Y-12436535D01*
X61010130Y-12233580D01*
X60930941Y-12042402D01*
X60815977Y-11870345D01*
X60669655Y-11724023D01*
X60669651Y-11724020D01*
X60497597Y-11609058D01*
X60306418Y-11529869D01*
X60267439Y-11522116D01*
X60252268Y-11519098D01*
X60198885Y-11489202D01*
X60173269Y-11433637D01*
X60185206Y-11373628D01*
X60185807Y-11372570D01*
X60220703Y-11312129D01*
X60240500Y-11238245D01*
X60240500Y-11149500D01*
X60259407Y-11091309D01*
X60308907Y-11055345D01*
X60339500Y-11050500D01*
X60869747Y-11050500D01*
X60869748Y-11050500D01*
X60928231Y-11038867D01*
X60994552Y-10994552D01*
X61038867Y-10928231D01*
X61050500Y-10869748D01*
X61050500Y-9885265D01*
X78249500Y-9885265D01*
X78249500Y-10114734D01*
X78279452Y-10342238D01*
X78338841Y-10563885D01*
X78426653Y-10775883D01*
X78541388Y-10974611D01*
X78601329Y-11052727D01*
X78681081Y-11156661D01*
X78843339Y-11318919D01*
X79025388Y-11458611D01*
X79224112Y-11573344D01*
X79224113Y-11573344D01*
X79224116Y-11573346D01*
X79310333Y-11609058D01*
X79436113Y-11661158D01*
X79657762Y-11720548D01*
X79885266Y-11750500D01*
X79885267Y-11750500D01*
X80114733Y-11750500D01*
X80114734Y-11750500D01*
X80342238Y-11720548D01*
X80563887Y-11661158D01*
X80775888Y-11573344D01*
X80974612Y-11458611D01*
X81156661Y-11318919D01*
X81318919Y-11156661D01*
X81458611Y-10974612D01*
X81573344Y-10775888D01*
X81661158Y-10563887D01*
X81720548Y-10342238D01*
X81750500Y-10114734D01*
X81750500Y-9885266D01*
X81720548Y-9657762D01*
X81661158Y-9436113D01*
X81573344Y-9224112D01*
X81458611Y-9025388D01*
X81318919Y-8843339D01*
X81156661Y-8681081D01*
X80974612Y-8541389D01*
X80974613Y-8541389D01*
X80974611Y-8541388D01*
X80775883Y-8426653D01*
X80563885Y-8338841D01*
X80342238Y-8279452D01*
X80114734Y-8249500D01*
X79885266Y-8249500D01*
X79885265Y-8249500D01*
X79657761Y-8279452D01*
X79436114Y-8338841D01*
X79224116Y-8426653D01*
X79025388Y-8541388D01*
X78843342Y-8681078D01*
X78681078Y-8843342D01*
X78541388Y-9025388D01*
X78426653Y-9224116D01*
X78338841Y-9436114D01*
X78279452Y-9657761D01*
X78249500Y-9885265D01*
X61050500Y-9885265D01*
X61050500Y-9130252D01*
X61038867Y-9071769D01*
X60994552Y-9005448D01*
X60994548Y-9005445D01*
X60928233Y-8961134D01*
X60928231Y-8961133D01*
X60928228Y-8961132D01*
X60928227Y-8961132D01*
X60869758Y-8949501D01*
X60869748Y-8949500D01*
X59130252Y-8949500D01*
X59130251Y-8949500D01*
X59130241Y-8949501D01*
X59071772Y-8961132D01*
X59071766Y-8961134D01*
X59005451Y-9005445D01*
X59005445Y-9005451D01*
X58961134Y-9071766D01*
X58961132Y-9071772D01*
X58949501Y-9130241D01*
X58949500Y-9130253D01*
X58949500Y-10823420D01*
X58930593Y-10881611D01*
X58881093Y-10917575D01*
X58876125Y-10919046D01*
X58837870Y-10929297D01*
X58837867Y-10929298D01*
X58771633Y-10967538D01*
X58717538Y-11021633D01*
X58679298Y-11087867D01*
X58679297Y-11087870D01*
X58674769Y-11104768D01*
X58641444Y-11156082D01*
X58604768Y-11174769D01*
X58587870Y-11179297D01*
X58587867Y-11179298D01*
X58521633Y-11217538D01*
X58467538Y-11271633D01*
X58429298Y-11337866D01*
X58409500Y-11411756D01*
X58409500Y-20560500D01*
X58390593Y-20618691D01*
X58341093Y-20654655D01*
X58310500Y-20659500D01*
X52238245Y-20659500D01*
X52161755Y-20659500D01*
X52116534Y-20671616D01*
X52087866Y-20679298D01*
X52021633Y-20717538D01*
X51967538Y-20771633D01*
X51929298Y-20837866D01*
X51909500Y-20911756D01*
X51909500Y-27810500D01*
X51890593Y-27868691D01*
X51841093Y-27904655D01*
X51810500Y-27909500D01*
X49766900Y-27909500D01*
X49708709Y-27890593D01*
X49696902Y-27880509D01*
X49695913Y-27879520D01*
X49604587Y-27826793D01*
X49502727Y-27799500D01*
X49397273Y-27799500D01*
X49295413Y-27826793D01*
X49295412Y-27826793D01*
X49295410Y-27826794D01*
X49295409Y-27826794D01*
X49204089Y-27879518D01*
X49129518Y-27954089D01*
X49076794Y-28045409D01*
X49076794Y-28045410D01*
X49076793Y-28045412D01*
X49076793Y-28045413D01*
X49049500Y-28147273D01*
X49049500Y-28252727D01*
X49076793Y-28354587D01*
X49076794Y-28354589D01*
X49076794Y-28354590D01*
X49124073Y-28436479D01*
X49129520Y-28445913D01*
X49130505Y-28446898D01*
X49130959Y-28447789D01*
X49133471Y-28451063D01*
X49132864Y-28451528D01*
X49158281Y-28501413D01*
X49159500Y-28516900D01*
X49159500Y-31810500D01*
X49140593Y-31868691D01*
X49091093Y-31904655D01*
X49060500Y-31909500D01*
X48988245Y-31909500D01*
X48911755Y-31909500D01*
X48866534Y-31921616D01*
X48837866Y-31929298D01*
X48771633Y-31967538D01*
X48717538Y-32021633D01*
X48676052Y-32093490D01*
X48673825Y-32092204D01*
X48641227Y-32130371D01*
X48581733Y-32144655D01*
X48525205Y-32121240D01*
X48493235Y-32069071D01*
X48490500Y-32045960D01*
X48490500Y-25516900D01*
X48509407Y-25458709D01*
X48519490Y-25446902D01*
X48520480Y-25445913D01*
X48573207Y-25354587D01*
X48600500Y-25252727D01*
X48600500Y-25147273D01*
X48573207Y-25045413D01*
X48520480Y-24954087D01*
X48445913Y-24879520D01*
X48401884Y-24854100D01*
X48354589Y-24826794D01*
X48354588Y-24826793D01*
X48354587Y-24826793D01*
X48252727Y-24799500D01*
X48147273Y-24799500D01*
X48045413Y-24826793D01*
X48045412Y-24826793D01*
X48045410Y-24826794D01*
X48045409Y-24826794D01*
X47954089Y-24879518D01*
X47954087Y-24879519D01*
X47954087Y-24879520D01*
X47909501Y-24924105D01*
X47854987Y-24951881D01*
X47794555Y-24942310D01*
X47751290Y-24899045D01*
X47740500Y-24854100D01*
X47740500Y-24266900D01*
X47759407Y-24208709D01*
X47769490Y-24196902D01*
X47770480Y-24195913D01*
X47823207Y-24104587D01*
X47850500Y-24002727D01*
X47850500Y-23897273D01*
X47823207Y-23795413D01*
X47770480Y-23704087D01*
X47695913Y-23629520D01*
X47604587Y-23576793D01*
X47502727Y-23549500D01*
X47397273Y-23549500D01*
X47295413Y-23576793D01*
X47295412Y-23576793D01*
X47295410Y-23576794D01*
X47295409Y-23576794D01*
X47204089Y-23629518D01*
X47129518Y-23704089D01*
X47076794Y-23795409D01*
X47076794Y-23795410D01*
X47076793Y-23795412D01*
X47076793Y-23795413D01*
X47049500Y-23897273D01*
X47049500Y-24002727D01*
X47076793Y-24104587D01*
X47076794Y-24104589D01*
X47076794Y-24104590D01*
X47129518Y-24195910D01*
X47129520Y-24195913D01*
X47130505Y-24196898D01*
X47130959Y-24197789D01*
X47133471Y-24201063D01*
X47132864Y-24201528D01*
X47158281Y-24251413D01*
X47159500Y-24266900D01*
X47159500Y-30462488D01*
X47140593Y-30520679D01*
X47091093Y-30556643D01*
X47034878Y-30558114D01*
X47002727Y-30549500D01*
X46897273Y-30549500D01*
X46795413Y-30576793D01*
X46795412Y-30576793D01*
X46795410Y-30576794D01*
X46795409Y-30576794D01*
X46704089Y-30629518D01*
X46629518Y-30704089D01*
X46576794Y-30795409D01*
X46576794Y-30795410D01*
X46576793Y-30795412D01*
X46576793Y-30795413D01*
X46549500Y-30897273D01*
X46549500Y-31002727D01*
X46576793Y-31104587D01*
X46576794Y-31104589D01*
X46576794Y-31104590D01*
X46621753Y-31182461D01*
X46629520Y-31195913D01*
X46704087Y-31270480D01*
X46795413Y-31323207D01*
X46897273Y-31350500D01*
X46897275Y-31350500D01*
X47002725Y-31350500D01*
X47002727Y-31350500D01*
X47104587Y-31323207D01*
X47195913Y-31270480D01*
X47196898Y-31269494D01*
X47197789Y-31269040D01*
X47201063Y-31266529D01*
X47201528Y-31267135D01*
X47251413Y-31241719D01*
X47266900Y-31240500D01*
X47488243Y-31240500D01*
X47488245Y-31240500D01*
X47562129Y-31220703D01*
X47562131Y-31220701D01*
X47562133Y-31220701D01*
X47628366Y-31182461D01*
X47628366Y-31182460D01*
X47628371Y-31182458D01*
X47682458Y-31128371D01*
X47696190Y-31104587D01*
X47723948Y-31056510D01*
X47726177Y-31057797D01*
X47758757Y-31019637D01*
X47818250Y-31005343D01*
X47874782Y-31028747D01*
X47906760Y-31080911D01*
X47909500Y-31104039D01*
X47909500Y-32310500D01*
X47890593Y-32368691D01*
X47841093Y-32404655D01*
X47810500Y-32409500D01*
X46238245Y-32409500D01*
X46161755Y-32409500D01*
X46116534Y-32421616D01*
X46087866Y-32429298D01*
X46021633Y-32467538D01*
X45967538Y-32521633D01*
X45929298Y-32587866D01*
X45909500Y-32661756D01*
X45909500Y-35633099D01*
X45890593Y-35691290D01*
X45880510Y-35703096D01*
X45879520Y-35704085D01*
X45826794Y-35795409D01*
X45826794Y-35795410D01*
X45826793Y-35795412D01*
X45826793Y-35795413D01*
X45799500Y-35897273D01*
X45799500Y-36002727D01*
X45804565Y-36021629D01*
X45826794Y-36104589D01*
X45826794Y-36104590D01*
X45859799Y-36161756D01*
X45879520Y-36195913D01*
X45924105Y-36240498D01*
X45951881Y-36295013D01*
X45942310Y-36355445D01*
X45899045Y-36398710D01*
X45854100Y-36409500D01*
X11238245Y-36409500D01*
X11161755Y-36409500D01*
X11116534Y-36421616D01*
X11087866Y-36429298D01*
X11021633Y-36467538D01*
X10967538Y-36521633D01*
X10929298Y-36587866D01*
X10928221Y-36591885D01*
X10913381Y-36647273D01*
X10909500Y-36661756D01*
X10909500Y-38850500D01*
X10890593Y-38908691D01*
X10841093Y-38944655D01*
X10810500Y-38949500D01*
X9130252Y-38949500D01*
X9130251Y-38949500D01*
X9130241Y-38949501D01*
X9071772Y-38961132D01*
X9071766Y-38961134D01*
X9005451Y-39005445D01*
X9005445Y-39005451D01*
X8961134Y-39071766D01*
X8961132Y-39071772D01*
X8949501Y-39130241D01*
X8949500Y-39130253D01*
X5800000Y-39130253D01*
X5800000Y-26897273D01*
X43299500Y-26897273D01*
X43299500Y-27002727D01*
X43312033Y-27049500D01*
X43326794Y-27104589D01*
X43326794Y-27104590D01*
X43366930Y-27174107D01*
X43379520Y-27195913D01*
X43454087Y-27270480D01*
X43545413Y-27323207D01*
X43647273Y-27350500D01*
X43647275Y-27350500D01*
X43752725Y-27350500D01*
X43752727Y-27350500D01*
X43854587Y-27323207D01*
X43945913Y-27270480D01*
X44020480Y-27195913D01*
X44073207Y-27104587D01*
X44100500Y-27002727D01*
X44100500Y-26897273D01*
X44073207Y-26795413D01*
X44020480Y-26704087D01*
X44020479Y-26704085D01*
X44019490Y-26703096D01*
X44019035Y-26702203D01*
X44016529Y-26698937D01*
X44017134Y-26698472D01*
X43991717Y-26648577D01*
X43990500Y-26633099D01*
X43990500Y-18389500D01*
X44009407Y-18331309D01*
X44058907Y-18295345D01*
X44089500Y-18290500D01*
X47760181Y-18290500D01*
X47818372Y-18309407D01*
X47854334Y-18358904D01*
X47864276Y-18389500D01*
X47887452Y-18460830D01*
X47958107Y-18599500D01*
X47973240Y-18629199D01*
X48084310Y-18782073D01*
X48217927Y-18915690D01*
X48370801Y-19026760D01*
X48539168Y-19112547D01*
X48718882Y-19170940D01*
X48718883Y-19170940D01*
X48718886Y-19170941D01*
X48905516Y-19200500D01*
X48905519Y-19200500D01*
X49094484Y-19200500D01*
X49281113Y-19170941D01*
X49281114Y-19170940D01*
X49281118Y-19170940D01*
X49460832Y-19112547D01*
X49629199Y-19026760D01*
X49782073Y-18915690D01*
X49915690Y-18782073D01*
X50026760Y-18629199D01*
X50112547Y-18460832D01*
X50170940Y-18281118D01*
X50170941Y-18281113D01*
X50200500Y-18094484D01*
X50200500Y-17905515D01*
X54299500Y-17905515D01*
X54299500Y-18094484D01*
X54329058Y-18281113D01*
X54387453Y-18460832D01*
X54458107Y-18599500D01*
X54473240Y-18629199D01*
X54584310Y-18782073D01*
X54717927Y-18915690D01*
X54870801Y-19026760D01*
X55039168Y-19112547D01*
X55218882Y-19170940D01*
X55218883Y-19170940D01*
X55218886Y-19170941D01*
X55405516Y-19200500D01*
X55405519Y-19200500D01*
X55594484Y-19200500D01*
X55781113Y-19170941D01*
X55781114Y-19170940D01*
X55781118Y-19170940D01*
X55960832Y-19112547D01*
X56129199Y-19026760D01*
X56282073Y-18915690D01*
X56415690Y-18782073D01*
X56526760Y-18629199D01*
X56612547Y-18460832D01*
X56670940Y-18281118D01*
X56670941Y-18281113D01*
X56700500Y-18094484D01*
X56700500Y-17905515D01*
X56670941Y-17718886D01*
X56670940Y-17718882D01*
X56612547Y-17539168D01*
X56526760Y-17370801D01*
X56415690Y-17217927D01*
X56282073Y-17084310D01*
X56129199Y-16973240D01*
X56129198Y-16973239D01*
X56129196Y-16973238D01*
X55960832Y-16887453D01*
X55781113Y-16829058D01*
X55594484Y-16799500D01*
X55594481Y-16799500D01*
X55405519Y-16799500D01*
X55405516Y-16799500D01*
X55218886Y-16829058D01*
X55039167Y-16887453D01*
X54870803Y-16973238D01*
X54717928Y-17084309D01*
X54584309Y-17217928D01*
X54473238Y-17370803D01*
X54387453Y-17539167D01*
X54329058Y-17718886D01*
X54299500Y-17905515D01*
X50200500Y-17905515D01*
X50170941Y-17718886D01*
X50170940Y-17718882D01*
X50112547Y-17539168D01*
X50026760Y-17370801D01*
X49915690Y-17217927D01*
X49782073Y-17084310D01*
X49629199Y-16973240D01*
X49629198Y-16973239D01*
X49629196Y-16973238D01*
X49460832Y-16887453D01*
X49281113Y-16829058D01*
X49094484Y-16799500D01*
X49094481Y-16799500D01*
X48905519Y-16799500D01*
X48905516Y-16799500D01*
X48718886Y-16829058D01*
X48539167Y-16887453D01*
X48370803Y-16973238D01*
X48217928Y-17084309D01*
X48084309Y-17217928D01*
X47973238Y-17370803D01*
X47887452Y-17539169D01*
X47869651Y-17593954D01*
X47854334Y-17641093D01*
X47818372Y-17690593D01*
X47760181Y-17709500D01*
X43738245Y-17709500D01*
X43661755Y-17709500D01*
X43626741Y-17718882D01*
X43587866Y-17729298D01*
X43521633Y-17767538D01*
X43467538Y-17821633D01*
X43429298Y-17887866D01*
X43409500Y-17961756D01*
X43409500Y-26633099D01*
X43390593Y-26691290D01*
X43380510Y-26703096D01*
X43379520Y-26704085D01*
X43326794Y-26795409D01*
X43326794Y-26795410D01*
X43326793Y-26795412D01*
X43326793Y-26795413D01*
X43299500Y-26897273D01*
X5800000Y-26897273D01*
X5800000Y-20119500D01*
X5818907Y-20061309D01*
X5868407Y-20025345D01*
X5899000Y-20020500D01*
X5965890Y-20020500D01*
X5965892Y-20020500D01*
X6093186Y-19986392D01*
X6093188Y-19986390D01*
X6093190Y-19986390D01*
X6207309Y-19920503D01*
X6207309Y-19920502D01*
X6207314Y-19920500D01*
X6300500Y-19827314D01*
X6366392Y-19713186D01*
X6400500Y-19585892D01*
X6400500Y-19047273D01*
X8599500Y-19047273D01*
X8599500Y-19152727D01*
X8612301Y-19200500D01*
X8626794Y-19254589D01*
X8626794Y-19254590D01*
X8671753Y-19332461D01*
X8679520Y-19345913D01*
X8754087Y-19420480D01*
X8845413Y-19473207D01*
X8947273Y-19500500D01*
X8947275Y-19500500D01*
X9052725Y-19500500D01*
X9052727Y-19500500D01*
X9154587Y-19473207D01*
X9245913Y-19420480D01*
X9246898Y-19419494D01*
X9247789Y-19419040D01*
X9251063Y-19416529D01*
X9251528Y-19417135D01*
X9301413Y-19391719D01*
X9316900Y-19390500D01*
X14038243Y-19390500D01*
X14038245Y-19390500D01*
X14112129Y-19370703D01*
X14112131Y-19370701D01*
X14112133Y-19370701D01*
X14178366Y-19332461D01*
X14178366Y-19332460D01*
X14178371Y-19332458D01*
X14232458Y-19278371D01*
X14246190Y-19254587D01*
X14270701Y-19212133D01*
X14270701Y-19212131D01*
X14270703Y-19212129D01*
X14290500Y-19138245D01*
X14290500Y-11316900D01*
X14309407Y-11258709D01*
X14319490Y-11246902D01*
X14320480Y-11245913D01*
X14373207Y-11154587D01*
X14400500Y-11052727D01*
X14400500Y-10947273D01*
X14373207Y-10845413D01*
X14360509Y-10823420D01*
X14320481Y-10754089D01*
X14320480Y-10754087D01*
X14245913Y-10679520D01*
X14154587Y-10626793D01*
X14052727Y-10599500D01*
X13947273Y-10599500D01*
X13845413Y-10626793D01*
X13845412Y-10626793D01*
X13845410Y-10626794D01*
X13845409Y-10626794D01*
X13754089Y-10679518D01*
X13679518Y-10754089D01*
X13626794Y-10845409D01*
X13626794Y-10845410D01*
X13626793Y-10845412D01*
X13626793Y-10845413D01*
X13599500Y-10947273D01*
X13599500Y-11052727D01*
X13625430Y-11149500D01*
X13626794Y-11154589D01*
X13626794Y-11154590D01*
X13675093Y-11238245D01*
X13679520Y-11245913D01*
X13680505Y-11246898D01*
X13680959Y-11247789D01*
X13683471Y-11251063D01*
X13682864Y-11251528D01*
X13708281Y-11301413D01*
X13709500Y-11316900D01*
X13709500Y-18710500D01*
X13690593Y-18768691D01*
X13641093Y-18804655D01*
X13610500Y-18809500D01*
X9316900Y-18809500D01*
X9258709Y-18790593D01*
X9246902Y-18780509D01*
X9245913Y-18779520D01*
X9154587Y-18726793D01*
X9052727Y-18699500D01*
X8947273Y-18699500D01*
X8845413Y-18726793D01*
X8845412Y-18726793D01*
X8845410Y-18726794D01*
X8845409Y-18726794D01*
X8754089Y-18779518D01*
X8679518Y-18854089D01*
X8626794Y-18945409D01*
X8626794Y-18945410D01*
X8626793Y-18945412D01*
X8626793Y-18945413D01*
X8599500Y-19047273D01*
X6400500Y-19047273D01*
X6400500Y-18599500D01*
X6419407Y-18541309D01*
X6468907Y-18505345D01*
X6499500Y-18500500D01*
X13065890Y-18500500D01*
X13065892Y-18500500D01*
X13193186Y-18466392D01*
X13193188Y-18466390D01*
X13193190Y-18466390D01*
X13307309Y-18400503D01*
X13307309Y-18400502D01*
X13307314Y-18400500D01*
X13400500Y-18307314D01*
X13466392Y-18193186D01*
X13500500Y-18065892D01*
X13500500Y-17934108D01*
X13466392Y-17806814D01*
X13466390Y-17806811D01*
X13466390Y-17806809D01*
X13400503Y-17692690D01*
X13400501Y-17692688D01*
X13400500Y-17692686D01*
X13307314Y-17599500D01*
X13307311Y-17599498D01*
X13307309Y-17599496D01*
X13193189Y-17533609D01*
X13193191Y-17533609D01*
X13143799Y-17520375D01*
X13065892Y-17499500D01*
X13065890Y-17499500D01*
X6499500Y-17499500D01*
X6441309Y-17480593D01*
X6405345Y-17431093D01*
X6400500Y-17400500D01*
X6400500Y-16547273D01*
X8599500Y-16547273D01*
X8599500Y-16652727D01*
X8626793Y-16754587D01*
X8626794Y-16754589D01*
X8626794Y-16754590D01*
X8669790Y-16829060D01*
X8679520Y-16845913D01*
X8754087Y-16920480D01*
X8845413Y-16973207D01*
X8947273Y-17000500D01*
X8947275Y-17000500D01*
X9052725Y-17000500D01*
X9052727Y-17000500D01*
X9154587Y-16973207D01*
X9245913Y-16920480D01*
X9320480Y-16845913D01*
X9373207Y-16754587D01*
X9400500Y-16652727D01*
X9400500Y-16547273D01*
X9373207Y-16445413D01*
X9320480Y-16354087D01*
X9320479Y-16354085D01*
X9319490Y-16353096D01*
X9319035Y-16352203D01*
X9316529Y-16348937D01*
X9317134Y-16348472D01*
X9291717Y-16298577D01*
X9290500Y-16283099D01*
X9290500Y-8389500D01*
X9309407Y-8331309D01*
X9358907Y-8295345D01*
X9389500Y-8290500D01*
X19610500Y-8290500D01*
X19668691Y-8309407D01*
X19704655Y-8358907D01*
X19709500Y-8389500D01*
X19709500Y-10683099D01*
X19690593Y-10741290D01*
X19680510Y-10753096D01*
X19679520Y-10754085D01*
X19626794Y-10845409D01*
X19626794Y-10845410D01*
X19626793Y-10845412D01*
X19626793Y-10845413D01*
X19599500Y-10947273D01*
X19599500Y-11052727D01*
X19625430Y-11149500D01*
X19626794Y-11154589D01*
X19626794Y-11154590D01*
X19675093Y-11238245D01*
X19679520Y-11245913D01*
X19754087Y-11320480D01*
X19845413Y-11373207D01*
X19947273Y-11400500D01*
X19947275Y-11400500D01*
X20052725Y-11400500D01*
X20052727Y-11400500D01*
X20154587Y-11373207D01*
X20245913Y-11320480D01*
X20320480Y-11245913D01*
X20373207Y-11154587D01*
X20400500Y-11052727D01*
X20400500Y-10947273D01*
X20373207Y-10845413D01*
X20360509Y-10823420D01*
X20320479Y-10754085D01*
X20319490Y-10753096D01*
X20319035Y-10752203D01*
X20316529Y-10748937D01*
X20317134Y-10748472D01*
X20291717Y-10698577D01*
X20290500Y-10683099D01*
X20290500Y-9885265D01*
X28249500Y-9885265D01*
X28249500Y-10114734D01*
X28279452Y-10342238D01*
X28338841Y-10563885D01*
X28426653Y-10775883D01*
X28541388Y-10974611D01*
X28601329Y-11052727D01*
X28681081Y-11156661D01*
X28843339Y-11318919D01*
X29025388Y-11458611D01*
X29224112Y-11573344D01*
X29224113Y-11573344D01*
X29224116Y-11573346D01*
X29310333Y-11609058D01*
X29436113Y-11661158D01*
X29657762Y-11720548D01*
X29885266Y-11750500D01*
X29885267Y-11750500D01*
X30114733Y-11750500D01*
X30114734Y-11750500D01*
X30342238Y-11720548D01*
X30563887Y-11661158D01*
X30775888Y-11573344D01*
X30974612Y-11458611D01*
X31156661Y-11318919D01*
X31318919Y-11156661D01*
X31458611Y-10974612D01*
X31573344Y-10775888D01*
X31661158Y-10563887D01*
X31720548Y-10342238D01*
X31750500Y-10114734D01*
X31750500Y-9885266D01*
X31720548Y-9657762D01*
X31661158Y-9436113D01*
X31573344Y-9224112D01*
X31458611Y-9025388D01*
X31318919Y-8843339D01*
X31156661Y-8681081D01*
X30974612Y-8541389D01*
X30974613Y-8541389D01*
X30974611Y-8541388D01*
X30775883Y-8426653D01*
X30563885Y-8338841D01*
X30342238Y-8279452D01*
X30114734Y-8249500D01*
X29885266Y-8249500D01*
X29885265Y-8249500D01*
X29657761Y-8279452D01*
X29436114Y-8338841D01*
X29224116Y-8426653D01*
X29025388Y-8541388D01*
X28843342Y-8681078D01*
X28681078Y-8843342D01*
X28541388Y-9025388D01*
X28426653Y-9224116D01*
X28338841Y-9436114D01*
X28279452Y-9657761D01*
X28249500Y-9885265D01*
X20290500Y-9885265D01*
X20290500Y-7961756D01*
X20290500Y-7961755D01*
X20270703Y-7887871D01*
X20270701Y-7887868D01*
X20270701Y-7887866D01*
X20232461Y-7821633D01*
X20232459Y-7821631D01*
X20232458Y-7821629D01*
X20178371Y-7767542D01*
X20178368Y-7767540D01*
X20178366Y-7767538D01*
X20112132Y-7729298D01*
X20112134Y-7729298D01*
X20083465Y-7721616D01*
X20038245Y-7709500D01*
X9038245Y-7709500D01*
X8961755Y-7709500D01*
X8916534Y-7721616D01*
X8887866Y-7729298D01*
X8821633Y-7767538D01*
X8767538Y-7821633D01*
X8729298Y-7887866D01*
X8709500Y-7961756D01*
X8709500Y-16283099D01*
X8690593Y-16341290D01*
X8680510Y-16353096D01*
X8679520Y-16354085D01*
X8626794Y-16445409D01*
X8626794Y-16445410D01*
X8626793Y-16445412D01*
X8626793Y-16445413D01*
X8599500Y-16547273D01*
X6400500Y-16547273D01*
X6400500Y-16414109D01*
X6400500Y-16414108D01*
X6366392Y-16286814D01*
X6366390Y-16286811D01*
X6366390Y-16286809D01*
X6300503Y-16172690D01*
X6300501Y-16172688D01*
X6300500Y-16172686D01*
X6207314Y-16079500D01*
X6207311Y-16079498D01*
X6207309Y-16079496D01*
X6093189Y-16013609D01*
X6093191Y-16013609D01*
X6043799Y-16000375D01*
X5965892Y-15979500D01*
X5899000Y-15979500D01*
X5840809Y-15960593D01*
X5804845Y-15911093D01*
X5800000Y-15880500D01*
X5800000Y-5899000D01*
X5818907Y-5840809D01*
X5868407Y-5804845D01*
X5899000Y-5800000D01*
X104101000Y-5800000D01*
X104159191Y-5818907D01*
G37*
%TD.AperFunction*%
%TD*%
M02*
