<?xml version="1.0" standalone="no"?>
 <!DOCTYPE svg PUBLIC "-//W3C//DTD SVG 1.1//EN"
 "http://www.w3.org/Graphics/SVG/1.1/DTD/svg11.dtd">
<svg
  xmlns:svg="http://www.w3.org/2000/svg"
  xmlns="http://www.w3.org/2000/svg"
  xmlns:xlink="http://www.w3.org/1999/xlink"
  xmlns:inkscape="http://www.inkscape.org/namespaces/inkscape"
  version="1.1"
  width="297.0022mm" height="210.0072mm" viewBox="0.0000 0.0000 297.0022 210.0072">
<title>SVG Image created as TemperatureInspector_STM32F103C8T6_Hardware-NPTH-drl_map.svg date 2026-07-16T21:08:57 </title>
  <desc>Image generated by PCBNEW </desc>
<g style="fill:#000000; fill-opacity:1.0000;stroke:#000000; stroke-opacity:1.0000;
stroke-linecap:round; stroke-linejoin:round;"
 transform="translate(0 0) scale(1 1)">
</g>
<g style="fill:none;
stroke:#000000; stroke-width:0.1448; stroke-opacity:1;
stroke-linecap:round; stroke-linejoin:round;">
<path d="M76.0889 5.0724
L220.9133 5.0724
" />
<path d="M76.0889 120.9319
L76.0889 5.0724
" />
<path d="M220.9133 5.0724
L220.9133 120.9319
" />
<path d="M220.9133 120.9319
L76.0889 120.9319
" />
</g>
<g style="fill:none;
stroke:#000000; stroke-width:0.4634; stroke-opacity:1;
stroke-linecap:round; stroke-linejoin:round;">
<path d="M81.0129 111.3735
L85.6473 116.0079
" />
<path d="M85.6473 111.3735
L81.0129 116.0079
" />
<path d="M109.9778 9.9964
L114.6122 14.6308
" />
<path d="M114.6122 9.9964
L109.9778 14.6308
" />
<path d="M182.3900 9.9964
L187.0244 14.6308
" />
<path d="M187.0244 9.9964
L182.3900 14.6308
" />
<path d="M211.3549 111.3735
L215.9893 116.0079
" />
<path d="M215.9893 111.3735
L211.3549 116.0079
" />
</g>
<g style="fill:none;
stroke:#000000; stroke-width:0.2000; stroke-opacity:1;
stroke-linecap:round; stroke-linejoin:round;">
<text x="78.0165" y="124.2043"
textLength="14.8667" font-size="2.6667" lengthAdjust="spacingAndGlyphs"
text-anchor="start" opacity="0" stroke-opacity="0">Drill Map:</text>
<g class="stroked-text"><desc>Drill Map:</desc>
<path d="M78.6243 124.1192
L78.6243 122.1192
" />
<path d="M78.6243 122.1192
L79.1005 122.1192
" />
<path d="M79.1005 122.1192
L79.3862 122.2144
" />
<path d="M79.3862 122.2144
L79.5767 122.4049
" />
<path d="M79.5767 122.4049
L79.6719 122.5953
" />
<path d="M79.6719 122.5953
L79.7671 122.9763
" />
<path d="M79.7671 122.9763
L79.7671 123.2620
" />
<path d="M79.7671 123.2620
L79.6719 123.6430
" />
<path d="M79.6719 123.6430
L79.5767 123.8334
" />
<path d="M79.5767 123.8334
L79.3862 124.0239
" />
<path d="M79.3862 124.0239
L79.1005 124.1192
" />
<path d="M79.1005 124.1192
L78.6243 124.1192
" />
<path d="M80.6243 124.1192
L80.6243 122.7858
" />
<path d="M80.6243 123.1668
L80.7195 122.9763
" />
<path d="M80.7195 122.9763
L80.8147 122.8811
" />
<path d="M80.8147 122.8811
L81.0052 122.7858
" />
<path d="M81.0052 122.7858
L81.1957 122.7858
" />
<path d="M81.8624 124.1192
L81.8624 122.7858
" />
<path d="M81.8624 122.1192
L81.7671 122.2144
" />
<path d="M81.7671 122.2144
L81.8624 122.3096
" />
<path d="M81.8624 122.3096
L81.9576 122.2144
" />
<path d="M81.9576 122.2144
L81.8624 122.1192
" />
<path d="M81.8624 122.1192
L81.8624 122.3096
" />
<path d="M83.1005 124.1192
L82.9100 124.0239
" />
<path d="M82.9100 124.0239
L82.8147 123.8334
" />
<path d="M82.8147 123.8334
L82.8147 122.1192
" />
<path d="M84.1481 124.1192
L83.9576 124.0239
" />
<path d="M83.9576 124.0239
L83.8624 123.8334
" />
<path d="M83.8624 123.8334
L83.8624 122.1192
" />
<path d="M86.4338 124.1192
L86.4338 122.1192
" />
<path d="M86.4338 122.1192
L87.1005 123.5477
" />
<path d="M87.1005 123.5477
L87.7671 122.1192
" />
<path d="M87.7671 122.1192
L87.7671 124.1192
" />
<path d="M89.5767 124.1192
L89.5767 123.0715
" />
<path d="M89.5767 123.0715
L89.4814 122.8811
" />
<path d="M89.4814 122.8811
L89.2909 122.7858
" />
<path d="M89.2909 122.7858
L88.9100 122.7858
" />
<path d="M88.9100 122.7858
L88.7195 122.8811
" />
<path d="M89.5767 124.0239
L89.3862 124.1192
" />
<path d="M89.3862 124.1192
L88.9100 124.1192
" />
<path d="M88.9100 124.1192
L88.7195 124.0239
" />
<path d="M88.7195 124.0239
L88.6243 123.8334
" />
<path d="M88.6243 123.8334
L88.6243 123.6430
" />
<path d="M88.6243 123.6430
L88.7195 123.4525
" />
<path d="M88.7195 123.4525
L88.9100 123.3573
" />
<path d="M88.9100 123.3573
L89.3862 123.3573
" />
<path d="M89.3862 123.3573
L89.5767 123.2620
" />
<path d="M90.5290 122.7858
L90.5290 124.7858
" />
<path d="M90.5290 122.8811
L90.7195 122.7858
" />
<path d="M90.7195 122.7858
L91.1005 122.7858
" />
<path d="M91.1005 122.7858
L91.2909 122.8811
" />
<path d="M91.2909 122.8811
L91.3862 122.9763
" />
<path d="M91.3862 122.9763
L91.4814 123.1668
" />
<path d="M91.4814 123.1668
L91.4814 123.7382
" />
<path d="M91.4814 123.7382
L91.3862 123.9287
" />
<path d="M91.3862 123.9287
L91.2909 124.0239
" />
<path d="M91.2909 124.0239
L91.1005 124.1192
" />
<path d="M91.1005 124.1192
L90.7195 124.1192
" />
<path d="M90.7195 124.1192
L90.5290 124.0239
" />
<path d="M92.3386 123.9287
L92.4338 124.0239
" />
<path d="M92.4338 124.0239
L92.3386 124.1192
" />
<path d="M92.3386 124.1192
L92.2433 124.0239
" />
<path d="M92.2433 124.0239
L92.3386 123.9287
" />
<path d="M92.3386 123.9287
L92.3386 124.1192
" />
<path d="M92.3386 122.8811
L92.4338 122.9763
" />
<path d="M92.4338 122.9763
L92.3386 123.0715
" />
<path d="M92.3386 123.0715
L92.2433 122.9763
" />
<path d="M92.2433 122.9763
L92.3386 122.8811
" />
<path d="M92.3386 122.8811
L92.3386 123.0715
" />
</g><path d="M74.0165 126.4043
L76.0165 128.4043
" />
<path d="M76.0165 126.4043
L74.0165 128.4043
" />
</g>
<g style="fill:none;
stroke:#000000; stroke-width:0.2000; stroke-opacity:1;
stroke-linecap:round; stroke-linejoin:round;">
<text x="78.0165" y="128.4043"
textLength="66.6762" font-size="2.6667" lengthAdjust="spacingAndGlyphs"
text-anchor="start" opacity="0" stroke-opacity="0">3.200mm / 0.1260" (4 holes) (not plated)</text>
<g class="stroked-text"><desc>3.200mm / 0.1260" (4 holes) (not plated)</desc>
<path d="M78.4338 126.3192
L79.6719 126.3192
" />
<path d="M79.6719 126.3192
L79.0052 127.0811
" />
<path d="M79.0052 127.0811
L79.2909 127.0811
" />
<path d="M79.2909 127.0811
L79.4814 127.1763
" />
<path d="M79.4814 127.1763
L79.5767 127.2715
" />
<path d="M79.5767 127.2715
L79.6719 127.4620
" />
<path d="M79.6719 127.4620
L79.6719 127.9382
" />
<path d="M79.6719 127.9382
L79.5767 128.1287
" />
<path d="M79.5767 128.1287
L79.4814 128.2239
" />
<path d="M79.4814 128.2239
L79.2909 128.3192
" />
<path d="M79.2909 128.3192
L78.7195 128.3192
" />
<path d="M78.7195 128.3192
L78.5290 128.2239
" />
<path d="M78.5290 128.2239
L78.4338 128.1287
" />
<path d="M80.5290 128.1287
L80.6243 128.2239
" />
<path d="M80.6243 128.2239
L80.5290 128.3192
" />
<path d="M80.5290 128.3192
L80.4338 128.2239
" />
<path d="M80.4338 128.2239
L80.5290 128.1287
" />
<path d="M80.5290 128.1287
L80.5290 128.3192
" />
<path d="M81.3862 126.5096
L81.4814 126.4144
" />
<path d="M81.4814 126.4144
L81.6719 126.3192
" />
<path d="M81.6719 126.3192
L82.1481 126.3192
" />
<path d="M82.1481 126.3192
L82.3386 126.4144
" />
<path d="M82.3386 126.4144
L82.4338 126.5096
" />
<path d="M82.4338 126.5096
L82.5290 126.7001
" />
<path d="M82.5290 126.7001
L82.5290 126.8906
" />
<path d="M82.5290 126.8906
L82.4338 127.1763
" />
<path d="M82.4338 127.1763
L81.2909 128.3192
" />
<path d="M81.2909 128.3192
L82.5290 128.3192
" />
<path d="M83.7671 126.3192
L83.9576 126.3192
" />
<path d="M83.9576 126.3192
L84.1481 126.4144
" />
<path d="M84.1481 126.4144
L84.2433 126.5096
" />
<path d="M84.2433 126.5096
L84.3386 126.7001
" />
<path d="M84.3386 126.7001
L84.4338 127.0811
" />
<path d="M84.4338 127.0811
L84.4338 127.5573
" />
<path d="M84.4338 127.5573
L84.3386 127.9382
" />
<path d="M84.3386 127.9382
L84.2433 128.1287
" />
<path d="M84.2433 128.1287
L84.1481 128.2239
" />
<path d="M84.1481 128.2239
L83.9576 128.3192
" />
<path d="M83.9576 128.3192
L83.7671 128.3192
" />
<path d="M83.7671 128.3192
L83.5767 128.2239
" />
<path d="M83.5767 128.2239
L83.4814 128.1287
" />
<path d="M83.4814 128.1287
L83.3862 127.9382
" />
<path d="M83.3862 127.9382
L83.2909 127.5573
" />
<path d="M83.2909 127.5573
L83.2909 127.0811
" />
<path d="M83.2909 127.0811
L83.3862 126.7001
" />
<path d="M83.3862 126.7001
L83.4814 126.5096
" />
<path d="M83.4814 126.5096
L83.5767 126.4144
" />
<path d="M83.5767 126.4144
L83.7671 126.3192
" />
<path d="M85.6719 126.3192
L85.8624 126.3192
" />
<path d="M85.8624 126.3192
L86.0528 126.4144
" />
<path d="M86.0528 126.4144
L86.1481 126.5096
" />
<path d="M86.1481 126.5096
L86.2433 126.7001
" />
<path d="M86.2433 126.7001
L86.3386 127.0811
" />
<path d="M86.3386 127.0811
L86.3386 127.5573
" />
<path d="M86.3386 127.5573
L86.2433 127.9382
" />
<path d="M86.2433 127.9382
L86.1481 128.1287
" />
<path d="M86.1481 128.1287
L86.0528 128.2239
" />
<path d="M86.0528 128.2239
L85.8624 128.3192
" />
<path d="M85.8624 128.3192
L85.6719 128.3192
" />
<path d="M85.6719 128.3192
L85.4814 128.2239
" />
<path d="M85.4814 128.2239
L85.3862 128.1287
" />
<path d="M85.3862 128.1287
L85.2909 127.9382
" />
<path d="M85.2909 127.9382
L85.1957 127.5573
" />
<path d="M85.1957 127.5573
L85.1957 127.0811
" />
<path d="M85.1957 127.0811
L85.2909 126.7001
" />
<path d="M85.2909 126.7001
L85.3862 126.5096
" />
<path d="M85.3862 126.5096
L85.4814 126.4144
" />
<path d="M85.4814 126.4144
L85.6719 126.3192
" />
<path d="M87.1957 128.3192
L87.1957 126.9858
" />
<path d="M87.1957 127.1763
L87.2909 127.0811
" />
<path d="M87.2909 127.0811
L87.4814 126.9858
" />
<path d="M87.4814 126.9858
L87.7671 126.9858
" />
<path d="M87.7671 126.9858
L87.9576 127.0811
" />
<path d="M87.9576 127.0811
L88.0528 127.2715
" />
<path d="M88.0528 127.2715
L88.0528 128.3192
" />
<path d="M88.0528 127.2715
L88.1481 127.0811
" />
<path d="M88.1481 127.0811
L88.3386 126.9858
" />
<path d="M88.3386 126.9858
L88.6243 126.9858
" />
<path d="M88.6243 126.9858
L88.8147 127.0811
" />
<path d="M88.8147 127.0811
L88.9100 127.2715
" />
<path d="M88.9100 127.2715
L88.9100 128.3192
" />
<path d="M89.8624 128.3192
L89.8624 126.9858
" />
<path d="M89.8624 127.1763
L89.9576 127.0811
" />
<path d="M89.9576 127.0811
L90.1481 126.9858
" />
<path d="M90.1481 126.9858
L90.4338 126.9858
" />
<path d="M90.4338 126.9858
L90.6243 127.0811
" />
<path d="M90.6243 127.0811
L90.7195 127.2715
" />
<path d="M90.7195 127.2715
L90.7195 128.3192
" />
<path d="M90.7195 127.2715
L90.8147 127.0811
" />
<path d="M90.8147 127.0811
L91.0052 126.9858
" />
<path d="M91.0052 126.9858
L91.2909 126.9858
" />
<path d="M91.2909 126.9858
L91.4814 127.0811
" />
<path d="M91.4814 127.0811
L91.5767 127.2715
" />
<path d="M91.5767 127.2715
L91.5767 128.3192
" />
<path d="M95.4814 126.2239
L93.7671 128.7953
" />
<path d="M98.0528 126.3192
L98.2433 126.3192
" />
<path d="M98.2433 126.3192
L98.4338 126.4144
" />
<path d="M98.4338 126.4144
L98.5290 126.5096
" />
<path d="M98.5290 126.5096
L98.6243 126.7001
" />
<path d="M98.6243 126.7001
L98.7195 127.0811
" />
<path d="M98.7195 127.0811
L98.7195 127.5573
" />
<path d="M98.7195 127.5573
L98.6243 127.9382
" />
<path d="M98.6243 127.9382
L98.5290 128.1287
" />
<path d="M98.5290 128.1287
L98.4338 128.2239
" />
<path d="M98.4338 128.2239
L98.2433 128.3192
" />
<path d="M98.2433 128.3192
L98.0528 128.3192
" />
<path d="M98.0528 128.3192
L97.8624 128.2239
" />
<path d="M97.8624 128.2239
L97.7671 128.1287
" />
<path d="M97.7671 128.1287
L97.6719 127.9382
" />
<path d="M97.6719 127.9382
L97.5767 127.5573
" />
<path d="M97.5767 127.5573
L97.5767 127.0811
" />
<path d="M97.5767 127.0811
L97.6719 126.7001
" />
<path d="M97.6719 126.7001
L97.7671 126.5096
" />
<path d="M97.7671 126.5096
L97.8624 126.4144
" />
<path d="M97.8624 126.4144
L98.0528 126.3192
" />
<path d="M99.5767 128.1287
L99.6719 128.2239
" />
<path d="M99.6719 128.2239
L99.5767 128.3192
" />
<path d="M99.5767 128.3192
L99.4814 128.2239
" />
<path d="M99.4814 128.2239
L99.5767 128.1287
" />
<path d="M99.5767 128.1287
L99.5767 128.3192
" />
<path d="M101.5767 128.3192
L100.4338 128.3192
" />
<path d="M101.0052 128.3192
L101.0052 126.3192
" />
<path d="M101.0052 126.3192
L100.8147 126.6049
" />
<path d="M100.8147 126.6049
L100.6243 126.7953
" />
<path d="M100.6243 126.7953
L100.4338 126.8906
" />
<path d="M102.3386 126.5096
L102.4338 126.4144
" />
<path d="M102.4338 126.4144
L102.6243 126.3192
" />
<path d="M102.6243 126.3192
L103.1005 126.3192
" />
<path d="M103.1005 126.3192
L103.2909 126.4144
" />
<path d="M103.2909 126.4144
L103.3862 126.5096
" />
<path d="M103.3862 126.5096
L103.4814 126.7001
" />
<path d="M103.4814 126.7001
L103.4814 126.8906
" />
<path d="M103.4814 126.8906
L103.3862 127.1763
" />
<path d="M103.3862 127.1763
L102.2433 128.3192
" />
<path d="M102.2433 128.3192
L103.4814 128.3192
" />
<path d="M105.1957 126.3192
L104.8147 126.3192
" />
<path d="M104.8147 126.3192
L104.6243 126.4144
" />
<path d="M104.6243 126.4144
L104.5290 126.5096
" />
<path d="M104.5290 126.5096
L104.3386 126.7953
" />
<path d="M104.3386 126.7953
L104.2433 127.1763
" />
<path d="M104.2433 127.1763
L104.2433 127.9382
" />
<path d="M104.2433 127.9382
L104.3386 128.1287
" />
<path d="M104.3386 128.1287
L104.4338 128.2239
" />
<path d="M104.4338 128.2239
L104.6243 128.3192
" />
<path d="M104.6243 128.3192
L105.0052 128.3192
" />
<path d="M105.0052 128.3192
L105.1957 128.2239
" />
<path d="M105.1957 128.2239
L105.2909 128.1287
" />
<path d="M105.2909 128.1287
L105.3862 127.9382
" />
<path d="M105.3862 127.9382
L105.3862 127.4620
" />
<path d="M105.3862 127.4620
L105.2909 127.2715
" />
<path d="M105.2909 127.2715
L105.1957 127.1763
" />
<path d="M105.1957 127.1763
L105.0052 127.0811
" />
<path d="M105.0052 127.0811
L104.6243 127.0811
" />
<path d="M104.6243 127.0811
L104.4338 127.1763
" />
<path d="M104.4338 127.1763
L104.3386 127.2715
" />
<path d="M104.3386 127.2715
L104.2433 127.4620
" />
<path d="M106.6243 126.3192
L106.8147 126.3192
" />
<path d="M106.8147 126.3192
L107.0052 126.4144
" />
<path d="M107.0052 126.4144
L107.1005 126.5096
" />
<path d="M107.1005 126.5096
L107.1957 126.7001
" />
<path d="M107.1957 126.7001
L107.2909 127.0811
" />
<path d="M107.2909 127.0811
L107.2909 127.5573
" />
<path d="M107.2909 127.5573
L107.1957 127.9382
" />
<path d="M107.1957 127.9382
L107.1005 128.1287
" />
<path d="M107.1005 128.1287
L107.0052 128.2239
" />
<path d="M107.0052 128.2239
L106.8147 128.3192
" />
<path d="M106.8147 128.3192
L106.6243 128.3192
" />
<path d="M106.6243 128.3192
L106.4338 128.2239
" />
<path d="M106.4338 128.2239
L106.3386 128.1287
" />
<path d="M106.3386 128.1287
L106.2433 127.9382
" />
<path d="M106.2433 127.9382
L106.1481 127.5573
" />
<path d="M106.1481 127.5573
L106.1481 127.0811
" />
<path d="M106.1481 127.0811
L106.2433 126.7001
" />
<path d="M106.2433 126.7001
L106.3386 126.5096
" />
<path d="M106.3386 126.5096
L106.4338 126.4144
" />
<path d="M106.4338 126.4144
L106.6243 126.3192
" />
<path d="M108.0528 126.3192
L108.0528 126.7001
" />
<path d="M108.8147 126.3192
L108.8147 126.7001
" />
<path d="M111.7671 129.0811
L111.6719 128.9858
" />
<path d="M111.6719 128.9858
L111.4814 128.7001
" />
<path d="M111.4814 128.7001
L111.3862 128.5096
" />
<path d="M111.3862 128.5096
L111.2909 128.2239
" />
<path d="M111.2909 128.2239
L111.1957 127.7477
" />
<path d="M111.1957 127.7477
L111.1957 127.3668
" />
<path d="M111.1957 127.3668
L111.2909 126.8906
" />
<path d="M111.2909 126.8906
L111.3862 126.6049
" />
<path d="M111.3862 126.6049
L111.4814 126.4144
" />
<path d="M111.4814 126.4144
L111.6719 126.1287
" />
<path d="M111.6719 126.1287
L111.7671 126.0334
" />
<path d="M113.3862 126.9858
L113.3862 128.3192
" />
<path d="M112.9100 126.2239
L112.4338 127.6525
" />
<path d="M112.4338 127.6525
L113.6719 127.6525
" />
<path d="M115.9576 128.3192
L115.9576 126.3192
" />
<path d="M116.8147 128.3192
L116.8147 127.2715
" />
<path d="M116.8147 127.2715
L116.7195 127.0811
" />
<path d="M116.7195 127.0811
L116.5290 126.9858
" />
<path d="M116.5290 126.9858
L116.2433 126.9858
" />
<path d="M116.2433 126.9858
L116.0528 127.0811
" />
<path d="M116.0528 127.0811
L115.9576 127.1763
" />
<path d="M118.0528 128.3192
L117.8624 128.2239
" />
<path d="M117.8624 128.2239
L117.7671 128.1287
" />
<path d="M117.7671 128.1287
L117.6719 127.9382
" />
<path d="M117.6719 127.9382
L117.6719 127.3668
" />
<path d="M117.6719 127.3668
L117.7671 127.1763
" />
<path d="M117.7671 127.1763
L117.8624 127.0811
" />
<path d="M117.8624 127.0811
L118.0528 126.9858
" />
<path d="M118.0528 126.9858
L118.3386 126.9858
" />
<path d="M118.3386 126.9858
L118.5290 127.0811
" />
<path d="M118.5290 127.0811
L118.6243 127.1763
" />
<path d="M118.6243 127.1763
L118.7195 127.3668
" />
<path d="M118.7195 127.3668
L118.7195 127.9382
" />
<path d="M118.7195 127.9382
L118.6243 128.1287
" />
<path d="M118.6243 128.1287
L118.5290 128.2239
" />
<path d="M118.5290 128.2239
L118.3386 128.3192
" />
<path d="M118.3386 128.3192
L118.0528 128.3192
" />
<path d="M119.8624 128.3192
L119.6719 128.2239
" />
<path d="M119.6719 128.2239
L119.5767 128.0334
" />
<path d="M119.5767 128.0334
L119.5767 126.3192
" />
<path d="M121.3862 128.2239
L121.1957 128.3192
" />
<path d="M121.1957 128.3192
L120.8147 128.3192
" />
<path d="M120.8147 128.3192
L120.6243 128.2239
" />
<path d="M120.6243 128.2239
L120.5290 128.0334
" />
<path d="M120.5290 128.0334
L120.5290 127.2715
" />
<path d="M120.5290 127.2715
L120.6243 127.0811
" />
<path d="M120.6243 127.0811
L120.8147 126.9858
" />
<path d="M120.8147 126.9858
L121.1957 126.9858
" />
<path d="M121.1957 126.9858
L121.3862 127.0811
" />
<path d="M121.3862 127.0811
L121.4814 127.2715
" />
<path d="M121.4814 127.2715
L121.4814 127.4620
" />
<path d="M121.4814 127.4620
L120.5290 127.6525
" />
<path d="M122.2433 128.2239
L122.4338 128.3192
" />
<path d="M122.4338 128.3192
L122.8147 128.3192
" />
<path d="M122.8147 128.3192
L123.0052 128.2239
" />
<path d="M123.0052 128.2239
L123.1005 128.0334
" />
<path d="M123.1005 128.0334
L123.1005 127.9382
" />
<path d="M123.1005 127.9382
L123.0052 127.7477
" />
<path d="M123.0052 127.7477
L122.8147 127.6525
" />
<path d="M122.8147 127.6525
L122.5290 127.6525
" />
<path d="M122.5290 127.6525
L122.3386 127.5573
" />
<path d="M122.3386 127.5573
L122.2433 127.3668
" />
<path d="M122.2433 127.3668
L122.2433 127.2715
" />
<path d="M122.2433 127.2715
L122.3386 127.0811
" />
<path d="M122.3386 127.0811
L122.5290 126.9858
" />
<path d="M122.5290 126.9858
L122.8147 126.9858
" />
<path d="M122.8147 126.9858
L123.0052 127.0811
" />
<path d="M123.7671 129.0811
L123.8624 128.9858
" />
<path d="M123.8624 128.9858
L124.0528 128.7001
" />
<path d="M124.0528 128.7001
L124.1481 128.5096
" />
<path d="M124.1481 128.5096
L124.2433 128.2239
" />
<path d="M124.2433 128.2239
L124.3386 127.7477
" />
<path d="M124.3386 127.7477
L124.3386 127.3668
" />
<path d="M124.3386 127.3668
L124.2433 126.8906
" />
<path d="M124.2433 126.8906
L124.1481 126.6049
" />
<path d="M124.1481 126.6049
L124.0528 126.4144
" />
<path d="M124.0528 126.4144
L123.8624 126.1287
" />
<path d="M123.8624 126.1287
L123.7671 126.0334
" />
<path d="M127.3862 129.0811
L127.2909 128.9858
" />
<path d="M127.2909 128.9858
L127.1005 128.7001
" />
<path d="M127.1005 128.7001
L127.0052 128.5096
" />
<path d="M127.0052 128.5096
L126.9100 128.2239
" />
<path d="M126.9100 128.2239
L126.8148 127.7477
" />
<path d="M126.8148 127.7477
L126.8148 127.3668
" />
<path d="M126.8148 127.3668
L126.9100 126.8906
" />
<path d="M126.9100 126.8906
L127.0052 126.6049
" />
<path d="M127.0052 126.6049
L127.1005 126.4144
" />
<path d="M127.1005 126.4144
L127.2909 126.1287
" />
<path d="M127.2909 126.1287
L127.3862 126.0334
" />
<path d="M128.1481 126.9858
L128.1481 128.3192
" />
<path d="M128.1481 127.1763
L128.2433 127.0811
" />
<path d="M128.2433 127.0811
L128.4338 126.9858
" />
<path d="M128.4338 126.9858
L128.7195 126.9858
" />
<path d="M128.7195 126.9858
L128.9100 127.0811
" />
<path d="M128.9100 127.0811
L129.0052 127.2715
" />
<path d="M129.0052 127.2715
L129.0052 128.3192
" />
<path d="M130.2433 128.3192
L130.0528 128.2239
" />
<path d="M130.0528 128.2239
L129.9576 128.1287
" />
<path d="M129.9576 128.1287
L129.8624 127.9382
" />
<path d="M129.8624 127.9382
L129.8624 127.3668
" />
<path d="M129.8624 127.3668
L129.9576 127.1763
" />
<path d="M129.9576 127.1763
L130.0528 127.0811
" />
<path d="M130.0528 127.0811
L130.2433 126.9858
" />
<path d="M130.2433 126.9858
L130.5290 126.9858
" />
<path d="M130.5290 126.9858
L130.7195 127.0811
" />
<path d="M130.7195 127.0811
L130.8148 127.1763
" />
<path d="M130.8148 127.1763
L130.9100 127.3668
" />
<path d="M130.9100 127.3668
L130.9100 127.9382
" />
<path d="M130.9100 127.9382
L130.8148 128.1287
" />
<path d="M130.8148 128.1287
L130.7195 128.2239
" />
<path d="M130.7195 128.2239
L130.5290 128.3192
" />
<path d="M130.5290 128.3192
L130.2433 128.3192
" />
<path d="M131.4814 126.9858
L132.2433 126.9858
" />
<path d="M131.7671 126.3192
L131.7671 128.0334
" />
<path d="M131.7671 128.0334
L131.8624 128.2239
" />
<path d="M131.8624 128.2239
L132.0528 128.3192
" />
<path d="M132.0528 128.3192
L132.2433 128.3192
" />
<path d="M134.4338 126.9858
L134.4338 128.9858
" />
<path d="M134.4338 127.0811
L134.6243 126.9858
" />
<path d="M134.6243 126.9858
L135.0052 126.9858
" />
<path d="M135.0052 126.9858
L135.1957 127.0811
" />
<path d="M135.1957 127.0811
L135.2909 127.1763
" />
<path d="M135.2909 127.1763
L135.3862 127.3668
" />
<path d="M135.3862 127.3668
L135.3862 127.9382
" />
<path d="M135.3862 127.9382
L135.2909 128.1287
" />
<path d="M135.2909 128.1287
L135.1957 128.2239
" />
<path d="M135.1957 128.2239
L135.0052 128.3192
" />
<path d="M135.0052 128.3192
L134.6243 128.3192
" />
<path d="M134.6243 128.3192
L134.4338 128.2239
" />
<path d="M136.5290 128.3192
L136.3386 128.2239
" />
<path d="M136.3386 128.2239
L136.2433 128.0334
" />
<path d="M136.2433 128.0334
L136.2433 126.3192
" />
<path d="M138.1481 128.3192
L138.1481 127.2715
" />
<path d="M138.1481 127.2715
L138.0528 127.0811
" />
<path d="M138.0528 127.0811
L137.8624 126.9858
" />
<path d="M137.8624 126.9858
L137.4814 126.9858
" />
<path d="M137.4814 126.9858
L137.2909 127.0811
" />
<path d="M138.1481 128.2239
L137.9576 128.3192
" />
<path d="M137.9576 128.3192
L137.4814 128.3192
" />
<path d="M137.4814 128.3192
L137.2909 128.2239
" />
<path d="M137.2909 128.2239
L137.1957 128.0334
" />
<path d="M137.1957 128.0334
L137.1957 127.8430
" />
<path d="M137.1957 127.8430
L137.2909 127.6525
" />
<path d="M137.2909 127.6525
L137.4814 127.5573
" />
<path d="M137.4814 127.5573
L137.9576 127.5573
" />
<path d="M137.9576 127.5573
L138.1481 127.4620
" />
<path d="M138.8148 126.9858
L139.5767 126.9858
" />
<path d="M139.1005 126.3192
L139.1005 128.0334
" />
<path d="M139.1005 128.0334
L139.1957 128.2239
" />
<path d="M139.1957 128.2239
L139.3862 128.3192
" />
<path d="M139.3862 128.3192
L139.5767 128.3192
" />
<path d="M141.0052 128.2239
L140.8148 128.3192
" />
<path d="M140.8148 128.3192
L140.4338 128.3192
" />
<path d="M140.4338 128.3192
L140.2433 128.2239
" />
<path d="M140.2433 128.2239
L140.1481 128.0334
" />
<path d="M140.1481 128.0334
L140.1481 127.2715
" />
<path d="M140.1481 127.2715
L140.2433 127.0811
" />
<path d="M140.2433 127.0811
L140.4338 126.9858
" />
<path d="M140.4338 126.9858
L140.8148 126.9858
" />
<path d="M140.8148 126.9858
L141.0052 127.0811
" />
<path d="M141.0052 127.0811
L141.1005 127.2715
" />
<path d="M141.1005 127.2715
L141.1005 127.4620
" />
<path d="M141.1005 127.4620
L140.1481 127.6525
" />
<path d="M142.8148 128.3192
L142.8148 126.3192
" />
<path d="M142.8148 128.2239
L142.6243 128.3192
" />
<path d="M142.6243 128.3192
L142.2433 128.3192
" />
<path d="M142.2433 128.3192
L142.0528 128.2239
" />
<path d="M142.0528 128.2239
L141.9576 128.1287
" />
<path d="M141.9576 128.1287
L141.8624 127.9382
" />
<path d="M141.8624 127.9382
L141.8624 127.3668
" />
<path d="M141.8624 127.3668
L141.9576 127.1763
" />
<path d="M141.9576 127.1763
L142.0528 127.0811
" />
<path d="M142.0528 127.0811
L142.2433 126.9858
" />
<path d="M142.2433 126.9858
L142.6243 126.9858
" />
<path d="M142.6243 126.9858
L142.8148 127.0811
" />
<path d="M143.5767 129.0811
L143.6719 128.9858
" />
<path d="M143.6719 128.9858
L143.8624 128.7001
" />
<path d="M143.8624 128.7001
L143.9576 128.5096
" />
<path d="M143.9576 128.5096
L144.0528 128.2239
" />
<path d="M144.0528 128.2239
L144.1481 127.7477
" />
<path d="M144.1481 127.7477
L144.1481 127.3668
" />
<path d="M144.1481 127.3668
L144.0528 126.8906
" />
<path d="M144.0528 126.8906
L143.9576 126.6049
" />
<path d="M143.9576 126.6049
L143.8624 126.4144
" />
<path d="M143.8624 126.4144
L143.6719 126.1287
" />
<path d="M143.6719 126.1287
L143.5767 126.0334
" />
</g></g>
</svg>
