M48
; DRILL file KiCad 10.0.4 date 2026-07-16T21:08:57
; FORMAT={-:-/ absolute / metric / decimal}
; #@! TF.CreationDate,2026-07-16T21:08:57+08:00
; #@! TF.GenerationSoftware,Kicad,Pcbnew,10.0.4
; #@! TF.FileFunction,Plated,1,4,PTH
FMAT,2
METRIC
; #@! TA.AperFunction,Plated,PTH,ViaDrill
T1C0.200
; #@! TA.AperFunction,Plated,PTH,ComponentDrill
T2C0.600
; #@! TA.AperFunction,Plated,PTH,ComponentDrill
T3C0.800
; #@! TA.AperFunction,Plated,PTH,ComponentDrill
T4C1.000
; #@! TA.AperFunction,Plated,PTH,ComponentDrill
T5C1.100
%
G90
G05
T1
X5.9Y-16.48
X5.9Y-19.52
X5.95Y-15.2
X5.95Y-20.7
X9.0Y-16.6
X9.0Y-19.1
X13.0Y-18.0
X14.0Y-11.0
X18.7Y-9.95
X18.95Y-15.95
X20.0Y-11.0
X21.7Y-43.2
X22.7Y-9.95
X22.7Y-26.95
X23.95Y-21.95
X25.7Y-54.95
X28.95Y-23.95
X34.95Y-53.95
X43.7Y-26.95
X44.2Y-31.95
X46.2Y-35.95
X46.7Y-23.95
X46.7Y-33.2
X46.95Y-30.95
X46.95Y-37.7
X47.2Y-38.95
X47.45Y-23.95
X48.2Y-25.2
X48.2Y-35.7
X48.2Y-36.7
X48.2Y-37.7
X48.2Y-41.7
X48.7Y-39.95
X49.45Y-28.2
X49.45Y-32.2
X49.45Y-35.2
X49.45Y-36.27
X49.45Y-37.2
X50.2Y-28.95
X50.2Y-30.7
X51.45Y-29.95
X52.2Y-28.2
X52.2Y-40.7
X52.45Y-46.2
X52.7Y-29.45
X52.7Y-32.95
X53.95Y-40.45
X54.2Y-27.45
X54.2Y-28.2
X54.7Y-29.45
X54.7Y-41.7
X55.2Y-28.2
X55.2Y-40.7
X55.2Y-43.2
X55.2Y-49.7
X55.45Y-42.45
X55.7Y-29.45
X55.95Y-40.45
X56.2Y-28.2
X56.2Y-41.7
X56.7Y-29.45
X57.2Y-40.7
X57.7Y-29.45
X57.7Y-41.7
X57.7Y-42.95
X57.95Y-45.2
X57.95Y-46.95
X58.7Y-50.2
X58.95Y-30.45
X59.2Y-47.7
X59.7Y-45.2
X60.2Y-42.45
X60.7Y-24.95
X60.7Y-32.7
X60.7Y-34.7
X60.7Y-36.7
X60.7Y-37.7
X61.45Y-37.95
X61.7Y-32.2
X61.7Y-33.2
X61.7Y-35.2
X61.7Y-36.2
X61.7Y-37.2
X62.2Y-46.2
X62.2Y-46.95
X62.45Y-26.45
X63.45Y-31.95
X63.45Y-38.7
X64.7Y-26.95
X66.95Y-45.7
X67.7Y-33.95
X67.95Y-32.95
X70.95Y-30.2
X71.2Y-49.95
X73.2Y-40.95
X73.2Y-44.95
X78.7Y-37.95
X80.2Y-49.95
X82.7Y-37.95
X82.95Y-32.95
X86.7Y-32.95
X86.7Y-37.95
X87.45Y-32.95
X89.2Y-54.95
T3
X88.0Y-28.0
X88.0Y-30.54
X90.54Y-28.0
X90.54Y-30.54
X93.08Y-28.0
X93.08Y-30.54
X95.62Y-28.0
X95.62Y-30.54
T4
X10.0Y-40.0
X10.0Y-42.54
X10.0Y-45.08
X18.0Y-40.0
X18.0Y-42.54
X18.0Y-45.08
X18.0Y-47.62
X27.0Y-40.0
X27.0Y-42.54
X27.0Y-45.08
X27.0Y-47.62
X60.0Y-10.0
X60.0Y-12.54
X65.0Y-40.0
X65.0Y-42.54
X65.0Y-45.08
X65.0Y-47.62
X65.0Y-50.16
X65.0Y-52.7
X68.0Y-18.0
X75.6Y-18.0
X92.0Y-43.0
X92.0Y-45.54
X92.0Y-48.08
X92.0Y-50.62
X100.0Y-43.0
X100.0Y-45.54
X100.0Y-48.08
X100.0Y-50.62
T5
X49.0Y-18.0
X49.0Y-22.5
X49.0Y-68.0
X49.0Y-72.5
X55.5Y-18.0
X55.5Y-22.5
X55.5Y-68.0
X55.5Y-72.5
X62.0Y-68.0
X62.0Y-72.5
X68.5Y-68.0
X68.5Y-72.5
X75.0Y-68.0
X75.0Y-72.5
X81.5Y-68.0
X81.5Y-72.5
T2
X6.7Y-13.68G85X7.3Y-13.68
G05
X6.7Y-22.32G85X7.3Y-22.32
G05
X10.5Y-13.68G85X11.1Y-13.68
G05
X10.5Y-22.32G85X11.1Y-22.32
G05
M30
